<?xml version="1.0" encoding="utf-8"?>
<!-- Generator: Adobe Illustrator 19.0.0, SVG Export Plug-In . SVG Version: 6.00 Build 0)  -->
<svg version="1.1" id="Livello_1" xmlns="http://www.w3.org/2000/svg" xmlns:xlink="http://www.w3.org/1999/xlink" x="0px" y="0px"
	 viewBox="0 0 40 40" enable-background="new 0 0 40 40" xml:space="preserve">
<g id="Livello_2_2_">
</g>
<g>
	<path d="M11.976,14.752l8.241,0.005l0.005,8.241c0,0.407,0.332,0.739,0.74,0.739c0.198,0,0.384-0.076,0.523-0.215
		c0.137-0.137,0.216-0.328,0.216-0.524l-0.005-8.24l8.242,0.005c0.191,0,0.374-0.073,0.515-0.208
		c0.144-0.138,0.223-0.326,0.223-0.527c0-0.199-0.076-0.386-0.214-0.524c-0.139-0.141-0.325-0.219-0.523-0.219l-8.243-0.006
		l-0.004-8.241c0-0.407-0.332-0.739-0.74-0.739c-0.408,0-0.74,0.332-0.74,0.739l0.005,8.241l-8.24-0.006
		c-0.408,0-0.74,0.332-0.74,0.74C11.236,14.42,11.568,14.752,11.976,14.752z"/>
	<path d="M14.268,32.358h-1.351v-7.132c0-0.138-0.112-0.25-0.25-0.25h-0.824c-0.06,0-0.118,0.021-0.164,0.062l-2.418,2.096
		c-0.098,0.085-0.115,0.23-0.038,0.336l0.309,0.423c0.045,0.069,0.109,0.128,0.195,0.175c0.131,0.07,0.252,0.1,0.464,0.032
		c0.067-0.024,0.13-0.061,0.191-0.11l1.024-0.877v5.246H9.907c-0.138,0-0.25,0.112-0.25,0.25v0.771c0,0.138,0.112,0.25,0.25,0.25
		h4.361c0.138,0,0.25-0.112,0.25-0.25v-0.771C14.518,32.47,14.406,32.358,14.268,32.358z M10.106,27.864L10.106,27.864
		L10.106,27.864L10.106,27.864z"/>
	<path d="M22.927,28.23v-0.375c0-0.138-0.112-0.25-0.25-0.25h-1.495c-0.181-0.101-0.382-0.179-0.598-0.233
		c-0.533-0.136-1.188-0.119-1.717,0.053c-0.294,0.095-0.554,0.235-0.772,0.417c-0.219,0.181-0.393,0.406-0.518,0.67
		c-0.124,0.263-0.186,0.555-0.186,0.87c0,0.398,0.093,0.754,0.278,1.056c0.116,0.188,0.26,0.354,0.431,0.495
		c-0.011,0.01-0.022,0.019-0.033,0.028c-0.108,0.096-0.196,0.19-0.267,0.29c-0.076,0.105-0.135,0.217-0.173,0.329
		c-0.039,0.113-0.059,0.228-0.059,0.339c0,0.267,0.066,0.489,0.196,0.659c0.029,0.039,0.061,0.075,0.095,0.109
		c-0.169,0.101-0.314,0.218-0.433,0.35c-0.222,0.246-0.334,0.546-0.334,0.893c0,0.243,0.063,0.479,0.188,0.699
		c0.124,0.218,0.308,0.41,0.548,0.571c0.231,0.154,0.521,0.279,0.862,0.37c0.337,0.088,0.73,0.132,1.167,0.132
		c0.446,0,0.853-0.059,1.208-0.175c0.358-0.118,0.668-0.279,0.923-0.478c0.257-0.204,0.458-0.441,0.597-0.704
		c0.142-0.27,0.213-0.553,0.213-0.841c0-0.316-0.069-0.583-0.205-0.79c-0.133-0.205-0.312-0.367-0.53-0.481
		c-0.202-0.107-0.435-0.186-0.692-0.232c-0.25-0.045-0.503-0.068-0.751-0.068h-0.708c-0.221,0-0.414-0.015-0.575-0.043
		c-0.147-0.026-0.264-0.066-0.343-0.118c-0.027-0.018-0.052-0.04-0.052-0.111c0-0.041,0.027-0.089,0.05-0.122
		c0.028-0.041,0.069-0.083,0.121-0.124c0.543,0.121,1.159,0.098,1.654-0.066c0.295-0.099,0.552-0.24,0.765-0.422
		c0.218-0.188,0.391-0.413,0.512-0.671c0.124-0.262,0.187-0.556,0.187-0.872c0-0.217-0.031-0.425-0.091-0.62l0.352-0.049
		C22.764,28.655,22.927,28.474,22.927,28.23z M18.981,33.16c0.176,0.04,0.362,0.061,0.556,0.061h0.603
		c0.185,0,0.361,0.011,0.529,0.033c0.163,0.021,0.304,0.054,0.421,0.096c0.096,0.033,0.17,0.078,0.221,0.137
		c0.037,0.04,0.055,0.102,0.055,0.186c0,0.107-0.027,0.202-0.082,0.29c-0.059,0.095-0.145,0.176-0.265,0.25
		c-0.124,0.078-0.282,0.14-0.472,0.183c-0.395,0.092-0.975,0.09-1.348,0.005c-0.181-0.042-0.329-0.098-0.443-0.166
		c-0.099-0.059-0.172-0.127-0.215-0.199c-0.044-0.075-0.065-0.152-0.065-0.236c0-0.145,0.043-0.259,0.136-0.361
		C18.706,33.334,18.83,33.241,18.981,33.16z M20.762,29.792c-0.04,0.108-0.099,0.198-0.178,0.274
		c-0.079,0.077-0.179,0.136-0.307,0.183c-0.258,0.093-0.644,0.095-0.905,0c-0.125-0.046-0.224-0.106-0.304-0.183
		c-0.08-0.078-0.14-0.168-0.182-0.277c-0.044-0.113-0.065-0.236-0.065-0.377c0-0.286,0.08-0.502,0.245-0.662
		c0.167-0.162,0.414-0.241,0.754-0.241c0.34,0,0.595,0.081,0.76,0.242c0.165,0.159,0.245,0.376,0.245,0.661
		C20.826,29.552,20.805,29.677,20.762,29.792z"/>
	<path d="M28.48,27.605h-1.495c-0.182-0.101-0.383-0.18-0.6-0.233c-0.53-0.136-1.187-0.119-1.716,0.053
		c-0.293,0.095-0.553,0.235-0.773,0.417c-0.22,0.182-0.394,0.407-0.517,0.67c-0.124,0.262-0.187,0.555-0.187,0.87
		c0,0.397,0.093,0.752,0.278,1.057c0.116,0.188,0.26,0.353,0.431,0.494c-0.011,0.01-0.022,0.018-0.033,0.028
		c-0.107,0.093-0.195,0.188-0.268,0.29c-0.075,0.101-0.133,0.213-0.174,0.33c-0.039,0.115-0.059,0.229-0.059,0.338
		c0,0.267,0.066,0.488,0.196,0.659c0.029,0.038,0.061,0.075,0.095,0.109c-0.17,0.101-0.315,0.218-0.433,0.35
		c-0.222,0.246-0.335,0.546-0.335,0.893c0,0.244,0.064,0.479,0.188,0.698c0.122,0.218,0.307,0.41,0.548,0.572
		c0.23,0.154,0.52,0.278,0.863,0.37c0.338,0.088,0.731,0.132,1.167,0.132c0.446,0,0.852-0.059,1.208-0.175
		c0.358-0.118,0.669-0.279,0.923-0.478c0.257-0.203,0.458-0.44,0.597-0.704c0.142-0.269,0.214-0.552,0.214-0.841
		c0-0.315-0.069-0.581-0.205-0.79c-0.133-0.206-0.312-0.368-0.53-0.481c-0.201-0.107-0.434-0.186-0.691-0.232
		c-0.25-0.045-0.503-0.068-0.752-0.068h-0.707c-0.224,0-0.412-0.014-0.575-0.043c-0.148-0.026-0.264-0.066-0.344-0.118
		c-0.027-0.018-0.051-0.04-0.051-0.111c0-0.042,0.027-0.089,0.049-0.121c0.03-0.042,0.07-0.084,0.122-0.125
		c0.539,0.122,1.157,0.1,1.654-0.066c0.294-0.099,0.551-0.24,0.765-0.422c0.217-0.186,0.39-0.412,0.513-0.672
		c0.123-0.264,0.185-0.557,0.185-0.871c0-0.218-0.031-0.425-0.091-0.62l0.352-0.049c0.274-0.058,0.438-0.238,0.438-0.483v-0.375
		C28.73,27.717,28.619,27.605,28.48,27.605z M24.785,33.16c0.175,0.04,0.362,0.061,0.556,0.061h0.602
		c0.185,0,0.362,0.011,0.529,0.033c0.163,0.021,0.304,0.053,0.421,0.096c0.096,0.033,0.169,0.078,0.222,0.137
		c0.036,0.04,0.054,0.102,0.054,0.186c0,0.107-0.026,0.202-0.083,0.291c-0.058,0.094-0.143,0.175-0.263,0.249
		c-0.125,0.078-0.283,0.14-0.472,0.183c-0.397,0.092-0.975,0.09-1.349,0.005c-0.18-0.042-0.329-0.098-0.442-0.166
		c-0.1-0.06-0.172-0.127-0.215-0.199c-0.044-0.076-0.066-0.153-0.066-0.236c0-0.144,0.044-0.258,0.137-0.361
		C24.509,33.334,24.633,33.241,24.785,33.16z M26.565,29.792C26.565,29.792,26.565,29.792,26.565,29.792
		c-0.039,0.107-0.098,0.196-0.179,0.274c-0.079,0.077-0.178,0.136-0.306,0.183c-0.257,0.093-0.645,0.097-0.904,0
		c-0.125-0.046-0.224-0.106-0.304-0.183c-0.081-0.078-0.14-0.169-0.182-0.277c-0.044-0.113-0.065-0.236-0.065-0.377
		c0-0.285,0.08-0.502,0.246-0.662c0.166-0.162,0.413-0.241,0.754-0.241c0.344,0,0.593,0.079,0.76,0.242
		c0.164,0.159,0.245,0.376,0.245,0.661C26.629,29.553,26.608,29.678,26.565,29.792z"/>
	<path d="M31.752,32.381c-0.049-0.118-0.118-0.222-0.205-0.308c-0.087-0.086-0.188-0.155-0.304-0.207
		c-0.236-0.102-0.521-0.103-0.757,0.001c-0.115,0.05-0.217,0.12-0.303,0.208c-0.083,0.085-0.15,0.188-0.2,0.306
		c-0.048,0.115-0.072,0.241-0.072,0.374c0,0.135,0.024,0.262,0.074,0.38c0.048,0.113,0.115,0.214,0.2,0.302
		c0.085,0.086,0.187,0.154,0.309,0.207c0.118,0.047,0.243,0.071,0.372,0.071c0.128,0,0.253-0.024,0.377-0.074
		c0.116-0.05,0.218-0.117,0.306-0.204c0.087-0.087,0.155-0.188,0.204-0.305c0.049-0.117,0.073-0.244,0.073-0.377
		C31.826,32.625,31.801,32.499,31.752,32.381z"/>
</g>
</svg>
