<?xml version="1.0" encoding="utf-8"?>
<!-- Generator: Adobe Illustrator 19.0.0, SVG Export Plug-In . SVG Version: 6.00 Build 0)  -->
<svg version="1.1" id="Livello_1" xmlns="http://www.w3.org/2000/svg" xmlns:xlink="http://www.w3.org/1999/xlink" x="0px" y="0px"
	 viewBox="0 0 40 40" enable-background="new 0 0 40 40" xml:space="preserve">
<g id="Livello_2_2_">
</g>
<g>
	<path d="M19.274,23.99c0,0.408,0.332,0.739,0.74,0.739c0.199,0,0.385-0.077,0.522-0.216c0.138-0.137,0.217-0.327,0.217-0.523
		l-0.005-8.241l8.242,0.006c0.191,0,0.374-0.074,0.515-0.209c0.143-0.138,0.223-0.326,0.223-0.526
		c0.001-0.199-0.075-0.386-0.214-0.526c-0.139-0.14-0.325-0.217-0.523-0.217l-8.242-0.006l-0.004-8.242
		c0-0.407-0.332-0.739-0.74-0.739c-0.408,0-0.74,0.332-0.74,0.739l0.005,8.241l-8.241-0.006c-0.408,0-0.74,0.332-0.74,0.74
		c0,0.407,0.332,0.739,0.74,0.739l8.241,0.006L19.274,23.99z"/>
	<path d="M10.396,33.348H9.044v-7.131c0-0.138-0.112-0.25-0.25-0.25H7.971c-0.06,0-0.118,0.022-0.164,0.061l-2.419,2.095
		c-0.098,0.086-0.115,0.232-0.039,0.337l0.312,0.429c0.044,0.066,0.108,0.123,0.192,0.169c0.132,0.072,0.269,0.098,0.464,0.032
		c0.068-0.024,0.131-0.061,0.191-0.11l1.024-0.876v5.245H6.035c-0.138,0-0.25,0.112-0.25,0.25v0.771c0,0.138,0.112,0.25,0.25,0.25
		h4.361c0.138,0,0.25-0.112,0.25-0.25v-0.771C10.646,33.46,10.534,33.348,10.396,33.348z"/>
	<path d="M17.321,31.406c-0.161-0.13-0.341-0.237-0.536-0.319c-0.184-0.079-0.373-0.149-0.567-0.216
		c-0.188-0.062-0.373-0.121-0.554-0.178c-0.163-0.05-0.309-0.108-0.437-0.174c-0.109-0.056-0.198-0.122-0.263-0.197
		c-0.028-0.032-0.066-0.089-0.066-0.204c0-0.078,0.016-0.148,0.048-0.213c0.035-0.068,0.085-0.127,0.156-0.183
		c0.07-0.056,0.161-0.102,0.266-0.136c0.253-0.08,0.602-0.065,0.825,0c0.13,0.039,0.241,0.081,0.334,0.127
		c0.098,0.049,0.181,0.092,0.251,0.133c0.32,0.183,0.613,0.087,0.74-0.149l0.227-0.37c0.062-0.101,0.045-0.231-0.042-0.314
		c-0.244-0.228-0.533-0.41-0.861-0.54c-0.619-0.241-1.46-0.261-2.062-0.045c-0.281,0.1-0.524,0.237-0.725,0.413
		c-0.199,0.177-0.354,0.385-0.459,0.619c-0.106,0.233-0.159,0.481-0.159,0.736c0,0.282,0.052,0.53,0.154,0.738
		c0.101,0.202,0.235,0.376,0.401,0.516c0.162,0.134,0.344,0.245,0.539,0.327c0.188,0.083,0.38,0.155,0.575,0.218
		c0.189,0.061,0.373,0.12,0.555,0.175c0.167,0.051,0.314,0.109,0.436,0.174c0.111,0.059,0.199,0.128,0.262,0.204
		c0.048,0.059,0.071,0.137,0.071,0.237c0,0.094-0.018,0.184-0.051,0.266c-0.033,0.08-0.085,0.15-0.152,0.21
		c-0.075,0.065-0.172,0.119-0.288,0.159c-0.258,0.094-0.7,0.078-0.929-0.003c-0.141-0.049-0.253-0.099-0.345-0.154
		c-0.101-0.059-0.187-0.113-0.261-0.167c-0.234-0.164-0.499-0.149-0.66-0.044c-0.072,0.048-0.134,0.111-0.185,0.192l-0.238,0.387
		c-0.063,0.102-0.044,0.235,0.045,0.316c0.249,0.225,0.552,0.409,0.904,0.55c0.355,0.142,0.752,0.213,1.182,0.213
		c0.38,0,0.722-0.053,1.016-0.156c0.298-0.106,0.555-0.253,0.764-0.438c0.213-0.19,0.376-0.418,0.484-0.675
		c0.107-0.256,0.161-0.536,0.161-0.833c0-0.271-0.052-0.51-0.156-0.709C17.622,31.706,17.486,31.539,17.321,31.406z M13.774,33.376
		L13.774,33.376L13.774,33.376L13.774,33.376z"/>
	<path d="M23.759,31.556c0.065-0.097,0.094-0.237,0.094-0.457c0-0.436-0.065-0.832-0.195-1.179c-0.13-0.351-0.316-0.651-0.552-0.895
		c-0.237-0.243-0.521-0.431-0.841-0.557c-0.701-0.278-1.606-0.243-2.271,0.047c-0.361,0.158-0.674,0.381-0.932,0.664
		c-0.252,0.279-0.448,0.613-0.58,0.991c-0.132,0.372-0.199,0.778-0.199,1.207c0,0.523,0.074,0.994,0.219,1.399
		c0.146,0.414,0.357,0.768,0.625,1.051c0.268,0.284,0.589,0.504,0.958,0.653c0.365,0.145,0.765,0.218,1.191,0.218
		c0.217,0,0.443-0.02,0.672-0.058c0.227-0.038,0.449-0.097,0.658-0.173c0.216-0.077,0.421-0.179,0.61-0.3
		c0.195-0.125,0.366-0.275,0.507-0.446c0.074-0.09,0.076-0.219,0.005-0.312l-0.279-0.363c-0.158-0.222-0.452-0.278-0.765-0.069
		c-0.081,0.054-0.185,0.112-0.31,0.176c-0.116,0.061-0.261,0.119-0.435,0.173c-0.323,0.106-0.859,0.11-1.224-0.037
		c-0.183-0.074-0.338-0.185-0.474-0.338c-0.137-0.155-0.247-0.354-0.326-0.588c-0.061-0.18-0.101-0.387-0.121-0.617h3.563
		C23.603,31.747,23.717,31.624,23.759,31.556z M19.868,30.618c0.079-0.309,0.211-0.56,0.397-0.746
		c0.235-0.236,0.554-0.351,0.976-0.351c0.195,0,0.369,0.032,0.518,0.097c0.143,0.062,0.267,0.151,0.367,0.264
		C22.229,30,22.308,30.14,22.36,30.3c0.032,0.099,0.056,0.205,0.069,0.317H19.868z"/>
	<path d="M27.941,33.322c-0.118-0.186-0.271-0.213-0.353-0.213c-0.083,0-0.166,0.029-0.25,0.091
		c-0.036,0.025-0.079,0.053-0.125,0.081c-0.045,0.026-0.099,0.051-0.164,0.074c-0.126,0.047-0.349,0.041-0.465-0.077
		c-0.068-0.067-0.102-0.189-0.102-0.36v-3.203h1.396c0.138,0,0.25-0.112,0.25-0.25v-0.732c0-0.138-0.112-0.25-0.25-0.25h-1.396
		V26.75c0-0.138-0.112-0.25-0.25-0.25H25.72c-0.123,0-0.235,0.04-0.327,0.119c-0.086,0.078-0.138,0.176-0.154,0.292l-0.207,1.587
		l-0.751,0.094c-0.125,0.016-0.219,0.122-0.219,0.248v0.404c0,0.186,0.08,0.296,0.154,0.362c0.087,0.07,0.195,0.108,0.311,0.108
		h0.443v3.27c0,0.542,0.146,0.97,0.435,1.27c0.292,0.304,0.704,0.457,1.228,0.457c0.288,0,0.574-0.052,0.851-0.155
		c0.276-0.105,0.515-0.252,0.711-0.435c0.086-0.081,0.104-0.212,0.042-0.312L27.941,33.322z"/>
	<path d="M32.176,33.319c-0.119-0.183-0.271-0.21-0.351-0.21c-0.082,0-0.164,0.029-0.25,0.09c-0.037,0.025-0.08,0.054-0.125,0.082
		c-0.046,0.026-0.1,0.051-0.164,0.074c-0.127,0.047-0.349,0.041-0.465-0.077c-0.084-0.083-0.102-0.242-0.102-0.36v-3.203h1.397
		c0.138,0,0.25-0.112,0.25-0.25v-0.732c0-0.138-0.112-0.25-0.25-0.25h-1.397V26.75c0-0.138-0.112-0.25-0.25-0.25h-0.511
		c-0.125,0-0.237,0.04-0.324,0.117c-0.087,0.077-0.142,0.18-0.157,0.294l-0.207,1.587l-0.752,0.094
		c-0.125,0.016-0.219,0.122-0.219,0.248v0.404c0,0.185,0.08,0.295,0.154,0.361c0.087,0.071,0.195,0.109,0.312,0.109h0.442v3.27
		c0,0.542,0.147,0.97,0.436,1.271c0.292,0.303,0.705,0.456,1.229,0.456c0.288,0,0.573-0.052,0.849-0.155
		c0.274-0.104,0.513-0.25,0.712-0.434c0.087-0.081,0.106-0.213,0.044-0.314L32.176,33.319z"/>
	<path d="M35.625,33.373c-0.047-0.115-0.116-0.219-0.207-0.311c-0.088-0.086-0.189-0.154-0.302-0.203
		c-0.234-0.104-0.522-0.103-0.756-0.001c-0.115,0.051-0.217,0.12-0.304,0.209c-0.085,0.088-0.152,0.191-0.198,0.305
		c-0.049,0.116-0.074,0.242-0.074,0.375c0,0.134,0.025,0.261,0.073,0.376c0.047,0.113,0.114,0.215,0.199,0.303
		c0.085,0.088,0.185,0.155,0.308,0.207c0.118,0.05,0.244,0.074,0.375,0.074c0.13,0,0.256-0.024,0.376-0.075
		c0.119-0.051,0.219-0.117,0.307-0.204c0.088-0.089,0.157-0.191,0.204-0.305c0.049-0.117,0.073-0.244,0.073-0.376
		C35.698,33.616,35.674,33.49,35.625,33.373z"/>
</g>
</svg>
