<?xml version="1.0" encoding="utf-8"?>
<!-- Generator: Adobe Illustrator 19.0.0, SVG Export Plug-In . SVG Version: 6.00 Build 0)  -->
<svg version="1.1" id="Livello_1" xmlns="http://www.w3.org/2000/svg" xmlns:xlink="http://www.w3.org/1999/xlink" x="0px" y="0px"
	 viewBox="0 0 40 40" enable-background="new 0 0 40 40" xml:space="preserve">
<g id="Livello_2_2_">
</g>
<g>
	<path d="M28.954,14.276l-8.242-0.006l-0.005-8.242c0-0.407-0.332-0.739-0.74-0.739c-0.408,0-0.74,0.332-0.74,0.739l0.005,8.241
		l-8.241-0.006c-0.408,0-0.74,0.332-0.74,0.74c0,0.407,0.332,0.739,0.74,0.739l8.241,0.006l0.005,8.241
		c0,0.407,0.332,0.739,0.74,0.739c0.199,0,0.385-0.077,0.522-0.216c0.137-0.137,0.216-0.327,0.216-0.523l-0.004-8.241l8.242,0.006
		c0.191,0,0.373-0.074,0.515-0.209c0.143-0.138,0.223-0.326,0.223-0.527c0-0.199-0.075-0.385-0.215-0.525
		C29.336,14.353,29.151,14.276,28.954,14.276z"/>
	<path d="M8.888,33.348H7.537v-7.131c0-0.138-0.112-0.25-0.25-0.25H6.463c-0.06,0-0.118,0.022-0.164,0.061l-2.418,2.095
		c-0.098,0.086-0.115,0.232-0.039,0.337l0.314,0.431c0.045,0.065,0.107,0.121,0.191,0.168c0.132,0.07,0.272,0.097,0.463,0.031
		c0.069-0.024,0.133-0.062,0.192-0.11l1.023-0.876v5.245H4.527c-0.138,0-0.25,0.112-0.25,0.25v0.771c0,0.138,0.112,0.25,0.25,0.25
		h4.361c0.138,0,0.25-0.112,0.25-0.25v-0.771C9.138,33.46,9.026,33.348,8.888,33.348z"/>
	<path d="M16.399,28.951L16.399,28.951c-0.194-0.216-0.436-0.386-0.719-0.507c-0.278-0.117-0.6-0.177-0.955-0.177
		c-0.479,0-0.921,0.083-1.316,0.245c-0.398,0.164-0.771,0.413-1.107,0.739c-0.082,0.079-0.099,0.204-0.043,0.303l0.18,0.318
		c0.048,0.089,0.116,0.164,0.194,0.217c0.198,0.145,0.495,0.136,0.732-0.037c0.086-0.059,0.189-0.128,0.31-0.203
		c0.109-0.068,0.241-0.132,0.391-0.188c0.14-0.052,0.32-0.078,0.535-0.078c0.299,0,0.514,0.084,0.657,0.256
		c0.152,0.184,0.229,0.474,0.229,0.861v0.203c-0.563,0.012-1.054,0.066-1.459,0.161c-0.483,0.111-0.863,0.252-1.164,0.43
		c-0.312,0.184-0.545,0.401-0.693,0.648c-0.147,0.249-0.222,0.514-0.222,0.785c0,0.297,0.05,0.561,0.149,0.783
		c0.101,0.226,0.238,0.415,0.408,0.562c0.167,0.146,0.368,0.258,0.597,0.332c0.222,0.07,0.458,0.105,0.703,0.105
		c0.238,0,0.457-0.021,0.65-0.062c0.195-0.041,0.385-0.104,0.562-0.187c0.174-0.081,0.341-0.182,0.499-0.299
		c0.044-0.033,0.089-0.068,0.135-0.104l0.026,0.121c0.043,0.218,0.159,0.319,0.256,0.369c0.095,0.046,0.211,0.069,0.348,0.069h0.448
		c0.138,0,0.25-0.112,0.25-0.25v-3.68c0-0.346-0.048-0.669-0.142-0.962C16.74,29.428,16.592,29.167,16.399,28.951z M14.899,33.322
		c-0.116,0.059-0.237,0.103-0.366,0.133c-0.209,0.053-0.507,0.07-0.724,0.01c-0.085-0.025-0.152-0.06-0.205-0.104
		c-0.056-0.048-0.1-0.108-0.134-0.184C13.437,33.099,13.42,33,13.42,32.883c0-0.108,0.03-0.202,0.091-0.288
		c0.066-0.093,0.184-0.179,0.349-0.256c0.183-0.086,0.43-0.157,0.733-0.213c0.25-0.045,0.549-0.072,0.892-0.081v0.834
		c-0.082,0.083-0.167,0.159-0.255,0.228C15.125,33.192,15.017,33.262,14.899,33.322z"/>
	<path d="M22.75,28.966C22.75,28.965,22.75,28.965,22.75,28.966c-0.188-0.222-0.421-0.394-0.695-0.512
		c-0.27-0.117-0.583-0.177-0.931-0.177c-0.446,0-0.846,0.096-1.191,0.286c-0.186,0.103-0.365,0.225-0.533,0.366l-0.022-0.167
		c-0.067-0.248-0.26-0.396-0.515-0.396h-0.601c-0.138,0-0.25,0.112-0.25,0.25v5.752c0,0.138,0.112,0.25,0.25,0.25h1.01
		c0.138,0,0.25-0.112,0.25-0.25v-4.138c0.184-0.192,0.382-0.348,0.589-0.464c0.223-0.122,0.463-0.184,0.716-0.184
		c0.333,0,0.568,0.089,0.719,0.271c0.16,0.193,0.241,0.48,0.241,0.854v3.662c0,0.138,0.112,0.25,0.25,0.25h1.011
		c0.138,0,0.25-0.112,0.25-0.25v-3.662c0-0.349-0.045-0.673-0.136-0.965C23.07,29.443,22.931,29.182,22.75,28.966z"/>
	<path d="M29.065,28.966c0-0.001-0.001-0.001-0.001-0.002c-0.187-0.221-0.421-0.393-0.693-0.51
		c-0.271-0.117-0.584-0.177-0.932-0.177c-0.446,0-0.846,0.096-1.191,0.286c-0.186,0.103-0.364,0.225-0.533,0.366l-0.022-0.167
		c-0.066-0.247-0.259-0.396-0.514-0.396h-0.602c-0.138,0-0.25,0.112-0.25,0.25v5.752c0,0.138,0.112,0.25,0.25,0.25h1.011
		c0.138,0,0.25-0.112,0.25-0.25v-4.138c0.183-0.191,0.38-0.348,0.589-0.464c0.223-0.122,0.464-0.184,0.717-0.184
		c0.333,0,0.568,0.089,0.718,0.271c0.16,0.193,0.241,0.48,0.241,0.854v3.662c0,0.138,0.112,0.25,0.25,0.25h1.011
		c0.138,0,0.25-0.112,0.25-0.25v-3.662c0-0.349-0.045-0.673-0.136-0.965C29.384,29.442,29.245,29.181,29.065,28.966z"/>
	<path d="M36.002,30.186c-0.137-0.395-0.338-0.738-0.598-1.022c-0.261-0.284-0.582-0.506-0.951-0.656
		c-0.735-0.307-1.734-0.306-2.467-0.001c-0.371,0.152-0.692,0.373-0.955,0.656c-0.261,0.282-0.464,0.626-0.603,1.021
		c-0.137,0.39-0.207,0.829-0.207,1.307c0,0.48,0.07,0.922,0.207,1.311c0.139,0.393,0.342,0.734,0.604,1.018
		c0.261,0.282,0.583,0.502,0.954,0.654c0.366,0.149,0.781,0.226,1.233,0.226c0.453,0,0.868-0.076,1.233-0.226
		c0.371-0.152,0.692-0.372,0.953-0.655c0.259-0.284,0.46-0.627,0.598-1.019c0.135-0.389,0.203-0.829,0.203-1.309
		C36.206,31.015,36.137,30.576,36.002,30.186z M34.661,31.497c0,0.623-0.125,1.109-0.371,1.445c-0.232,0.314-0.582,0.467-1.07,0.467
		c-0.25,0-0.467-0.042-0.645-0.124c-0.173-0.08-0.321-0.197-0.438-0.348c-0.121-0.157-0.213-0.356-0.274-0.591
		c-0.064-0.244-0.096-0.53-0.096-0.85c0-0.321,0.032-0.608,0.096-0.854c0.062-0.237,0.154-0.438,0.275-0.595
		c0.118-0.154,0.261-0.269,0.438-0.352c0.177-0.082,0.394-0.124,0.644-0.124c0.489,0,0.839,0.154,1.07,0.472
		C34.536,30.38,34.661,30.87,34.661,31.497z"/>
</g>
</svg>
