<?xml version="1.0" encoding="utf-8"?>
<!-- Generator: Adobe Illustrator 19.0.0, SVG Export Plug-In . SVG Version: 6.00 Build 0)  -->
<svg version="1.1" id="Livello_1" xmlns="http://www.w3.org/2000/svg" xmlns:xlink="http://www.w3.org/1999/xlink" x="0px" y="0px"
	 viewBox="0 0 40 40" enable-background="new 0 0 40 40" xml:space="preserve">
<path d="M36.495,19.226l-15.732,0.012l0.012-15.732c0-0.421-0.342-0.763-0.762-0.763c-0.42,0-0.763,0.342-0.763,0.763l-0.012,15.733
	L3.505,19.25c-0.42,0-0.762,0.342-0.762,0.762c0,0.204,0.079,0.396,0.223,0.539c0.144,0.144,0.336,0.224,0.539,0.224l15.732-0.012
	l-0.012,15.732c0,0.204,0.082,0.4,0.223,0.538c0.145,0.145,0.336,0.225,0.54,0.225c0.42,0,0.763-0.342,0.763-0.763l0.012-15.732
	l15.732-0.012c0.42,0,0.763-0.342,0.763-0.763S36.916,19.226,36.495,19.226z"/>
<g id="Livello_2_2_">
</g>
</svg>
