<?xml version="1.0" encoding="utf-8"?>
<!-- Generator: Adobe Illustrator 17.0.0, SVG Export Plug-In . SVG Version: 6.00 Build 0)  -->
<!DOCTYPE svg PUBLIC "-//W3C//DTD SVG 1.1//EN" "http://www.w3.org/Graphics/SVG/1.1/DTD/svg11.dtd">
<svg version="1.1" xmlns="http://www.w3.org/2000/svg" xmlns:xlink="http://www.w3.org/1999/xlink" x="0px" y="0px" width="40px"
	 height="40px" viewBox="0 0 40 40" enable-background="new 0 0 40 40" xml:space="preserve">
<g id="Livello_1">
	<path d="M36.495,19.476l-15.982,0.012l0.012-15.983c0-0.282-0.23-0.513-0.512-0.513c-0.283,0-0.513,0.23-0.513,0.513l-0.012,15.983
		L3.505,19.5c-0.282,0-0.512,0.229-0.512,0.512c0,0.137,0.053,0.266,0.15,0.362s0.225,0.15,0.362,0.15l15.982-0.011l-0.012,15.982
		c0,0.136,0.055,0.269,0.15,0.361c0.097,0.098,0.226,0.151,0.362,0.151c0.283,0,0.513-0.23,0.513-0.513l0.012-15.983l15.983-0.011
		c0.283,0,0.513-0.23,0.513-0.513S36.777,19.476,36.495,19.476z"/>
</g>
<g id="Livello_2">
</g>
</svg>
