<?xml version="1.0" encoding="utf-8"?>
<!-- Generator: Adobe Illustrator 17.0.0, SVG Export Plug-In . SVG Version: 6.00 Build 0)  -->
<!DOCTYPE svg PUBLIC "-//W3C//DTD SVG 1.1//EN" "http://www.w3.org/Graphics/SVG/1.1/DTD/svg11.dtd">
<svg version="1.1" xmlns="http://www.w3.org/2000/svg" xmlns:xlink="http://www.w3.org/1999/xlink" x="0px" y="0px" width="40px"
	 height="40px" viewBox="0 0 40 40" enable-background="new 0 0 40 40" xml:space="preserve">
<g id="Livello_1">
	<g>
		<g>
			<path fill="#1A171B" d="M19.977,40.016c-3.17,0-5.926-2.26-6.582-5.323H3.634c-0.759,0-1.461-0.471-1.747-1.172
				c-0.293-0.743-0.117-1.562,0.447-2.093l0,0c-0.003,0,0.57-0.672,1.166-2.096c0.59-1.428,1.293-3.917,1.293-7.649
				c0-4.425,0.975-10.499,5.62-14.305c1.533-1.265,3.067-1.951,4.179-2.316c0.067-0.875,0.339-2.216,1.292-3.337
				c0.687-0.796,1.959-1.74,4.136-1.74c2.244,0,3.504,0.948,4.167,1.743c0.72,0.849,1.143,1.945,1.259,3.262
				c1.113,0.375,2.653,1.079,4.189,2.374c2.542,2.153,5.57,6.393,5.57,14.364c0,3.828,0.691,6.313,1.271,7.724
				c0.532,1.321,1.068,1.88,1.128,1.939c0.604,0.574,0.787,1.34,0.538,2.058c-0.262,0.664-0.843,1.123-1.522,1.218
				c-0.069,0.026-0.195,0.026-0.278,0.026h-9.786C25.897,37.756,23.143,40.016,19.977,40.016z M14.422,34.692
				c0.636,2.501,2.929,4.323,5.555,4.323c2.622,0,4.913-1.822,5.553-4.323H14.422z M26.14,33.692h10.203
				c0.023,0,0.048,0.002,0.071-0.002c0.392-0.06,0.67-0.28,0.792-0.59c0.113-0.327,0.03-0.68-0.229-0.925
				c-0.002-0.002-0.074-0.073-0.076-0.075c-0.124-0.124-0.757-0.802-1.35-2.273c-0.613-1.49-1.346-4.108-1.346-8.101
				c0-7.589-2.836-11.585-5.216-13.601c-1.563-1.318-3.129-1.972-4.166-2.287c-0.202-0.062-0.344-0.244-0.354-0.455
				c-0.058-1.247-0.41-2.261-1.049-3.014c-0.528-0.635-1.544-1.387-3.401-1.387c-1.798,0-2.829,0.756-3.377,1.391
				c-0.894,1.053-1.054,2.376-1.07,3.07c-0.005,0.218-0.15,0.407-0.358,0.469c-1.036,0.307-2.6,0.943-4.168,2.236
				c-4.343,3.559-5.255,9.323-5.255,13.532c0,3.897-0.745,6.52-1.37,8.033c-0.681,1.625-1.346,2.378-1.374,2.409
				c-0.298,0.282-0.376,0.663-0.234,1.023c0.132,0.323,0.461,0.544,0.818,0.544H26.14z"/>
		</g>
	</g>
</g>
<g id="Livello_2">
</g>
</svg>
