<?xml version="1.0" encoding="utf-8"?>
<!-- Generator: Adobe Illustrator 19.0.0, SVG Export Plug-In . SVG Version: 6.00 Build 0)  -->
<svg version="1.1" id="Livello_1" xmlns="http://www.w3.org/2000/svg" xmlns:xlink="http://www.w3.org/1999/xlink" x="0px" y="0px"
	 viewBox="0 0 40 40" enable-background="new 0 0 40 40" xml:space="preserve">
<g id="Livello_2_2_">
</g>
<g id="New_Symbol_232">
</g>
<g id="XMLID_875_">
	<path id="XMLID_821_" fill="#1A171B" d="M20.001,37.317c-9.549,0-17.317-7.769-17.317-17.317S10.452,2.683,20.001,2.683
		c9.548,0,17.315,7.769,17.315,17.317S29.549,37.317,20.001,37.317z M20.001,4.183C11.279,4.183,4.184,11.278,4.184,20
		s7.096,15.817,15.817,15.817c8.721,0,15.815-7.096,15.815-15.817S28.722,4.183,20.001,4.183z"/>
</g>
<g id="XMLID_820_">
	<path id="XMLID_876_" fill="#1A171B" d="M20.604,8.911c-0.13-0.218-0.361-0.345-0.602-0.345c-0.243,0-0.476,0.127-0.602,0.345
		L9.3,26.394c-0.126,0.22-0.126,0.474,0,0.695c0.128,0.219,0.361,0.345,0.603,0.345H30.1c0.381,0,0.695-0.311,0.695-0.693
		c0-0.15-0.047-0.277-0.117-0.39L20.604,8.911z M11.104,26.05l8.898-15.402L28.9,26.05H11.104z"/>
	<path id="XMLID_879_" fill="#1A171B" d="M19.297,15.418v5.316c0,0.379,0.312,0.691,0.693,0.691c0.381,0,0.693-0.312,0.693-0.691
		v-5.316c0-0.383-0.312-0.695-0.693-0.695C19.609,14.724,19.297,15.036,19.297,15.418"/>
	<path id="XMLID_880_" fill="#1A171B" d="M19.991,22.352c-0.381,0-0.693,0.311-0.693,0.693v0.463c0,0.379,0.312,0.691,0.693,0.691
		c0.381,0,0.693-0.312,0.693-0.691v-0.463C20.684,22.663,20.372,22.352,19.991,22.352"/>
</g>
</svg>
