<?xml version="1.0" encoding="utf-8"?>
<!-- Generator: Adobe Illustrator 17.0.0, SVG Export Plug-In . SVG Version: 6.00 Build 0)  -->
<!DOCTYPE svg PUBLIC "-//W3C//DTD SVG 1.1//EN" "http://www.w3.org/Graphics/SVG/1.1/DTD/svg11.dtd">
<svg version="1.1" xmlns="http://www.w3.org/2000/svg" xmlns:xlink="http://www.w3.org/1999/xlink" x="0px" y="0px" width="40px"
	 height="40px" viewBox="0 0 40 40" enable-background="new 0 0 40 40" xml:space="preserve">
<g id="Livello_1">
	<g>
		<g>
			<path fill="#1A171B" d="M35.765,35.729H4.24c-0.739,0-1.431-0.398-1.806-1.039c-0.378-0.653-0.379-1.431-0.006-2.085L18.2,5.312
				c0.363-0.64,1.055-1.041,1.801-1.041c0.743,0,1.435,0.399,1.805,1.042l15.729,27.224c0.203,0.321,0.316,0.705,0.316,1.107
				C37.852,34.794,36.915,35.729,35.765,35.729z M19.948,6.312c-0.01,0-0.017,0-0.017,0L4.162,33.601l0.078,0.129h31.525
				c0.044,0,0.087-0.043,0.087-0.086c-0.007-0.011-0.042-0.096-0.049-0.107L20.073,6.312C20.071,6.313,19.985,6.312,19.948,6.312z"
				/>
		</g>
	</g>
	<g>
		<g>
			<path fill="#1A171B" d="M19.029,15.549v8.701c0,0.622,0.511,1.132,1.135,1.132c0.626,0,1.135-0.51,1.135-1.132v-8.701
				c0-0.626-0.51-1.139-1.135-1.139C19.541,14.41,19.029,14.923,19.029,15.549L19.029,15.549z M19.029,15.549"/>
		</g>
		<g>
			<path fill="#1A171B" d="M20.165,26.899c-0.624,0-1.135,0.506-1.135,1.132v0.761c0,0.618,0.511,1.132,1.135,1.132
				c0.626,0,1.135-0.513,1.135-1.132v-0.761C21.3,27.405,20.79,26.899,20.165,26.899L20.165,26.899z M20.165,26.899"/>
		</g>
	</g>
</g>
<g id="Livello_2">
</g>
</svg>
