<?xml version="1.0" encoding="utf-8"?>
<!-- Generator: Adobe Illustrator 17.0.0, SVG Export Plug-In . SVG Version: 6.00 Build 0)  -->
<!DOCTYPE svg PUBLIC "-//W3C//DTD SVG 1.1//EN" "http://www.w3.org/Graphics/SVG/1.1/DTD/svg11.dtd">
<svg version="1.1" xmlns="http://www.w3.org/2000/svg" xmlns:xlink="http://www.w3.org/1999/xlink" x="0px" y="0px" width="40px"
	 height="40px" viewBox="0 0 40 40" enable-background="new 0 0 40 40" xml:space="preserve">
<g id="Livello_1">
	<g>
		<g>
			<path fill="#1A171B" d="M13.66,30.672c-0.111,0-0.222-0.043-0.305-0.13L3.491,20.315c-0.159-0.164-0.159-0.424,0-0.589
				l9.904-10.268c0.163-0.171,0.432-0.172,0.6-0.012c0.169,0.163,0.174,0.432,0.011,0.6l-9.62,9.973l9.579,9.933
				c0.163,0.168,0.158,0.437-0.011,0.6C13.872,30.632,13.766,30.672,13.66,30.672z"/>
		</g>
		<g>
			<path fill="#1A171B" d="M36.204,20.445H3.797c-0.235,0-0.424-0.19-0.424-0.424s0.19-0.424,0.424-0.424h32.407
				c0.235,0,0.424,0.19,0.424,0.424S36.438,20.445,36.204,20.445z"/>
		</g>
	</g>
</g>
<g id="Livello_2">
</g>
</svg>
