<?xml version="1.0" encoding="utf-8"?>
<!-- Generator: Adobe Illustrator 19.0.0, SVG Export Plug-In . SVG Version: 6.00 Build 0)  -->
<svg version="1.1" id="Livello_1" xmlns="http://www.w3.org/2000/svg" xmlns:xlink="http://www.w3.org/1999/xlink" x="0px" y="0px"
	 viewBox="0 0 40 40" enable-background="new 0 0 40 40" xml:space="preserve">
<g id="Livello_2_2_">
</g>
<g id="New_Symbol_232">
</g>
<g id="XMLID_923_">
	<path id="XMLID_1437_" d="M20.001,2.683C10.452,2.683,2.684,10.451,2.684,20s7.769,17.317,17.317,17.317
		c9.548,0,17.315-7.769,17.315-17.317S29.549,2.683,20.001,2.683z M20.001,35.817c-8.722,0-15.817-7.096-15.817-15.817
		S11.279,4.183,20.001,4.183c8.721,0,15.815,7.096,15.815,15.817S28.722,35.817,20.001,35.817z"/>
	<path id="XMLID_1517_" d="M20.013,22.697c-2.705,0-5.174,1.376-6.604,3.682c-0.053,0.084-0.069,0.187-0.047,0.283
		c0.023,0.098,0.084,0.181,0.169,0.233l0.572,0.353c0.061,0.038,0.129,0.056,0.196,0.056c0.125,0,0.248-0.063,0.319-0.178
		c1.165-1.885,3.182-3.011,5.394-3.011c2.197,0,4.206,1.113,5.374,2.979c0.053,0.084,0.137,0.144,0.233,0.166
		c0.097,0.024,0.198,0.006,0.283-0.048l0.568-0.356c0.084-0.053,0.145-0.137,0.166-0.233c0.022-0.098,0.005-0.199-0.048-0.283
		C25.158,24.059,22.7,22.697,20.013,22.697z"/>
	<circle id="XMLID_1519_" cx="15.431" cy="16.005" r="1.044"/>
	<circle id="XMLID_1520_" cx="24.568" cy="16.005" r="1.044"/>
</g>
</svg>
