<?xml version="1.0" encoding="utf-8"?>
<!-- Generator: Adobe Illustrator 17.0.0, SVG Export Plug-In . SVG Version: 6.00 Build 0)  -->
<!DOCTYPE svg PUBLIC "-//W3C//DTD SVG 1.1//EN" "http://www.w3.org/Graphics/SVG/1.1/DTD/svg11.dtd">
<svg version="1.1" xmlns="http://www.w3.org/2000/svg" xmlns:xlink="http://www.w3.org/1999/xlink" x="0px" y="0px" width="40px"
	 height="40px" viewBox="0 0 40 40" enable-background="new 0 0 40 40" xml:space="preserve">
<g id="Livello_1">
	<g>
		<g>
			<path fill="#1A171B" d="M36.611,34.313H3.389c-2.084,0-2.867-1.762-2.989-2.692l-0.004-11.79c0-0.062,0.012-0.123,0.034-0.182
				L5.093,7.661C5.114,7.6,5.795,5.687,8.113,5.687h23.758c2.329,0,3.015,1.911,3.043,1.992l4.655,11.97
				c0.022,0.059,0.034,0.12,0.034,0.182v11.725C39.478,32.552,38.696,34.313,36.611,34.313z M1.396,19.925v11.631
				c0.021,0.119,0.301,1.758,1.993,1.758h33.222c1.738,0,1.986-1.748,1.996-1.822l-0.004-11.566l-4.628-11.9
				c-0.025-0.069-0.502-1.337-2.087-1.337H8.131c-1.629,0-2.094,1.304-2.099,1.317L1.396,19.925z"/>
		</g>
		<g>
			<path fill="#1A171B" d="M27.166,22.618h-14.33c-0.142,0-0.277-0.061-0.372-0.166c-0.095-0.105-0.14-0.246-0.125-0.387
				c0.122-1.151-0.032-2.005-0.449-2.468c-0.412-0.458-1.044-0.423-1.101-0.419l-5.573,0.005c-0.166,0-0.32-0.082-0.414-0.219
				C4.71,18.828,4.691,18.653,4.752,18.5l3.489-8.814c0.075-0.191,0.26-0.316,0.465-0.316h22.588c0.205,0,0.39,0.125,0.465,0.316
				l3.441,8.695c0.064,0.084,0.102,0.188,0.102,0.303c0,0.276-0.224,0.5-0.5,0.5c-0.004,0-0.012,0.001-0.02,0h-5.504
				c-0.077-0.006-0.115-0.009-0.171-0.009c-0.231,0-0.666,0.055-0.997,0.423c-0.416,0.464-0.571,1.316-0.448,2.468
				c0.016,0.141-0.03,0.281-0.125,0.387C27.443,22.558,27.308,22.618,27.166,22.618z M13.375,21.618h13.253
				c-0.048-1.186,0.2-2.089,0.739-2.688c0.815-0.906,1.984-0.74,1.983-0.741l4.697-0.004l-3.093-7.815H9.046l-3.093,7.815h4.749
				c0.015-0.003,0.09-0.009,0.192-0.009c0.397,0,1.149,0.098,1.74,0.754C13.173,19.529,13.422,20.432,13.375,21.618z"/>
		</g>
	</g>
</g>
<g id="Livello_2">
</g>
</svg>
