<?xml version="1.0" encoding="utf-8"?>
<!-- Generator: Adobe Illustrator 17.0.0, SVG Export Plug-In . SVG Version: 6.00 Build 0)  -->
<!DOCTYPE svg PUBLIC "-//W3C//DTD SVG 1.1//EN" "http://www.w3.org/Graphics/SVG/1.1/DTD/svg11.dtd">
<svg version="1.1" xmlns="http://www.w3.org/2000/svg" xmlns:xlink="http://www.w3.org/1999/xlink" x="0px" y="0px" width="40px"
	 height="40px" viewBox="0 0 40 40" enable-background="new 0 0 40 40" xml:space="preserve">
<g id="Livello_1">
	<g>
		<g>
			<g>
				<g>
					<path fill="#1A171B" d="M15.997,24.893H7.064c-0.982,0-1.78-0.8-1.78-1.783v-4.395c0-0.982,0.799-1.781,1.78-1.781h8.933
						c0.982,0,1.78,0.799,1.78,1.781v4.395C17.777,24.093,16.978,24.893,15.997,24.893z M7.064,17.825
						c-0.49,0-0.889,0.399-0.889,0.89v4.395c0,0.492,0.399,0.892,0.889,0.892h8.933c0.49,0,0.889-0.4,0.889-0.892v-4.395
						c0-0.491-0.399-0.89-0.889-0.89H7.064z"/>
				</g>
				<g>
					<path fill="#1A171B" d="M15.997,33.478H7.064c-0.982,0-1.78-0.799-1.78-1.782v-4.393c0-0.982,0.799-1.78,1.78-1.78h8.933
						c0.982,0,1.78,0.798,1.78,1.78v4.393C17.777,32.679,16.978,33.478,15.997,33.478z M7.064,26.414
						c-0.49,0-0.889,0.399-0.889,0.889v4.393c0,0.491,0.399,0.891,0.889,0.891h8.933c0.49,0,0.889-0.4,0.889-0.891v-4.393
						c0-0.49-0.399-0.889-0.889-0.889H7.064z"/>
				</g>
				<g>
					<path fill="#1A171B" d="M32.934,24.893h-8.927c-0.985,0-1.786-0.8-1.786-1.783v-4.395c0-0.982,0.801-1.781,1.786-1.781h8.927
						c0.983,0,1.782,0.799,1.782,1.781v4.395C34.716,24.093,33.917,24.893,32.934,24.893z M24.007,17.825
						c-0.493,0-0.894,0.399-0.894,0.89v4.395c0,0.492,0.401,0.892,0.894,0.892h8.927c0.491,0,0.891-0.4,0.891-0.892v-4.395
						c0-0.491-0.4-0.89-0.891-0.89H24.007z"/>
				</g>
				<g>
					<path fill="#1A171B" d="M32.934,33.478h-8.927c-0.985,0-1.786-0.799-1.786-1.782v-4.393c0-0.982,0.801-1.78,1.786-1.78h8.927
						c0.983,0,1.782,0.798,1.782,1.78v4.393C34.716,32.679,33.917,33.478,32.934,33.478z M24.007,26.414
						c-0.493,0-0.894,0.399-0.894,0.889v4.393c0,0.491,0.401,0.891,0.894,0.891h8.927c0.491,0,0.891-0.4,0.891-0.891v-4.393
						c0-0.49-0.4-0.889-0.891-0.889H24.007z"/>
				</g>
			</g>
		</g>
		<g>
			<g>
				<path fill="#1A171B" d="M36.357,37.212H3.643c-0.547,0-0.992-0.445-0.992-0.993V6.686c0-0.546,0.445-0.991,0.992-0.991h6.224
					c0.246,0,0.446,0.199,0.446,0.446c0,0.246-0.199,0.446-0.446,0.446H3.643c-0.055,0-0.1,0.044-0.1,0.099V36.22
					c0,0.057,0.044,0.101,0.1,0.101h32.714c0.056,0,0.099-0.044,0.099-0.101V6.686c0-0.055-0.044-0.099-0.099-0.099h-5.906
					c-0.246,0-0.446-0.199-0.446-0.446c0-0.246,0.199-0.446,0.446-0.446h5.906c0.546,0,0.991,0.445,0.991,0.991V36.22
					C37.348,36.768,36.903,37.212,36.357,37.212z"/>
			</g>
			<g>
				<path fill="#1A171B" d="M26.044,6.587H14.14c-0.246,0-0.446-0.199-0.446-0.446c0-0.246,0.199-0.446,0.446-0.446h11.904
					c0.246,0,0.446,0.199,0.446,0.446C26.49,6.388,26.29,6.587,26.044,6.587z"/>
			</g>
			<g>
				<path fill="#1A171B" d="M12.116,9.678c-0.246,0-0.446-0.199-0.446-0.446V3.233c0-0.246,0.199-0.446,0.446-0.446
					c0.246,0,0.446,0.199,0.446,0.446v5.999C12.561,9.478,12.362,9.678,12.116,9.678z"/>
			</g>
			<g>
				<path fill="#1A171B" d="M28.269,9.678c-0.246,0-0.446-0.199-0.446-0.446V3.233c0-0.246,0.199-0.446,0.446-0.446
					s0.446,0.199,0.446,0.446v5.999C28.715,9.478,28.516,9.678,28.269,9.678z"/>
			</g>
			<g>
				<path fill="#1A171B" d="M36.902,13.947H3.098c-0.246,0-0.446-0.199-0.446-0.446c0-0.246,0.199-0.446,0.446-0.446h33.805
					c0.246,0,0.446,0.199,0.446,0.446C37.348,13.748,37.149,13.947,36.902,13.947z"/>
			</g>
		</g>
	</g>
</g>
<g id="Livello_2">
</g>
</svg>
