<?xml version="1.0" encoding="utf-8"?>
<!-- Generator: Adobe Illustrator 17.0.0, SVG Export Plug-In . SVG Version: 6.00 Build 0)  -->
<!DOCTYPE svg PUBLIC "-//W3C//DTD SVG 1.1//EN" "http://www.w3.org/Graphics/SVG/1.1/DTD/svg11.dtd">
<svg version="1.1" xmlns="http://www.w3.org/2000/svg" xmlns:xlink="http://www.w3.org/1999/xlink" x="0px" y="0px" width="40px"
	 height="40px" viewBox="0 0 40 40" enable-background="new 0 0 40 40" xml:space="preserve">
<g id="Livello_1">
	<g>
		<g>
			<path fill="#1A171B" d="M36.016,32.584H3.984c-1.567,0-2.841-1.275-2.841-2.842V10.248c0-1.567,1.274-2.842,2.841-2.842h32.032
				c1.567,0,2.842,1.275,2.842,2.842v19.495C38.857,31.309,37.583,32.584,36.016,32.584z M3.984,8.38
				c-1.029,0-1.867,0.838-1.867,1.867v19.495c0,1.029,0.838,1.867,1.867,1.867h32.032c1.029,0,1.867-0.838,1.867-1.867V10.248
				c0-1.029-0.838-1.867-1.867-1.867H3.984z"/>
		</g>
		<g>
			<g>
				<path fill="#1A171B" d="M2.682,32.068c-0.127,0-0.255-0.049-0.351-0.148c-0.186-0.194-0.181-0.502,0.012-0.689l9.2-8.884
					c0.093-0.09,0.204-0.125,0.349-0.137c0.13,0.003,0.253,0.057,0.343,0.151l3.869,4.066l10.869-10.903
					c0.19-0.191,0.498-0.192,0.688-0.003l2.211,2.185l5.546-5.471h-2.594c-0.269,0-0.487-0.218-0.487-0.487
					c0-0.269,0.218-0.487,0.487-0.487h3.782c0.198,0,0.376,0.12,0.451,0.303c0.075,0.183,0.031,0.393-0.108,0.532l-6.734,6.642
					c-0.19,0.187-0.495,0.187-0.685-0.001l-2.208-2.182L16.44,27.47c-0.093,0.094-0.216,0.114-0.351,0.144
					c-0.131-0.002-0.256-0.056-0.347-0.151l-3.875-4.073L3.02,31.931C2.926,32.023,2.804,32.068,2.682,32.068z"/>
			</g>
			<g>
				<path fill="#1A171B" d="M36.605,15.925c-0.269,0-0.487-0.218-0.487-0.487v-3.689c0-0.269,0.218-0.487,0.487-0.487
					s0.487,0.218,0.487,0.487v3.689C37.092,15.707,36.874,15.925,36.605,15.925z"/>
			</g>
			<g>
				<rect x="32.775" y="15.047" fill="#1A171B" width="0.974" height="16.782"/>
			</g>
			<g>
				<rect x="28.092" y="17.286" fill="#1A171B" width="0.974" height="14.543"/>
			</g>
			<g>
				<rect x="23.264" y="19.446" fill="#1A171B" width="0.974" height="12.651"/>
			</g>
			<g>
				<rect x="18.495" y="24.231" fill="#1A171B" width="0.974" height="7.875"/>
			</g>
			<g>
				<rect x="13.719" y="25.141" fill="#1A171B" width="0.974" height="6.811"/>
			</g>
			<g>
				<rect x="8.966" y="24.949" fill="#1A171B" width="0.974" height="7.095"/>
			</g>
		</g>
	</g>
</g>
<g id="Livello_2">
</g>
</svg>
