<?xml version="1.0" encoding="utf-8"?>
<!-- Generator: Adobe Illustrator 17.0.0, SVG Export Plug-In . SVG Version: 6.00 Build 0)  -->
<!DOCTYPE svg PUBLIC "-//W3C//DTD SVG 1.1//EN" "http://www.w3.org/Graphics/SVG/1.1/DTD/svg11.dtd">
<svg version="1.1" xmlns="http://www.w3.org/2000/svg" xmlns:xlink="http://www.w3.org/1999/xlink" x="0px" y="0px" width="40px"
	 height="40px" viewBox="0 0 40 40" enable-background="new 0 0 40 40" xml:space="preserve">
<g id="Livello_1">
	<g id="New_Symbol_232">
	</g>
	<g>
		<path fill="#1D1D1B" d="M6.827,33.979h8.156V25.24H6.827V33.979z M11.204,28.011h0.338v3.029h0.657v0.317H10.41V31.04h0.717
			v-2.276c0-0.068,0.002-0.138,0.007-0.208l-0.596,0.511c-0.015,0.013-0.031,0.022-0.047,0.026c-0.015,0.006-0.03,0.009-0.044,0.009
			c-0.023,0-0.044-0.006-0.063-0.016c-0.018-0.01-0.033-0.022-0.042-0.036l-0.131-0.179L11.204,28.011z"/>
		<path fill="#1D1D1B" d="M6.827,24.075h8.156v-8.739H6.827V24.075z M11.204,17.689h0.338v3.029h0.657v0.317H10.41v-0.317h0.717
			v-2.276c0-0.068,0.002-0.138,0.007-0.208l-0.596,0.511c-0.015,0.013-0.031,0.022-0.047,0.026c-0.015,0.006-0.03,0.009-0.044,0.009
			c-0.023,0-0.044-0.006-0.063-0.016c-0.018-0.01-0.033-0.022-0.042-0.036l-0.131-0.179L11.204,17.689z"/>
		<path fill="#1D1D1B" d="M25.471,6.015v27.964h8.156V6.015H25.471z M30.258,22.036H28.47v-0.317h0.717v-2.276
			c0-0.068,0.002-0.138,0.007-0.208l-0.596,0.511c-0.015,0.013-0.031,0.022-0.047,0.026c-0.015,0.006-0.03,0.009-0.044,0.009
			c-0.023,0-0.044-0.006-0.063-0.016s-0.033-0.022-0.042-0.036L28.27,19.55l0.993-0.86h0.338v3.029h0.657V22.036z"/>
		<path fill="#1D1D1B" d="M16.172,33.979h8.156V17.667h-8.156V33.979z M20.249,24.15h0.338v3.029h0.657v0.318h-1.789v-0.318h0.717
			v-2.276c0-0.068,0.002-0.138,0.007-0.208l-0.596,0.511c-0.015,0.013-0.031,0.022-0.047,0.026c-0.015,0.006-0.03,0.009-0.044,0.009
			c-0.023,0-0.044-0.006-0.063-0.016c-0.018-0.01-0.033-0.022-0.042-0.036l-0.131-0.179L20.249,24.15z"/>
		<path fill="#1D1D1B" d="M16.172,10.857v5.826h8.156v-5.826H16.172z M21.244,15.443h-1.789v-0.318h0.717V12.85
			c0-0.068,0.002-0.138,0.007-0.208l-0.596,0.511c-0.015,0.013-0.031,0.022-0.047,0.026c-0.015,0.006-0.03,0.009-0.044,0.009
			c-0.023,0-0.044-0.006-0.063-0.016c-0.018-0.01-0.033-0.022-0.042-0.036l-0.131-0.179l0.993-0.86h0.338v3.029h0.657V15.443z"/>
	</g>
</g>
<g id="Livello_2">
</g>
</svg>
