<?xml version="1.0" encoding="utf-8"?>
<!-- Generator: Adobe Illustrator 19.0.0, SVG Export Plug-In . SVG Version: 6.00 Build 0)  -->
<svg version="1.1" id="Livello_1" xmlns="http://www.w3.org/2000/svg" xmlns:xlink="http://www.w3.org/1999/xlink" x="0px" y="0px"
	 viewBox="0 0 40 40" enable-background="new 0 0 40 40" xml:space="preserve">
<g id="Livello_2_2_">
</g>
<g>
	<g>
		<path d="M32.167,32.31H7.833v-8.734h24.335V32.31z M8.833,31.31h22.335v-6.734H8.833V31.31z"/>
	</g>
	<g>
		<path d="M29.822,35.393H10.178V31.31h19.644V35.393z M11.178,34.393h17.644V32.31H11.178V34.393z"/>
	</g>
	<g>
		<path d="M22.339,24.537h-4.679v-8.308c-2.231-0.936-3.707-3.134-3.707-5.576c0-3.334,2.712-6.046,6.046-6.046
			s6.046,2.712,6.046,6.046c0,2.442-1.476,4.641-3.707,5.576V24.537z M18.661,23.537h2.679v-8.005l0.334-0.117
			c2.018-0.709,3.373-2.623,3.373-4.762c0-2.782-2.264-5.046-5.046-5.046s-5.046,2.264-5.046,5.046c0,2.139,1.355,4.053,3.373,4.762
			l0.334,0.117V23.537z"/>
	</g>
</g>
</svg>
