<?xml version="1.0" encoding="utf-8"?>
<!-- Generator: Adobe Illustrator 17.0.0, SVG Export Plug-In . SVG Version: 6.00 Build 0)  -->
<!DOCTYPE svg PUBLIC "-//W3C//DTD SVG 1.1//EN" "http://www.w3.org/Graphics/SVG/1.1/DTD/svg11.dtd">
<svg version="1.1" xmlns="http://www.w3.org/2000/svg" xmlns:xlink="http://www.w3.org/1999/xlink" x="0px" y="0px" width="40px"
	 height="40px" viewBox="0 0 40 40" enable-background="new 0 0 40 40" xml:space="preserve">
<g id="Livello_1">
	<g>
		<path fill="#1A171B" d="M5.87,34.535c-0.099,0-0.198-0.038-0.274-0.114c-0.151-0.151-0.151-0.397,0-0.548l28.26-28.294
			c0.151-0.151,0.397-0.151,0.548,0c0.151,0.151,0.151,0.397,0,0.548L6.144,34.421C6.068,34.497,5.969,34.535,5.87,34.535z"/>
	</g>
	<g>
		<path fill="#1A171B" d="M34.13,34.535c-0.099,0-0.198-0.038-0.274-0.114L5.596,6.127c-0.151-0.151-0.151-0.397,0-0.548
			c0.151-0.151,0.397-0.151,0.548,0l28.26,28.294c0.151,0.151,0.151,0.397,0,0.548C34.328,34.497,34.229,34.535,34.13,34.535z"/>
	</g>
</g>
<g id="Livello_2">
</g>
</svg>
