<?xml version="1.0" encoding="utf-8"?>
<!-- Generator: Adobe Illustrator 19.0.0, SVG Export Plug-In . SVG Version: 6.00 Build 0)  -->
<svg version="1.1" id="Livello_1" xmlns="http://www.w3.org/2000/svg" xmlns:xlink="http://www.w3.org/1999/xlink" x="0px" y="0px"
	 viewBox="0 0 40 40" enable-background="new 0 0 40 40" xml:space="preserve">
<g id="Livello_2_2_">
</g>
<g id="New_Symbol_232">
</g>
<g id="XMLID_889_">
	<path id="XMLID_890_" fill="#1A171B" d="M20.001,37.317c-9.549,0-17.317-7.769-17.317-17.317S10.452,2.683,20.001,2.683
		c9.548,0,17.315,7.769,17.315,17.317S29.549,37.317,20.001,37.317z M20.001,4.183C11.279,4.183,4.184,11.278,4.184,20
		s7.096,15.817,15.817,15.817c8.721,0,15.815-7.096,15.815-15.817S28.722,4.183,20.001,4.183z"/>
</g>
<g id="XMLID_1052_">
	<path id="XMLID_1053_" fill="#1A171B" d="M30.528,16.49c-2.808-2.809-6.547-4.354-10.528-4.354c-3.982,0-7.722,1.546-10.53,4.354
		c-0.283,0.285-0.282,0.747,0.001,1.029c0.138,0.139,0.32,0.214,0.515,0.214c0.001,0,0.002,0,0.003,0
		c0.194,0,0.376-0.077,0.511-0.213c2.536-2.534,5.91-3.93,9.501-3.93s6.964,1.396,9.496,3.926c0.268,0.275,0.759,0.277,1.032,0.004
		c0.138-0.138,0.214-0.32,0.214-0.516C30.742,16.811,30.667,16.627,30.528,16.49z"/>
	<path id="XMLID_1054_" fill="#1A171B" d="M11.695,18.715c-0.139,0.138-0.215,0.321-0.214,0.517c0,0.194,0.076,0.377,0.214,0.513
		c0.274,0.276,0.761,0.273,1.029,0c4.012-4.01,10.538-4.01,14.548,0c0.138,0.138,0.32,0.214,0.516,0.214s0.378-0.076,0.515-0.213
		c0.138-0.137,0.214-0.319,0.214-0.514c0.001-0.195-0.075-0.379-0.214-0.517C23.725,14.137,16.273,14.137,11.695,18.715z"/>
	<path id="XMLID_1055_" fill="#1A171B" d="M20,18.427c-2.299,0-4.458,0.893-6.079,2.515c-0.282,0.281-0.283,0.743,0.001,1.031
		c0.283,0.279,0.744,0.281,1.029-0.002c1.347-1.346,3.14-2.088,5.049-2.088c1.908,0,3.701,0.742,5.048,2.088
		c0.137,0.138,0.32,0.213,0.516,0.213s0.378-0.075,0.517-0.214c0.281-0.285,0.28-0.747-0.002-1.028
		C24.457,19.319,22.298,18.427,20,18.427z"/>
	<path id="XMLID_1058_" fill="#1A171B" d="M20,21.988c-1.561,0-2.83,1.269-2.83,2.829s1.27,2.83,2.83,2.83s2.829-1.27,2.829-2.83
		S21.561,21.988,20,21.988z M21.373,24.817c0,0.758-0.616,1.374-1.373,1.374c-0.758,0-1.374-0.616-1.374-1.374
		s0.616-1.374,1.374-1.374C20.757,23.443,21.373,24.06,21.373,24.817z"/>
</g>
</svg>
