<?xml version="1.0" encoding="utf-8"?>
<!-- Generator: Adobe Illustrator 17.0.0, SVG Export Plug-In . SVG Version: 6.00 Build 0)  -->
<!DOCTYPE svg PUBLIC "-//W3C//DTD SVG 1.1//EN" "http://www.w3.org/Graphics/SVG/1.1/DTD/svg11.dtd">
<svg version="1.1" xmlns="http://www.w3.org/2000/svg" xmlns:xlink="http://www.w3.org/1999/xlink" x="0px" y="0px" width="40px"
	 height="40px" viewBox="0 0 40 40" enable-background="new 0 0 40 40" xml:space="preserve">
<g id="Livello_1">
	<g>
		<g>
			<path fill="#1A171B" d="M26.554,35.436H1.786c-0.778,0-1.411-0.633-1.411-1.411V4.987c0-0.777,0.633-1.41,1.411-1.41h34.698
				c0.777,0,1.41,0.633,1.41,1.41v24.143c0,0.276-0.224,0.5-0.5,0.5c-0.276,0-0.5-0.224-0.5-0.5V4.987c0-0.227-0.184-0.41-0.41-0.41
				H1.786c-0.227,0-0.411,0.184-0.411,0.41v29.038c0,0.226,0.184,0.411,0.411,0.411h24.768c0.276,0,0.5,0.224,0.5,0.5
				S26.83,35.436,26.554,35.436z"/>
		</g>
		<g>
			<path fill="#1A171B" d="M17.729,35.436c-0.276,0-0.5-0.224-0.5-0.5V4.077c0-0.276,0.224-0.5,0.5-0.5s0.5,0.224,0.5,0.5v30.859
				C18.229,35.213,18.005,35.436,17.729,35.436z"/>
		</g>
		<g>
			<path fill="#1A171B" d="M8.17,35.436c-0.276,0-0.5-0.224-0.5-0.5V4.077c0-0.276,0.224-0.5,0.5-0.5s0.5,0.224,0.5,0.5v30.859
				C8.67,35.213,8.447,35.436,8.17,35.436z"/>
		</g>
		<g>
			<path fill="#1A171B" d="M26.554,28.12c-0.276,0-0.5-0.224-0.5-0.5V4.077c0-0.276,0.224-0.5,0.5-0.5s0.5,0.224,0.5,0.5V27.62
				C27.054,27.896,26.83,28.12,26.554,28.12z"/>
		</g>
		<g>
			<path fill="#1A171B" d="M37.312,9.404H1.188c-0.276,0-0.5-0.224-0.5-0.5c0-0.276,0.224-0.5,0.5-0.5h36.125
				c0.276,0,0.5,0.224,0.5,0.5C37.812,9.181,37.589,9.404,37.312,9.404z"/>
		</g>
		<g>
			<path fill="#1A171B" d="M36.963,14.696H1.188c-0.276,0-0.5-0.224-0.5-0.5c0-0.276,0.224-0.5,0.5-0.5h35.775
				c0.276,0,0.5,0.224,0.5,0.5C37.463,14.473,37.239,14.696,36.963,14.696z"/>
		</g>
		<g>
			<path fill="#1A171B" d="M26.554,19.989H1.188c-0.276,0-0.5-0.224-0.5-0.5c0-0.276,0.224-0.5,0.5-0.5h25.366
				c0.276,0,0.5,0.224,0.5,0.5C27.054,19.766,26.83,19.989,26.554,19.989z"/>
		</g>
		<g>
			<path fill="#1A171B" d="M26.089,25.252H0.875c-0.276,0-0.5-0.224-0.5-0.5c0-0.276,0.224-0.5,0.5-0.5h25.214
				c0.276,0,0.5,0.224,0.5,0.5C26.589,25.028,26.365,25.252,26.089,25.252z"/>
		</g>
		<g>
			<path fill="#1A171B" d="M21.46,30.508H0.875c-0.276,0-0.5-0.224-0.5-0.5c0-0.276,0.224-0.5,0.5-0.5H21.46
				c0.276,0,0.5,0.224,0.5,0.5C21.96,30.284,21.736,30.508,21.46,30.508z"/>
		</g>
		<g>
			<g>
				<g>
					<path fill="#1A171B" d="M31.381,37.597c-0.133,0-0.26-0.053-0.354-0.146l-7.701-7.702c-0.195-0.195-0.195-0.512,0-0.707
						c0.195-0.195,0.512-0.195,0.707,0l7.348,7.349l7.328-7.329c0.195-0.195,0.512-0.195,0.707,0c0.195,0.195,0.195,0.512,0,0.707
						l-7.682,7.683C31.641,37.544,31.514,37.597,31.381,37.597z"/>
				</g>
			</g>
			<g>
				<path fill="#1A171B" d="M31.381,37.597c-0.276,0-0.5-0.224-0.5-0.5V16.485c0-0.276,0.224-0.5,0.5-0.5c0.276,0,0.5,0.224,0.5,0.5
					v20.611C31.881,37.373,31.657,37.597,31.381,37.597z"/>
			</g>
		</g>
		<g>
			<rect x="0.982" y="4.295" fill="#1A171B" width="7.055" height="4.406"/>
		</g>
	</g>
</g>
<g id="Livello_2">
</g>
</svg>
