<?xml version="1.0" encoding="utf-8"?>
<!-- Generator: Adobe Illustrator 17.0.0, SVG Export Plug-In . SVG Version: 6.00 Build 0)  -->
<!DOCTYPE svg PUBLIC "-//W3C//DTD SVG 1.1//EN" "http://www.w3.org/Graphics/SVG/1.1/DTD/svg11.dtd">
<svg version="1.1" xmlns="http://www.w3.org/2000/svg" xmlns:xlink="http://www.w3.org/1999/xlink" x="0px" y="0px" width="40px"
	 height="40px" viewBox="0 0 40 40" enable-background="new 0 0 40 40" xml:space="preserve">
<g id="Livello_1">
	<g>
		<g>
			<path fill="#1A171B" d="M37.874,37.2H2.132c-0.616,0-1.191-0.332-1.501-0.866c-0.314-0.537-0.314-1.184-0.001-1.729L18.507,3.663
				C18.813,3.131,19.386,2.8,20.001,2.8c0.611,0,1.186,0.329,1.497,0.859l17.833,30.869c0.183,0.295,0.275,0.607,0.275,0.941
				C39.606,36.424,38.829,37.2,37.874,37.2z M20.001,3.8c-0.254,0-0.501,0.143-0.628,0.363L1.496,35.104
				C1.36,35.341,1.359,35.6,1.495,35.831C1.627,36.059,1.871,36.2,2.132,36.2h35.742c0.397,0,0.732-0.335,0.732-0.73
				c0-0.146-0.042-0.281-0.134-0.429L20.634,4.163C20.503,3.94,20.26,3.8,20.001,3.8z"/>
		</g>
		<g>
			<g>
				<path fill="#1A171B" d="M20.002,27.948c-0.276,0-0.5-0.224-0.5-0.5V9.864c0-0.276,0.224-0.5,0.5-0.5c0.276,0,0.5,0.224,0.5,0.5
					v17.584C20.502,27.725,20.278,27.948,20.002,27.948z"/>
			</g>
			<g>
				<path fill="#1A171B" d="M19.998,31.636c-0.276,0-0.5-0.224-0.5-0.5V29.78c0-0.276,0.224-0.5,0.5-0.5c0.276,0,0.5,0.224,0.5,0.5
					v1.355C20.498,31.412,20.274,31.636,19.998,31.636z"/>
			</g>
		</g>
	</g>
</g>
<g id="Livello_2">
</g>
</svg>
