<?xml version="1.0" encoding="utf-8"?>
<!-- Generator: Adobe Illustrator 17.0.0, SVG Export Plug-In . SVG Version: 6.00 Build 0)  -->
<!DOCTYPE svg PUBLIC "-//W3C//DTD SVG 1.1//EN" "http://www.w3.org/Graphics/SVG/1.1/DTD/svg11.dtd">
<svg version="1.1" xmlns="http://www.w3.org/2000/svg" xmlns:xlink="http://www.w3.org/1999/xlink" x="0px" y="0px" width="40px"
	 height="40px" viewBox="0 0 40 40" enable-background="new 0 0 40 40" xml:space="preserve">
<g id="Livello_1">
	<g>
		<g>
			<path fill="#1A171B" d="M15.781,17.868H4.534c-1.02,0-1.85-0.831-1.85-1.854V4.768c0-1.02,0.83-1.85,1.85-1.85h11.247
				c1.02,0,1.85,0.83,1.85,1.85v11.247C17.631,17.037,16.801,17.868,15.781,17.868z M4.534,3.804c-0.531,0-0.963,0.432-0.963,0.964
				v11.247c0,0.533,0.432,0.967,0.963,0.967h11.247c0.531,0,0.963-0.434,0.963-0.967V4.768c0-0.532-0.432-0.964-0.963-0.964H4.534z"
				/>
		</g>
		<g>
			<path fill="#1A171B" d="M35.469,17.868h-11.25c-1.02,0-1.849-0.831-1.849-1.854V4.768c0-1.02,0.829-1.85,1.849-1.85h11.25
				c1.018,0,1.847,0.83,1.847,1.85v11.247C37.315,17.037,36.487,17.868,35.469,17.868z M24.219,3.804
				c-0.531,0-0.963,0.432-0.963,0.964v11.247c0,0.533,0.432,0.967,0.963,0.967h11.25c0.52,0,0.96-0.443,0.96-0.967V4.768
				c0-0.532-0.43-0.964-0.96-0.964H24.219z"/>
		</g>
		<g>
			<path fill="#1A171B" d="M15.781,37.083H4.534c-1.02,0-1.85-0.83-1.85-1.85V23.983c0-1.021,0.83-1.851,1.85-1.851h11.247
				c1.02,0,1.85,0.83,1.85,1.851v11.249C17.631,36.252,16.801,37.083,15.781,37.083z M4.534,23.019
				c-0.531,0-0.963,0.433-0.963,0.964v11.249c0,0.532,0.432,0.964,0.963,0.964h11.247c0.531,0,0.963-0.432,0.963-0.964V23.983
				c0-0.532-0.432-0.964-0.963-0.964H4.534z"/>
		</g>
		<g>
			<path fill="#1A171B" d="M35.469,37.083h-11.25c-1.02,0-1.849-0.83-1.849-1.85V23.983c0-1.021,0.829-1.851,1.849-1.851h11.25
				c1.018,0,1.847,0.83,1.847,1.851v11.249C37.315,36.252,36.487,37.083,35.469,37.083z M24.219,23.019
				c-0.531,0-0.963,0.433-0.963,0.964v11.249c0,0.532,0.432,0.964,0.963,0.964h11.25c0.53,0,0.96-0.432,0.96-0.964V23.983
				c0-0.532-0.43-0.964-0.96-0.964H24.219z"/>
		</g>
	</g>
</g>
<g id="Livello_2">
</g>
</svg>
