<?xml version="1.0" encoding="utf-8"?>
<!-- Generator: Adobe Illustrator 17.0.0, SVG Export Plug-In . SVG Version: 6.00 Build 0)  -->
<!DOCTYPE svg PUBLIC "-//W3C//DTD SVG 1.1//EN" "http://www.w3.org/Graphics/SVG/1.1/DTD/svg11.dtd">
<svg version="1.1" xmlns="http://www.w3.org/2000/svg" xmlns:xlink="http://www.w3.org/1999/xlink" x="0px" y="0px" width="40px"
	 height="40px" viewBox="0 0 40 40" enable-background="new 0 0 40 40" xml:space="preserve">
<g id="Livello_1">
	<path fill="#1D1D1B" d="M20.969,19.998L32.489,8.465c0.268-0.268,0.268-0.702-0.001-0.971c-0.251-0.251-0.717-0.251-0.97,0.001
		L20,19.028L8.479,7.494c-0.253-0.25-0.715-0.251-0.969,0.001c-0.13,0.13-0.201,0.302-0.2,0.485c0,0.184,0.071,0.355,0.2,0.483
		l11.52,11.534L7.511,31.532c-0.268,0.268-0.268,0.702,0.001,0.971c0.262,0.26,0.715,0.255,0.969-0.002L20,20.969l11.52,11.534
		c0.13,0.129,0.302,0.199,0.484,0.199s0.354-0.07,0.485-0.2c0.13-0.13,0.201-0.302,0.2-0.485c0-0.184-0.071-0.355-0.2-0.483
		L20.969,19.998z"/>
</g>
<g id="Livello_2">
</g>
</svg>
