<?xml version="1.0" encoding="utf-8"?>
<!-- Generator: Adobe Illustrator 19.0.0, SVG Export Plug-In . SVG Version: 6.00 Build 0)  -->
<svg version="1.1" id="Livello_1" xmlns="http://www.w3.org/2000/svg" xmlns:xlink="http://www.w3.org/1999/xlink" x="0px" y="0px"
	 viewBox="0 0 40 40" enable-background="new 0 0 40 40" xml:space="preserve">
<path d="M21.499,19.994L32.755,8.727c0.413-0.414,0.413-1.087-0.001-1.502c-0.398-0.396-1.099-0.398-1.501,0.002L20,18.494
	L8.743,7.224c-0.4-0.395-1.101-0.393-1.499,0.002c-0.2,0.201-0.311,0.469-0.309,0.751c0,0.284,0.11,0.55,0.309,0.747L18.5,19.993
	L7.245,31.263c-0.413,0.414-0.413,1.087,0.003,1.503c0.193,0.191,0.466,0.301,0.748,0.301c0.002,0,0.004,0,0.006,0
	c0.283-0.001,0.556-0.112,0.745-0.305L20,21.495l11.257,11.27c0.199,0.198,0.465,0.308,0.747,0.308c0.282,0,0.549-0.109,0.751-0.31
	c0.201-0.202,0.312-0.469,0.31-0.751c0-0.283-0.11-0.55-0.31-0.747L21.499,19.994z"/>
<g id="Livello_2_2_">
</g>
</svg>
