<?xml version="1.0" encoding="utf-8"?>
<!-- Generator: Adobe Illustrator 19.0.0, SVG Export Plug-In . SVG Version: 6.00 Build 0)  -->
<svg version="1.1" id="Livello_1" xmlns="http://www.w3.org/2000/svg" xmlns:xlink="http://www.w3.org/1999/xlink" x="0px" y="0px"
	 viewBox="0 0 40 40" enable-background="new 0 0 40 40" xml:space="preserve">
<g id="Livello_2_2_">
</g>
<path d="M21.015,2.86h-2.029L7.01,35.69v1.45h25.981v-1.45L21.015,2.86z M30.802,35.418c-0.047,0.067-0.123,0.106-0.204,0.106H9.297
	c-0.082,0-0.158-0.04-0.205-0.106c-0.047-0.066-0.058-0.151-0.031-0.228l8.086-22.569c1.015-2.766,1.988-5.663,2.48-7.385
	c0.03-0.107,0.128-0.182,0.24-0.182h0.158c0.111,0,0.208,0.073,0.24,0.179c0.675,2.285,1.793,5.444,2.798,8.232v0.001l7.77,21.724
	C30.861,35.267,30.849,35.352,30.802,35.418z"/>
</svg>
