<?xml version="1.0" encoding="utf-8"?>
<!-- Generator: Adobe Illustrator 17.0.0, SVG Export Plug-In . SVG Version: 6.00 Build 0)  -->
<!DOCTYPE svg PUBLIC "-//W3C//DTD SVG 1.1//EN" "http://www.w3.org/Graphics/SVG/1.1/DTD/svg11.dtd">
<svg version="1.1" xmlns="http://www.w3.org/2000/svg" xmlns:xlink="http://www.w3.org/1999/xlink" x="0px" y="0px" width="40px"
	 height="40px" viewBox="0 0 40 40" enable-background="new 0 0 40 40" xml:space="preserve">
<g id="Livello_1">
	<g>
		<path d="M36.495,20.975L3.505,20c-0.282,0-0.512,0.229-0.512,0.512c0,0.137,0.053,0.266,0.15,0.362
			c0.097,0.097,0.225,0.15,0.362,0.15L36.495,22c0.283,0,0.513-0.231,0.513-0.513C37.007,21.206,36.777,20.975,36.495,20.975z"/>
		<path d="M24.09,26.768c-0.449-0.643-1-1.176-1.638-1.585c-0.639-0.411-1.356-0.666-2.13-0.759
			c-0.777-0.095-1.625-0.006-2.516,0.256c-0.892,0.264-1.837,0.742-2.809,1.422c-0.958,0.671-1.722,1.391-2.271,2.139
			c-0.545,0.745-0.911,1.509-1.088,2.271c-0.178,0.759-0.183,1.521-0.014,2.262c0.167,0.734,0.479,1.434,0.931,2.081
			c0.446,0.633,0.992,1.158,1.624,1.562c0.637,0.405,1.353,0.66,2.128,0.757c0.218,0.028,0.444,0.042,0.671,0.042
			c0.58,0,1.201-0.093,1.845-0.274c0.893-0.252,1.832-0.722,2.792-1.396c0.976-0.684,1.746-1.412,2.289-2.165
			c0.549-0.76,0.917-1.529,1.092-2.285c0.177-0.757,0.184-1.515,0.021-2.254C24.854,28.109,24.542,27.411,24.09,26.768z
			 M24.014,30.834c-0.161,0.628-0.488,1.271-0.972,1.913c-0.486,0.647-1.177,1.287-2.054,1.902
			c-0.878,0.614-1.712,1.043-2.479,1.274c-0.762,0.232-1.477,0.315-2.121,0.256c-0.639-0.062-1.22-0.261-1.728-0.589
			c-0.511-0.332-0.956-0.765-1.322-1.287c-0.364-0.521-0.616-1.083-0.75-1.673c-0.135-0.585-0.122-1.195,0.039-1.815
			c0.159-0.625,0.483-1.267,0.964-1.907c0.479-0.642,1.167-1.278,2.046-1.895c0.877-0.613,1.714-1.045,2.486-1.284
			c0.61-0.186,1.188-0.279,1.717-0.279c0.14,0,0.278,0.006,0.412,0.019c0.635,0.062,1.218,0.258,1.732,0.58
			c0.512,0.321,0.957,0.747,1.322,1.267c0.365,0.521,0.617,1.089,0.749,1.687C24.186,29.6,24.172,30.216,24.014,30.834z"/>
		<path d="M15.905,14.528c0.449,0.639,0.995,1.164,1.62,1.559c0.632,0.406,1.348,0.66,2.126,0.753
			c0.208,0.025,0.423,0.038,0.639,0.038c0.587,0,1.217-0.094,1.874-0.278c0.884-0.25,1.823-0.72,2.79-1.396
			c0.97-0.679,1.743-1.404,2.297-2.156c0.551-0.755,0.923-1.522,1.104-2.28c0.182-0.761,0.192-1.521,0.031-2.262
			c-0.167-0.734-0.479-1.433-0.928-2.075c-0.46-0.655-1.013-1.191-1.644-1.594c-0.64-0.405-1.358-0.655-2.135-0.742
			c-0.776-0.092-1.623-0.004-2.521,0.259c-0.891,0.262-1.836,0.74-2.81,1.423c-0.963,0.675-1.728,1.395-2.271,2.139
			c-0.546,0.747-0.912,1.511-1.087,2.27c-0.179,0.762-0.186,1.52-0.021,2.253C15.128,13.164,15.443,13.867,15.905,14.528z
			 M15.975,10.468c0.153-0.621,0.474-1.261,0.955-1.903c0.48-0.644,1.167-1.281,2.042-1.896c0.876-0.613,1.714-1.044,2.488-1.281
			c0.61-0.186,1.185-0.28,1.71-0.28c0.143,0,0.284,0.007,0.421,0.021c0.636,0.062,1.22,0.259,1.735,0.585
			c0.527,0.335,0.961,0.753,1.329,1.28c0.358,0.509,0.606,1.07,0.737,1.669c0.131,0.59,0.118,1.206-0.041,1.831
			c-0.164,0.629-0.491,1.273-0.973,1.915c-0.493,0.649-1.184,1.287-2.055,1.896c-0.873,0.613-1.707,1.043-2.477,1.277
			c-0.763,0.231-1.475,0.313-2.112,0.251c-0.63-0.065-1.209-0.267-1.722-0.598c-0.508-0.326-0.949-0.753-1.309-1.268
			c-0.368-0.526-0.623-1.092-0.758-1.682C15.811,11.694,15.82,11.082,15.975,10.468z"/>
	</g>
	<g id="New_Symbol_232">
	</g>
</g>
<g id="Livello_2">
</g>
</svg>
