<?xml version="1.0" encoding="utf-8"?>
<!-- Generator: Adobe Illustrator 19.0.0, SVG Export Plug-In . SVG Version: 6.00 Build 0)  -->
<svg version="1.1" id="Livello_1" xmlns="http://www.w3.org/2000/svg" xmlns:xlink="http://www.w3.org/1999/xlink" x="0px" y="0px"
	 viewBox="0 0 40 40" enable-background="new 0 0 40 40" xml:space="preserve">
<g id="Livello_2_2_">
</g>
<g>
	<path d="M36.499,20.725L3.505,19.75c-0.42,0-0.762,0.341-0.762,0.761c0,0.204,0.079,0.396,0.222,0.538
		c0.143,0.145,0.335,0.225,0.532,0.225h0l32.997,0.977c0.42,0,0.763-0.342,0.763-0.762C37.257,21.068,36.917,20.727,36.499,20.725z"
		/>
	<path d="M24.295,26.624c-0.468-0.669-1.043-1.225-1.708-1.651c-0.67-0.432-1.423-0.699-2.235-0.797
		c-0.806-0.102-1.687-0.01-2.617,0.265c-0.918,0.271-1.888,0.761-2.882,1.456c-0.98,0.687-1.764,1.425-2.329,2.196
		c-0.565,0.772-0.945,1.567-1.13,2.361c-0.187,0.796-0.191,1.595-0.014,2.374c0.173,0.766,0.499,1.495,0.97,2.17
		c0.465,0.659,1.034,1.207,1.693,1.629c0.668,0.426,1.419,0.692,2.231,0.794c0.225,0.029,0.461,0.044,0.704,0.044
		c0.602,0,1.246-0.096,1.913-0.284c0.919-0.259,1.884-0.74,2.868-1.431c0.998-0.7,1.788-1.448,2.348-2.224
		c0.569-0.787,0.95-1.586,1.133-2.375c0.186-0.793,0.193-1.589,0.021-2.365C25.091,28.021,24.766,27.295,24.295,26.624z
		 M23.772,30.772c-0.152,0.595-0.465,1.209-0.93,1.824c-0.47,0.626-1.142,1.248-1.997,1.848c-0.857,0.6-1.667,1.017-2.409,1.24
		c-0.723,0.222-1.404,0.305-2.024,0.246c-0.599-0.059-1.143-0.243-1.616-0.55c-0.485-0.315-0.907-0.726-1.254-1.221
		c-0.345-0.493-0.584-1.026-0.71-1.585c-0.126-0.546-0.113-1.116,0.038-1.698c0.151-0.593,0.46-1.205,0.922-1.819
		c0.462-0.619,1.132-1.238,1.989-1.839c0.855-0.598,1.668-1.019,2.416-1.25c0.585-0.179,1.139-0.269,1.644-0.269
		c0.132,0,0.262,0.006,0.388,0.018c0.596,0.059,1.142,0.241,1.624,0.543c0.484,0.304,0.905,0.707,1.25,1.198
		c0.346,0.494,0.585,1.031,0.709,1.596C23.933,29.614,23.92,30.191,23.772,30.772z"/>
	<path d="M15.7,14.672L15.7,14.672c0.47,0.668,1.039,1.215,1.69,1.625c0.665,0.428,1.416,0.694,2.231,0.791
		c0.217,0.026,0.443,0.04,0.669,0.04c0.609,0,1.262-0.097,1.941-0.288c0.912-0.258,1.876-0.739,2.865-1.432
		c0.992-0.694,1.784-1.439,2.355-2.214c0.571-0.782,0.957-1.579,1.145-2.369c0.191-0.798,0.202-1.597,0.031-2.376
		c-0.174-0.767-0.499-1.494-0.967-2.163c-0.479-0.683-1.056-1.241-1.715-1.661c-0.672-0.427-1.426-0.688-2.239-0.779
		c-0.806-0.094-1.688-0.006-2.621,0.267c-0.917,0.27-1.888,0.761-2.883,1.458c-0.986,0.69-1.77,1.43-2.329,2.196
		c-0.566,0.774-0.946,1.568-1.129,2.36c-0.188,0.798-0.195,1.594-0.022,2.363C14.891,13.249,15.219,13.983,15.7,14.672z
		 M16.217,10.529c0-0.001,0-0.001,0-0.002c0.145-0.587,0.452-1.197,0.913-1.813c0.464-0.622,1.132-1.241,1.986-1.84
		c0.854-0.598,1.667-1.018,2.418-1.247c0.588-0.179,1.139-0.27,1.638-0.27c0.134,0,0.268,0.007,0.397,0.02
		c0.596,0.058,1.143,0.241,1.625,0.547c0.499,0.317,0.91,0.714,1.258,1.213c0.339,0.481,0.574,1.013,0.698,1.58
		c0.123,0.551,0.11,1.128-0.039,1.714c-0.155,0.598-0.469,1.213-0.93,1.826c-0.477,0.628-1.149,1.248-2,1.844
		c-0.851,0.598-1.661,1.016-2.406,1.242c-0.726,0.221-1.406,0.301-2.014,0.241c-0.591-0.061-1.133-0.249-1.612-0.559
		c-0.481-0.309-0.897-0.713-1.239-1.201c-0.35-0.5-0.592-1.037-0.72-1.594C16.063,11.677,16.072,11.104,16.217,10.529z"/>
</g>
</svg>
