<?xml version="1.0" encoding="utf-8"?>
<!-- Generator: Adobe Illustrator 17.0.0, SVG Export Plug-In . SVG Version: 6.00 Build 0)  -->
<!DOCTYPE svg PUBLIC "-//W3C//DTD SVG 1.1//EN" "http://www.w3.org/Graphics/SVG/1.1/DTD/svg11.dtd">
<svg version="1.1" xmlns="http://www.w3.org/2000/svg" xmlns:xlink="http://www.w3.org/1999/xlink" x="0px" y="0px" width="40px"
	 height="40px" viewBox="0 0 40 40" enable-background="new 0 0 40 40" xml:space="preserve">
<g id="Livello_1">
	<g id="New_Symbol_232">
		<g>
			<path d="M19.28,2.121c0.127,0.037,0.259,0.038,0.389,0.06c0.631,0.106,1.214,0.336,1.764,0.66
				c0.515,0.304,0.967,0.683,1.372,1.121c0.173,0.188,0.334,0.388,0.473,0.602c0.052,0.08,0.112,0.114,0.208,0.113
				c0.533-0.009,1.048,0.092,1.549,0.267c0.621,0.217,1.177,0.547,1.671,0.984c0.524,0.463,0.934,1.012,1.236,1.64
				c0.234,0.485,0.384,0.997,0.451,1.532c0.031,0.246,0.054,0.493,0.045,0.741c-0.024,0.708-0.171,1.388-0.467,2.035
				c-0.202,0.44-0.458,0.844-0.772,1.211c-0.342,0.399-0.737,0.741-1.189,1.012c-0.077,0.046-0.103,0.101-0.106,0.187
				c-0.021,0.53-0.032,1.06-0.05,1.59c-0.008,0.244-0.009,0.488-0.02,0.731c-0.023,0.507-0.031,1.014-0.05,1.52
				c-0.009,0.255-0.011,0.511-0.02,0.766c-0.004,0.112-0.022,0.223-0.02,0.336c0.003,0.144,0.008,0.15,0.144,0.118
				c0.193-0.045,0.388-0.079,0.587-0.068c0.549,0.03,1.032,0.217,1.439,0.596c0.348,0.325,0.573,0.717,0.674,1.182
				c0.024,0.114,0.041,0.228,0.041,0.345c-0.002,0.535,0.007,1.07-0.008,1.604c-0.009,0.317-0.006,0.635-0.021,0.952
				c-0.019,0.429-0.028,0.859-0.047,1.288c-0.014,0.325-0.03,0.649-0.046,0.974c-0.019,0.371-0.039,0.742-0.069,1.112
				c-0.035,0.432-0.066,0.864-0.106,1.295c-0.053,0.57-0.114,1.14-0.193,1.707c-0.095,0.675-0.207,1.347-0.394,2.005
				c-0.081,0.284-0.181,0.559-0.314,0.824c-0.287,0.572-0.591,1.134-0.954,1.661c-0.2,0.29-0.419,0.566-0.653,0.83
				c-0.328,0.37-0.699,0.691-1.103,0.974c-0.411,0.288-0.856,0.515-1.324,0.695c-0.592,0.229-1.207,0.37-1.834,0.456
				c-0.295,0.04-0.591,0.076-0.89,0.078c-0.039,0-0.078,0-0.113,0.021c-0.411,0-0.821,0-1.232,0c-0.032-0.018-0.066-0.02-0.101-0.02
				c-0.139-0.002-0.278-0.012-0.417-0.02c-0.383-0.024-0.764-0.067-1.142-0.128c-1.171-0.189-2.291-0.533-3.336-1.106
				c-0.772-0.423-1.474-0.94-2.115-1.543c-0.192-0.18-0.375-0.369-0.557-0.559c-0.252-0.263-0.486-0.541-0.714-0.826
				c-0.254-0.318-0.493-0.647-0.727-0.98c-0.393-0.561-0.729-1.151-0.984-1.787c-0.333-0.833-0.541-1.695-0.607-2.591
				c-0.005-0.069-0.011-0.139-0.042-0.204c0-0.333,0-0.666,0-1c0.023-0.038,0.026-0.081,0.031-0.123
				c0.02-0.177,0.035-0.354,0.059-0.531c0.114-0.852,0.351-1.667,0.755-2.429c0.271-0.51,0.607-0.97,1.041-1.356
				c0.377-0.336,0.769-0.65,1.206-0.905c0.071-0.041,0.095-0.091,0.093-0.169c-0.005-0.174-0.011-0.348-0.018-0.522
				c-0.016-0.379-0.002-0.759-0.024-1.138c-0.02-0.34-0.002-0.681-0.022-1.022c-0.022-0.379-0.002-0.759-0.025-1.138
				c-0.02-0.34-0.008-0.681-0.02-1.022c-0.016-0.449-0.023-0.898-0.027-1.347c-0.004-0.507-0.038-1.014-0.028-1.522
				c0-0.012-0.001-0.023-0.001-0.035c0.002-0.056-0.022-0.094-0.071-0.123c-0.083-0.049-0.165-0.101-0.245-0.156
				c-0.379-0.26-0.716-0.567-1.014-0.917c-0.276-0.323-0.506-0.676-0.689-1.059c-0.26-0.543-0.422-1.114-0.472-1.716
				c-0.03-0.36-0.03-0.72,0.014-1.078c0.057-0.464,0.177-0.912,0.361-1.342c0.297-0.695,0.726-1.297,1.289-1.799
				c0.554-0.493,1.188-0.848,1.901-1.064c0.64-0.195,1.294-0.231,1.955-0.194c0.088,0.005,0.136-0.016,0.181-0.086
				c0.121-0.19,0.263-0.364,0.415-0.53c0.369-0.403,0.785-0.746,1.263-1.015c0.571-0.321,1.176-0.533,1.828-0.615
				c0.095-0.012,0.194-0.004,0.286-0.04C18.831,2.121,19.055,2.121,19.28,2.121z M11.795,23.074
				c-0.061,0.009-0.086,0.035-0.112,0.056c-0.155,0.128-0.313,0.254-0.463,0.388c-0.524,0.472-0.883,1.053-1.119,1.714
				c-0.242,0.679-0.328,1.384-0.35,2.099c-0.005,0.151,0.015,0.302,0.018,0.452c0.008,0.353,0.051,0.703,0.11,1.05
				c0.096,0.563,0.236,1.114,0.439,1.648c0.127,0.333,0.27,0.659,0.446,0.97c0.183,0.325,0.399,0.628,0.615,0.93
				c0.34,0.476,0.708,0.931,1.108,1.358c0.313,0.333,0.644,0.648,0.998,0.939c0.517,0.425,1.073,0.79,1.673,1.086
				c0.543,0.269,1.111,0.476,1.698,0.627c0.598,0.153,1.205,0.249,1.82,0.303c0.448,0.04,0.897,0.044,1.345,0.061
				c0.127,0.005,0.255-0.017,0.383-0.016c0.28,0.002,0.557-0.023,0.834-0.056c0.59-0.07,1.169-0.191,1.727-0.403
				c0.594-0.225,1.132-0.542,1.604-0.965c0.37-0.332,0.692-0.709,0.973-1.121c0.302-0.443,0.558-0.911,0.806-1.385
				c0.13-0.248,0.237-0.505,0.315-0.774c0.188-0.653,0.292-1.323,0.382-1.995c0.048-0.361,0.091-0.722,0.124-1.084
				c0.026-0.297,0.059-0.593,0.083-0.89c0.021-0.258,0.035-0.517,0.053-0.776c0.021-0.301,0.048-0.602,0.063-0.903
				c0.014-0.294,0.032-0.587,0.045-0.881c0.018-0.394,0.027-0.789,0.048-1.183c0.013-0.247,0.008-0.495,0.02-0.743
				c0.02-0.394,0.004-0.79,0.024-1.185c0.014-0.286,0.005-0.573,0.004-0.86c-0.001-0.481-0.27-0.878-0.717-1.056
				c-0.142-0.056-0.291-0.085-0.443-0.072c-0.191,0.017-0.369,0.083-0.545,0.158c-0.068,0.029-0.104,0.072-0.104,0.15
				c0,0.271-0.005,0.542-0.022,0.813c-0.012,0.193-0.006,0.387-0.021,0.58c-0.017,0.21-0.115,0.358-0.291,0.459
				c-0.235,0.136-0.54,0.065-0.677-0.156c-0.06-0.097-0.087-0.206-0.086-0.321c0.003-0.225,0.005-0.449,0.02-0.673
				c0.017-0.27,0.004-0.542,0.022-0.813c0.019-0.282,0.005-0.565,0.024-0.847c0.018-0.266,0.003-0.534,0.022-0.801
				c0.02-0.278,0.005-0.557,0.024-0.836c0.019-0.274,0.004-0.549,0.023-0.824c0.02-0.282,0.004-0.565,0.024-0.848
				c0.019-0.266,0.004-0.534,0.023-0.801c0.02-0.282,0.004-0.565,0.024-0.848c0.02-0.274,0.014-0.55,0.021-0.824
				c0.01-0.41,0.028-0.82,0.034-1.231c0.007-0.515,0.029-1.029,0.044-1.544c0.003-0.116,0-0.233,0.008-0.348
				c0.022-0.332,0.028-0.665,0.016-0.997c-0.013-0.362-0.174-0.668-0.43-0.914c-0.384-0.369-0.85-0.507-1.371-0.395
				c-0.551,0.119-0.946,0.444-1.166,0.97c-0.072,0.171-0.091,0.352-0.099,0.534c-0.011,0.267-0.017,0.534-0.03,0.801
				c-0.019,0.39-0.049,0.78-0.061,1.171c-0.008,0.252-0.025,0.503-0.034,0.754c-0.006,0.174-0.012,0.348-0.021,0.522
				c-0.014,0.255-0.032,0.51-0.04,0.765c-0.01,0.298-0.001,0.596-0.018,0.894c-0.022,0.378-0.032,0.758-0.048,1.137
				c-0.016,0.379-0.03,0.758-0.046,1.137c-0.016,0.391-0.033,0.781-0.046,1.172c-0.009,0.279-0.028,0.557-0.032,0.836
				c-0.002,0.144-0.027,0.285-0.102,0.413c-0.087,0.15-0.252,0.217-0.466,0.186c-0.128-0.019-0.213-0.116-0.252-0.285
				c-0.026-0.111-0.017-0.224-0.017-0.336c0-3.937,0-7.874,0-11.81c0-0.058-0.004-0.116-0.011-0.174
				c-0.054-0.416-0.264-0.739-0.595-0.987c-0.375-0.28-0.796-0.392-1.26-0.312c-0.421,0.072-0.768,0.281-1.043,0.606
				c-0.188,0.222-0.298,0.482-0.316,0.772c-0.013,0.212-0.01,0.425-0.023,0.638c-0.015,0.239-0.011,0.48-0.02,0.72
				c-0.013,0.329-0.019,0.658-0.03,0.987c-0.016,0.484-0.035,0.967-0.044,1.451c-0.008,0.399-0.026,0.797-0.044,1.195
				c-0.017,0.379-0.03,0.758-0.048,1.137c-0.015,0.325-0.001,0.65-0.022,0.976c-0.021,0.332-0.002,0.666-0.023,0.999
				c-0.021,0.332-0.002,0.666-0.023,0.999c-0.021,0.324-0.002,0.65-0.023,0.975c-0.021,0.332-0.015,0.666-0.021,0.999
				c-0.01,0.546-0.04,1.092-0.032,1.638c0.001,0.101-0.004,0.202-0.023,0.301c-0.074,0.389-0.424,0.53-0.74,0.408
				c-0.235-0.09-0.34-0.283-0.351-0.528c-0.008-0.17-0.014-0.34-0.019-0.51c-0.015-0.457-0.032-0.913-0.048-1.369
				c-0.015-0.441-0.03-0.882-0.046-1.323c-0.016-0.46-0.025-0.921-0.049-1.381c-0.011-0.213-0.011-0.426-0.02-0.638
				c-0.019-0.452-0.032-0.905-0.048-1.358c-0.016-0.441-0.033-0.882-0.045-1.323c-0.009-0.337-0.026-0.673-0.032-1.01
				c-0.007-0.402-0.029-0.805-0.043-1.207c-0.005-0.155-0.006-0.309-0.02-0.464c-0.026-0.291-0.109-0.562-0.256-0.813
				c-0.13-0.222-0.308-0.396-0.539-0.514c-0.241-0.124-0.498-0.165-0.766-0.151c-0.237,0.012-0.458,0.076-0.66,0.2
				c-0.334,0.205-0.536,0.508-0.644,0.878c-0.068,0.236-0.086,0.477-0.074,0.723c0.019,0.375,0.002,0.751,0.024,1.127
				c0.021,0.348,0.002,0.697,0.022,1.045c0.022,0.371,0.002,0.743,0.024,1.115c0.021,0.355,0.002,0.712,0.023,1.068
				c0.021,0.367,0.003,0.735,0.024,1.103c0.02,0.352,0.002,0.704,0.022,1.057c0.022,0.367,0.003,0.735,0.024,1.103
				c0.021,0.352,0.002,0.704,0.022,1.057c0.021,0.371,0.003,0.743,0.024,1.115c0.02,0.348,0.002,0.697,0.022,1.045
				c0.021,0.375,0.003,0.751,0.025,1.126c0.02,0.344,0.008,0.689,0.02,1.034c0.016,0.441,0.014,0.883,0.029,1.324
				c0.009,0.275,0.013,0.55,0.017,0.824c0.008,0.608,0.039,1.216,0.033,1.824c-0.003,0.256-0.15,0.454-0.392,0.531
				c-0.335,0.107-0.71-0.139-0.724-0.485c-0.008-0.182-0.019-0.363-0.024-0.545c-0.009-0.325-0.002-0.65-0.019-0.976
				c-0.021-0.398-0.005-0.797-0.026-1.196c-0.013-0.24-0.004-0.48-0.007-0.721C11.812,23.374,11.787,23.229,11.795,23.074z"/>
			<path d="M37.415,7.91c-0.028,0.17-0.165,0.256-0.281,0.355c-0.283,0.241-0.568,0.48-0.852,0.719
				c-0.041,0.035-0.084,0.069-0.128,0.1c-0.105,0.072-0.216,0.077-0.331,0.025c-0.115-0.052-0.149-0.153-0.152-0.267
				c-0.004-0.147-0.001-0.294-0.003-0.442c-0.001-0.126-0.013-0.138-0.143-0.138c-0.488-0.001-0.976-0.001-1.465,0
				c-0.122,0-0.131,0.009-0.131,0.134c-0.001,0.508-0.001,1.015,0,1.523c0,0.117,0.011,0.126,0.126,0.128
				c0.147,0.002,0.295-0.003,0.442,0.004c0.17,0.007,0.266,0.096,0.298,0.256c0.018,0.088-0.01,0.161-0.063,0.227
				c-0.104,0.13-0.21,0.258-0.317,0.386c-0.18,0.218-0.362,0.435-0.542,0.652c-0.052,0.063-0.104,0.126-0.17,0.174
				c-0.148,0.107-0.362,0.084-0.497-0.061c-0.101-0.107-0.191-0.223-0.286-0.336c-0.197-0.234-0.395-0.467-0.591-0.702
				c-0.035-0.041-0.07-0.084-0.096-0.131c-0.12-0.218,0-0.445,0.247-0.465c0.108-0.009,0.217-0.004,0.325-0.004
				c0.192-0.001,0.193,0,0.193-0.19c0-0.469,0-0.938,0-1.406c0-0.023,0-0.047,0-0.07c-0.004-0.106-0.013-0.118-0.124-0.118
				c-0.492-0.001-0.984-0.001-1.476,0c-0.108,0-0.119,0.013-0.121,0.121c-0.002,0.105-0.001,0.209,0,0.314
				c0.001,0.062-0.014,0.123-0.017,0.185c-0.009,0.173-0.249,0.306-0.417,0.182c-0.131-0.096-0.252-0.205-0.378-0.308
				c-0.255-0.208-0.506-0.421-0.76-0.63c-0.223-0.183-0.221-0.463,0.001-0.648c0.342-0.286,0.68-0.575,1.019-0.863
				c0.102-0.087,0.212-0.142,0.351-0.098c0.098,0.03,0.159,0.091,0.179,0.193c0.014,0.072,0.023,0.145,0.022,0.219
				c-0.001,0.101-0.002,0.202,0.001,0.302c0.003,0.08,0.017,0.092,0.098,0.098c0.019,0.001,0.039,0.001,0.058,0.001
				c0.469,0,0.938,0,1.406,0c0.023,0,0.046-0.001,0.07-0.001c0.056,0,0.087-0.027,0.087-0.085c0-0.027,0.001-0.054,0.001-0.081
				c0-0.477,0-0.953,0-1.43c0-0.027,0.001-0.054-0.001-0.081c-0.007-0.071-0.02-0.087-0.094-0.089
				c-0.104-0.004-0.209-0.003-0.314-0.001c-0.074,0.001-0.147-0.007-0.219-0.022c-0.192-0.042-0.276-0.246-0.16-0.404
				c0.096-0.131,0.203-0.254,0.307-0.379c0.215-0.26,0.43-0.519,0.646-0.777c0.15-0.181,0.424-0.196,0.585-0.023
				c0.153,0.164,0.294,0.34,0.439,0.511c0.16,0.189,0.319,0.379,0.48,0.567c0.066,0.077,0.106,0.16,0.099,0.264
				c-0.01,0.135-0.076,0.213-0.209,0.243c-0.134,0.03-0.27,0.02-0.405,0.021c-0.235,0.001-0.222-0.014-0.222,0.22
				c0,0.453,0,0.907,0,1.36c0,0.031-0.001,0.062,0.001,0.093c0.006,0.078,0.018,0.09,0.1,0.095c0.019,0.001,0.039,0.001,0.058,0.001
				c0.473,0,0.945,0,1.418,0c0.023,0,0.047,0.001,0.07-0.001c0.073-0.006,0.088-0.018,0.091-0.092
				c0.004-0.112,0.001-0.225,0.002-0.337c0.001-0.046,0.001-0.094,0.011-0.139c0.045-0.205,0.275-0.298,0.443-0.171
				c0.185,0.14,0.36,0.293,0.539,0.441c0.17,0.141,0.337,0.286,0.51,0.422c0.116,0.091,0.213,0.19,0.241,0.341
				C37.415,7.833,37.415,7.872,37.415,7.91z"/>
		</g>
	</g>
</g>
<g id="Livello_2">
</g>
</svg>
