<?xml version="1.0" encoding="utf-8"?>
<!-- Generator: Adobe Illustrator 17.0.0, SVG Export Plug-In . SVG Version: 6.00 Build 0)  -->
<!DOCTYPE svg PUBLIC "-//W3C//DTD SVG 1.1//EN" "http://www.w3.org/Graphics/SVG/1.1/DTD/svg11.dtd">
<svg version="1.1" xmlns="http://www.w3.org/2000/svg" xmlns:xlink="http://www.w3.org/1999/xlink" x="0px" y="0px" width="40px"
	 height="40px" viewBox="0 0 40 40" enable-background="new 0 0 40 40" xml:space="preserve">
<g id="Livello_1">
</g>
<g id="Livello_2">
	<g>
		<g>
			<path fill="#1A171B" d="M14.136,13.719c-0.042-0.347-0.099-0.821-0.208-1.273c-0.342-1.43-1.091-2.715-2.225-3.82
				c-0.149-0.145-0.297-0.216-0.452-0.216c-0.04,0-0.082,0.005-0.124,0.014c-0.194,0.042-0.315,0.147-0.369,0.32
				c-0.039,0.126-0.052,0.282,0.154,0.488c1.941,1.948,2.611,4.251,1.993,6.847c-0.299,1.254-0.975,2.394-2.011,3.387
				c-0.157,0.151-0.196,0.304-0.127,0.496c0.061,0.17,0.248,0.295,0.455,0.305c0.175,0.008,0.325-0.06,0.491-0.225
				c1.636-1.623,2.419-3.533,2.463-6.008C14.164,13.947,14.151,13.84,14.136,13.719z"/>
			<path fill="#1A171B" d="M8.555,11.15c-0.063-0.051-0.139-0.095-0.219-0.129c-0.08-0.034-0.155-0.051-0.225-0.051
				c-0.004,0-0.007,0.001-0.01,0.001V5.968c0-1.043-0.849-1.892-1.892-1.892H4.463c-1.043,0-1.892,0.849-1.892,1.892v16.914
				c0,1.043,0.849,1.892,1.892,1.892h1.746c1.043,0,1.892-0.849,1.892-1.892v-5.228c0.009,0,0.018,0.001,0.027,0.001
				c0.178,0,0.358-0.066,0.48-0.176c0.96-0.866,1.438-1.888,1.464-3.126C10.083,13.177,9.473,11.889,8.555,11.15z M7.082,22.882
				c0,0.482-0.391,0.873-0.873,0.873H4.463c-0.482,0-0.873-0.391-0.873-0.873V5.968c0-0.482,0.391-0.873,0.873-0.873h1.746
				c0.482,0,0.873,0.391,0.873,0.873V22.882z M8.101,16.614v-4.48c0.02,0.024,0.04,0.048,0.06,0.072
				c0.108,0.127,0.22,0.257,0.321,0.401C9.262,13.723,9.28,15.568,8.101,16.614z"/>
		</g>
		<path fill="#1A171B" d="M23.409,13.997c-0.013-0.304-0.03-0.72-0.071-1.123c-0.065-0.641-0.141-1.17-0.24-1.662
			c-0.391-1.947-1.151-3.834-2.257-5.608c-0.674-1.08-1.436-2.05-2.265-2.884c-0.122-0.122-0.29-0.192-0.462-0.192
			c-0.143,0-0.274,0.049-0.37,0.137c-0.082,0.075-0.13,0.185-0.132,0.299c-0.003,0.148,0.067,0.295,0.201,0.428
			c0.498,0.492,0.908,0.95,1.252,1.4c2.644,3.449,3.715,7.373,3.183,11.661c-0.157,1.266-0.493,2.499-0.993,3.693v2.222
			c0.406-0.709,0.776-1.435,1.072-2.196c0.757-1.945,1.105-3.814,1.096-5.882C23.418,14.208,23.413,14.108,23.409,13.997z"/>
		<path fill="#1A171B" d="M18.588,16.144c0.068-0.455,0.118-0.914,0.129-1.38c-0.007-1.272-0.091-2.145-0.292-3.014
			c-0.535-2.313-1.645-4.31-3.299-5.935c-0.06-0.059-0.129-0.126-0.199-0.173c-0.088-0.06-0.192-0.092-0.299-0.092
			c-0.161,0-0.31,0.07-0.406,0.191c-0.209,0.262-0.027,0.517,0.1,0.647c0.26,0.265,0.561,0.577,0.828,0.918
			c2.215,2.82,2.979,5.985,2.27,9.407c-0.429,2.069-1.479,3.954-3.124,5.604c-0.199,0.199-0.189,0.351-0.153,0.474
			c0.032,0.111,0.107,0.267,0.38,0.327c0.208,0.046,0.376-0.022,0.591-0.242c1.057-1.075,1.882-2.258,2.48-3.511v-3.222H18.588z"/>
		<g>
			<path fill="#1A171B" d="M37.415,25.318c-0.013-0.304-0.031-0.72-0.071-1.123c-0.065-0.641-0.141-1.17-0.24-1.663
				c-0.391-1.947-1.151-3.834-2.257-5.607c-0.674-1.08-1.436-2.05-2.265-2.884c-0.122-0.122-0.29-0.193-0.462-0.193
				c-0.143,0-0.274,0.049-0.37,0.137c-0.082,0.075-0.13,0.185-0.132,0.3c-0.003,0.147,0.067,0.295,0.201,0.428
				c0.498,0.492,0.908,0.95,1.252,1.399c2.644,3.449,3.715,7.373,3.183,11.661c-0.307,2.47-1.271,4.818-2.867,6.98
				c-0.353,0.478-0.749,0.929-1.131,1.366c-0.169,0.193-0.344,0.392-0.512,0.59c-0.159,0.187-0.177,0.392-0.051,0.562
				c0.143,0.192,0.381,0.255,0.582,0.149c0.174-0.092,0.315-0.192,0.418-0.299c1.607-1.657,2.831-3.55,3.64-5.629
				c0.757-1.945,1.105-3.814,1.096-5.882C37.424,25.529,37.42,25.43,37.415,25.318z"/>
			<path fill="#1A171B" d="M32.431,23.072c-0.535-2.313-1.645-4.31-3.298-5.935c-0.06-0.059-0.13-0.126-0.199-0.173
				c-0.088-0.06-0.192-0.092-0.299-0.092c-0.161,0-0.31,0.07-0.406,0.191c-0.208,0.261-0.027,0.518,0.1,0.647
				c0.261,0.266,0.561,0.577,0.828,0.918c2.215,2.82,2.979,5.985,2.27,9.407c-0.429,2.069-1.479,3.955-3.124,5.604
				c-0.198,0.199-0.188,0.351-0.153,0.474c0.033,0.111,0.107,0.266,0.38,0.327c0.208,0.046,0.376-0.022,0.591-0.241
				c2.283-2.322,3.528-5.127,3.602-8.112C32.717,24.814,32.633,23.941,32.431,23.072z"/>
			<path fill="#1A171B" d="M28.143,25.041c-0.042-0.347-0.099-0.821-0.208-1.273c-0.342-1.43-1.091-2.715-2.225-3.82
				c-0.149-0.145-0.297-0.216-0.452-0.216c-0.04,0-0.082,0.005-0.124,0.014c-0.194,0.042-0.315,0.147-0.369,0.32
				c-0.039,0.126-0.052,0.282,0.154,0.488c1.941,1.947,2.611,4.251,1.993,6.847c-0.299,1.254-0.975,2.393-2.011,3.387
				c-0.157,0.151-0.196,0.304-0.127,0.496c0.061,0.17,0.248,0.295,0.455,0.305c0.175,0.008,0.325-0.06,0.491-0.225
				c1.636-1.623,2.419-3.533,2.463-6.008C28.17,25.268,28.157,25.162,28.143,25.041z"/>
			<path fill="#1A171B" d="M22.561,22.472c-0.063-0.051-0.139-0.095-0.219-0.129c-0.08-0.034-0.155-0.051-0.224-0.051
				c-0.004,0-0.007,0.001-0.011,0.001v-5.003c0-1.043-0.849-1.892-1.892-1.892H18.47c-1.043,0-1.892,0.849-1.892,1.892v16.914
				c0,1.043,0.849,1.892,1.892,1.892h1.746c1.043,0,1.892-0.849,1.892-1.892v-5.228c0.009,0,0.018,0.001,0.027,0.001
				c0.178,0,0.358-0.066,0.48-0.176c0.96-0.866,1.438-1.888,1.463-3.126C24.089,24.499,23.479,23.21,22.561,22.472z M21.089,34.203
				c0,0.482-0.391,0.873-0.873,0.873H18.47c-0.482,0-0.873-0.391-0.873-0.873V17.289c0-0.482,0.391-0.873,0.873-0.873h1.746
				c0.482,0,0.873,0.391,0.873,0.873V34.203z M22.107,27.936v-4.48c0.02,0.024,0.04,0.048,0.06,0.072
				c0.108,0.127,0.22,0.257,0.321,0.401C23.269,25.045,23.287,26.889,22.107,27.936z"/>
		</g>
	</g>
</g>
</svg>
