<?xml version="1.0" encoding="utf-8"?>
<!-- Generator: Adobe Illustrator 17.0.0, SVG Export Plug-In . SVG Version: 6.00 Build 0)  -->
<!DOCTYPE svg PUBLIC "-//W3C//DTD SVG 1.1//EN" "http://www.w3.org/Graphics/SVG/1.1/DTD/svg11.dtd">
<svg version="1.1" xmlns="http://www.w3.org/2000/svg" xmlns:xlink="http://www.w3.org/1999/xlink" x="0px" y="0px" width="40px"
	 height="40px" viewBox="0 0 40 40" enable-background="new 0 0 40 40" xml:space="preserve">
<g id="Livello_1">
	<g>
		<path fill="#1A171B" d="M6.079,35.481c-0.121,0-0.238-0.046-0.328-0.13c-0.1-0.094-0.154-0.226-0.15-0.362l0.338-11.84
			c0.004-0.122,0.054-0.238,0.141-0.324L26.152,2.75c0.178-0.18,0.498-0.18,0.676,0l10.826,10.826c0.188,0.187,0.188,0.49,0,0.677
			L17.581,34.327c-0.079,0.079-0.184,0.129-0.295,0.139L6.122,35.479C6.108,35.48,6.094,35.481,6.079,35.481z M6.89,23.367
			l-0.317,11.11l10.455-0.949L36.64,13.915L26.49,3.766L6.89,23.367z"/>
	</g>
	<g>
		<path fill="#1A171B" d="M32.029,19.466c-0.119,0-0.239-0.045-0.33-0.137L21.152,8.781c-0.183-0.182-0.183-0.478,0-0.66
			c0.182-0.183,0.479-0.183,0.66,0l10.547,10.548c0.183,0.182,0.183,0.478,0,0.66C32.269,19.42,32.148,19.466,32.029,19.466z"/>
	</g>
</g>
<g id="Livello_2">
</g>
</svg>
