<?xml version="1.0" encoding="utf-8"?>
<!-- Generator: Adobe Illustrator 19.0.0, SVG Export Plug-In . SVG Version: 6.00 Build 0)  -->
<svg version="1.1" id="Livello_1" xmlns="http://www.w3.org/2000/svg" xmlns:xlink="http://www.w3.org/1999/xlink" x="0px" y="0px"
	 viewBox="0 0 40 40" enable-background="new 0 0 40 40" xml:space="preserve">
<g id="Livello_2_2_">
</g>
<g id="New_Symbol_232">
</g>
<path id="XMLID_1537_" d="M36.408,26.081c-0.093-0.008-0.186,0.015-0.271,0.051c-0.229,0.092-0.392,0.306-0.427,0.566l-0.147,7.75
	L20.998,19.865L35.559,5.291l0.144,7.947c0.009,0.378,0.32,0.682,0.702,0.682c0.002,0,0.005,0,0.008,0
	c0.091-0.003,0.178-0.022,0.259-0.058c0.08-0.035,0.153-0.085,0.216-0.147c0.134-0.134,0.205-0.313,0.201-0.503L36.92,3.816
	c-0.011-0.375-0.311-0.672-0.682-0.677l-9.431-0.171c-0.379-0.002-0.699,0.295-0.708,0.681c-0.003,0.277,0.158,0.53,0.411,0.646
	c0.086,0.038,0.177,0.058,0.269,0.06l7.279,0.131L19.847,18.71L5.644,4.491l7.578-0.137c0.379-0.009,0.683-0.325,0.678-0.709
	c-0.009-0.383-0.322-0.676-0.707-0.677l-9.43,0.171C3.39,3.144,3.09,3.441,3.08,3.818l-0.168,9.394
	c-0.004,0.19,0.067,0.369,0.202,0.503c0.128,0.128,0.297,0.2,0.48,0.205c0.399,0.028,0.695-0.301,0.705-0.683l0.138-7.647
	l14.259,14.275L4.432,34.143L4.299,26.76c-0.01-0.376-0.322-0.68-0.701-0.68c-0.003,0-0.006,0-0.009,0
	c-0.18,0.005-0.349,0.077-0.476,0.205c-0.134,0.135-0.206,0.313-0.202,0.502l0.168,9.395c0.009,0.376,0.31,0.673,0.682,0.678
	l9.43,0.172c0.005,0,0.011,0,0.017,0c0.373,0,0.682-0.301,0.691-0.681c0.005-0.381-0.299-0.697-0.679-0.706l-7.843-0.141
	L19.847,21.02L34.32,35.509l-7.541,0.136c-0.379,0.009-0.684,0.325-0.679,0.708c0.009,0.378,0.317,0.679,0.69,0.679
	c0.005,0,0.011,0,0.017,0l9.429-0.172c0.188-0.002,0.363-0.08,0.494-0.221c0.118-0.127,0.186-0.289,0.19-0.458l0.168-9.393
	c0.004-0.189-0.066-0.368-0.202-0.505C36.758,26.157,36.589,26.085,36.408,26.081z"/>
</svg>
