<?xml version="1.0" encoding="utf-8"?>
<!-- Generator: Adobe Illustrator 17.0.0, SVG Export Plug-In . SVG Version: 6.00 Build 0)  -->
<!DOCTYPE svg PUBLIC "-//W3C//DTD SVG 1.1//EN" "http://www.w3.org/Graphics/SVG/1.1/DTD/svg11.dtd">
<svg version="1.1" xmlns="http://www.w3.org/2000/svg" xmlns:xlink="http://www.w3.org/1999/xlink" x="0px" y="0px" width="40px"
	 height="40px" viewBox="0 0 40 40" enable-background="new 0 0 40 40" xml:space="preserve">
<g id="Livello_1">
	<g>
		<g>
			<g>
				<path fill="#1A171B" d="M33.019,36.154H4.81c-0.237,0-0.429-0.191-0.429-0.429V7.516c0-0.237,0.192-0.429,0.429-0.429h20.48
					c0.237,0,0.429,0.191,0.429,0.429c0,0.237-0.191,0.429-0.429,0.429H5.239v27.353H32.59V15.242c0-0.237,0.191-0.429,0.429-0.429
					c0.237,0,0.429,0.191,0.429,0.429v20.483C33.447,35.963,33.256,36.154,33.019,36.154z"/>
			</g>
		</g>
		<g>
			<g>
				<path fill="#1A171B" d="M37.571,16.239c-0.237,0-0.429-0.191-0.429-0.429V2.858H24.222c-0.237,0-0.429-0.191-0.429-0.429
					C23.793,2.191,23.984,2,24.222,2h13.35C37.809,2,38,2.191,38,2.429v13.382C38,16.048,37.809,16.239,37.571,16.239z"/>
			</g>
			<g>
				<path fill="#1A171B" d="M17.66,22.81c-0.11,0-0.219-0.042-0.303-0.125c-0.167-0.167-0.168-0.44,0-0.606L37.082,2.314
					c0.167-0.168,0.438-0.169,0.606-0.001c0.168,0.167,0.168,0.44,0.001,0.607L17.964,22.684C17.88,22.768,17.77,22.81,17.66,22.81z
					"/>
			</g>
		</g>
	</g>
</g>
<g id="Livello_2">
</g>
</svg>
