<?xml version="1.0" encoding="utf-8"?>
<!-- Generator: Adobe Illustrator 19.0.0, SVG Export Plug-In . SVG Version: 6.00 Build 0)  -->
<svg version="1.1" id="Livello_1" xmlns="http://www.w3.org/2000/svg" xmlns:xlink="http://www.w3.org/1999/xlink" x="0px" y="0px"
	 viewBox="0 0 40 40" enable-background="new 0 0 40 40" xml:space="preserve">
<g id="Livello_2_2_">
</g>
<g>
	<path fill="none" d="M19.016,22.848l0.008,0.015l0.994,1.794l0.725,1.309h1.918v-8.084h-1.679v1.459v0.892
		c0,1.223,0.036,2.314,0.144,3.382h-0.023c-0.372-0.912-0.84-1.919-1.319-2.771l-0.759-1.34l-0.919-1.623H15.97v8.084h1.679v-2.435
		c0-1.319-0.024-2.459-0.084-3.538h0.048C17.996,20.94,18.536,21.972,19.016,22.848z"/>
	<rect x="10.867" y="27.375" fill="none" width="18.266" height="5.333"/>
	<path fill="none" d="M14.059,22.26c0.492-0.443,0.744-1.115,0.744-1.919c0-0.791-0.336-1.463-0.864-1.858
		c-0.539-0.444-1.343-0.66-2.471-0.66c-1.115,0-1.906,0.072-2.47,0.168v7.976h1.811v-2.902c0.168,0.036,0.384,0.048,0.624,0.048
		C12.512,23.111,13.436,22.836,14.059,22.26z M10.809,21.66v-2.387c0.132-0.036,0.384-0.06,0.743-0.06
		c0.924,0,1.439,0.443,1.439,1.187c0,0.816-0.6,1.308-1.571,1.308C11.144,21.708,10.965,21.696,10.809,21.66z"/>
	<path fill="none" d="M29.133,13.21h-4.89c-0.306,0-0.554-0.248-0.554-0.554V6.993H10.867v8.99h18.266V13.21z"/>
	<path fill="none" d="M27.991,22.764h1.248v1.703c-0.145,0.059-0.48,0.107-0.888,0.107c-1.499,0-2.555-0.971-2.555-2.65
		c0-1.751,1.163-2.614,2.687-2.614c0.888,0,1.427,0.144,1.871,0.348l0.384-1.476c-0.396-0.18-1.199-0.384-2.243-0.384
		c-2.65,0-4.605,1.535-4.617,4.222c0,1.188,0.407,2.243,1.14,2.951c0.743,0.707,1.811,1.079,3.286,1.079
		c1.067,0,2.135-0.264,2.698-0.456v-4.258h-3.011V22.764z"/>
	<path fill="#1A171B" d="M12.991,20.4c0-0.743-0.516-1.187-1.439-1.187c-0.359,0-0.611,0.024-0.743,0.06v2.387
		c0.156,0.036,0.336,0.048,0.611,0.048C12.392,21.708,12.991,21.217,12.991,20.4z"/>
	<path fill="#1A171B" d="M30.918,15.983H30.24v-3.271c0-0.02-0.003-0.041-0.006-0.061c-0.001-0.13-0.042-0.257-0.131-0.359
		L24.66,6.075c-0.002-0.002-0.003-0.002-0.004-0.004c-0.033-0.036-0.07-0.066-0.11-0.092c-0.012-0.008-0.024-0.015-0.036-0.022
		c-0.035-0.019-0.071-0.035-0.109-0.046c-0.01-0.003-0.019-0.007-0.03-0.01c-0.041-0.01-0.084-0.016-0.127-0.016H10.867
		c-0.611,0-1.107,0.497-1.107,1.107v8.99H9.082c-0.874,0-1.582,0.708-1.582,1.582v8.228c0,0.873,0.708,1.582,1.582,1.582H9.76v5.632
		c0,0.61,0.496,1.107,1.107,1.107h18.266c0.61,0,1.107-0.497,1.107-1.107v-5.632h0.678c0.874,0,1.582-0.708,1.582-1.582v-8.228
		C32.5,16.691,31.791,15.983,30.918,15.983z M10.867,6.993H23.69v5.664c0,0.306,0.248,0.554,0.554,0.554h4.89v2.773H10.867V6.993z
		 M17.648,23.531v2.435H15.97v-8.084h2.135l0.919,1.623l0.759,1.34c0.479,0.852,0.947,1.858,1.319,2.771h0.023
		c-0.107-1.067-0.144-2.159-0.144-3.382v-0.892v-1.459h1.679v8.084h-1.918l-0.725-1.309l-0.994-1.794l-0.008-0.015
		c-0.479-0.876-1.02-1.907-1.403-2.855h-0.048C17.624,21.072,17.648,22.212,17.648,23.531z M10.809,23.063v2.902H8.998V17.99
		c0.563-0.096,1.354-0.168,2.47-0.168c1.128,0,1.932,0.216,2.471,0.66c0.528,0.395,0.864,1.067,0.864,1.858
		c0,0.804-0.252,1.476-0.744,1.919c-0.623,0.576-1.547,0.852-2.626,0.852C11.192,23.111,10.977,23.1,10.809,23.063z M29.133,32.708
		H10.867v-5.333h18.266V32.708z M31.002,25.594c-0.564,0.192-1.631,0.456-2.698,0.456c-1.476,0-2.543-0.372-3.286-1.079
		c-0.732-0.708-1.14-1.764-1.14-2.951c0.012-2.687,1.967-4.222,4.617-4.222c1.044,0,1.847,0.204,2.243,0.384l-0.384,1.476
		c-0.444-0.204-0.983-0.348-1.871-0.348c-1.523,0-2.687,0.863-2.687,2.614c0,1.68,1.056,2.65,2.555,2.65
		c0.407,0,0.743-0.048,0.888-0.107v-1.703h-1.248v-1.428h3.011V25.594z"/>
</g>
</svg>
