<?xml version="1.0" encoding="utf-8"?>
<!-- Generator: Adobe Illustrator 17.0.0, SVG Export Plug-In . SVG Version: 6.00 Build 0)  -->
<!DOCTYPE svg PUBLIC "-//W3C//DTD SVG 1.1//EN" "http://www.w3.org/Graphics/SVG/1.1/DTD/svg11.dtd">
<svg version="1.1" xmlns="http://www.w3.org/2000/svg" xmlns:xlink="http://www.w3.org/1999/xlink" x="0px" y="0px" width="40px"
	 height="40px" viewBox="0 0 40 40" enable-background="new 0 0 40 40" xml:space="preserve">
<g id="Livello_1">
	<path fill="#1A171B" d="M32.008,5.426c-0.032-0.035-0.086-0.05-0.131-0.032L7.749,13.566c-0.047,0.016-0.081,0.059-0.084,0.108
		c-0.004,0.051,0.023,0.098,0.067,0.121l12.992,6.685v14.128c0,0.047,0.026,0.09,0.069,0.111c0.018,0.009,0.037,0.014,0.056,0.014
		c0.026,0,0.052-0.008,0.074-0.024l5.338-3.932c0.032-0.023,0.051-0.061,0.051-0.101V19.67l5.721-14.111
		C32.051,5.514,32.041,5.462,32.008,5.426z M25.37,19.391c-0.006,0.015-0.009,0.03-0.009,0.047l-0.027,10.809l-3.632,2.676V19.961
		c0-0.047-0.026-0.09-0.068-0.111L9.968,13.847l20.459-6.93L25.37,19.391z"/>
</g>
<g id="Livello_2">
</g>
</svg>
