<?xml version="1.0" encoding="utf-8"?>
<!-- Generator: Adobe Illustrator 17.0.0, SVG Export Plug-In . SVG Version: 6.00 Build 0)  -->
<!DOCTYPE svg PUBLIC "-//W3C//DTD SVG 1.1//EN" "http://www.w3.org/Graphics/SVG/1.1/DTD/svg11.dtd">
<svg version="1.1" xmlns="http://www.w3.org/2000/svg" xmlns:xlink="http://www.w3.org/1999/xlink" x="0px" y="0px" width="40px"
	 height="40px" viewBox="0 0 40 40" enable-background="new 0 0 40 40" xml:space="preserve">
<g id="Livello_1">
	<g>
		<g>
			<g>
				<g>
					<path fill="#1A171B" d="M20,39.479c-10.741,0-19.479-8.738-19.479-19.479C0.521,9.259,9.259,0.522,20,0.522
						c10.74,0,19.479,8.737,19.479,19.478C39.479,30.74,30.74,39.479,20,39.479z M20,1.522c-10.189,0-18.479,8.289-18.479,18.478
						c0,10.19,8.29,18.479,18.479,18.479c10.19,0,18.479-8.29,18.479-18.479C38.479,9.811,30.19,1.522,20,1.522z"/>
				</g>
			</g>
			<g>
				<g>
					<g>
						<path fill="#1A171B" d="M20.012,35.683c-6.857,0-13.037-4.568-15.027-11.109l0.957-0.291c1.863,6.124,7.649,10.4,14.07,10.4
							c6.509,0,12.153-4.18,14.046-10.4l0.957,0.291C32.992,31.218,26.963,35.683,20.012,35.683z"/>
					</g>
				</g>
			</g>
			<g>
				<g>
					<path fill="#1A171B" d="M35.184,20.499h-1.781c-0.276,0-0.5-0.224-0.5-0.5s0.224-0.5,0.5-0.5h1.272
						C34.41,11.633,27.929,5.315,20,5.315c-7.929,0-14.41,6.317-14.675,14.184H6.76c0.276,0,0.5,0.224,0.5,0.5s-0.224,0.5-0.5,0.5
						H4.816c-0.276,0-0.5-0.224-0.5-0.5c0-8.648,7.036-15.684,15.684-15.684c8.648,0,15.684,7.035,15.684,15.684
						C35.684,20.275,35.46,20.499,35.184,20.499z"/>
				</g>
			</g>
			<g>
				<path fill="#1A171B" d="M20,7.322c-0.276,0-0.5-0.224-0.5-0.5V4.815c0-0.276,0.224-0.5,0.5-0.5s0.5,0.224,0.5,0.5v2.007
					C20.5,7.099,20.276,7.322,20,7.322z"/>
			</g>
			<g>
				<path fill="#1A171B" d="M29.366,11.456c-0.128,0-0.256-0.049-0.354-0.146c-0.195-0.195-0.195-0.512,0-0.707l1.525-1.526
					c0.195-0.195,0.512-0.195,0.707,0c0.195,0.195,0.195,0.512,0,0.707L29.72,11.31C29.622,11.407,29.494,11.456,29.366,11.456z"/>
			</g>
			<g>
				<path fill="#1A171B" d="M10.959,11.456c-0.128,0-0.256-0.049-0.353-0.146L9.08,9.783c-0.195-0.195-0.195-0.512,0-0.707
					c0.195-0.195,0.512-0.195,0.707,0l1.525,1.526c0.195,0.195,0.195,0.512,0,0.707C11.215,11.407,11.087,11.456,10.959,11.456z"/>
			</g>
		</g>
		<g>
			<path fill="#1A171B" d="M20.002,32.717c-2.425,0-4.399-1.973-4.399-4.399l0.006-0.156l3.217-18.012
				c0.1-0.564,0.589-0.975,1.163-0.975c0.573,0,1.062,0.409,1.165,0.974c0.761,4.142,3.245,17.697,3.245,18.169
				C24.399,30.744,22.427,32.717,20.002,32.717z M16.602,28.293c0.036,1.933,1.547,3.424,3.4,3.424c1.873,0,3.397-1.524,3.397-3.399
				c-0.042-0.531-1.954-11.053-3.229-17.989c-0.032-0.179-0.328-0.178-0.36-0.003L16.602,28.293z"/>
		</g>
	</g>
</g>
<g id="Livello_2">
</g>
</svg>
