<?xml version="1.0" encoding="utf-8"?>
<!-- Generator: Adobe Illustrator 17.0.0, SVG Export Plug-In . SVG Version: 6.00 Build 0)  -->
<!DOCTYPE svg PUBLIC "-//W3C//DTD SVG 1.1//EN" "http://www.w3.org/Graphics/SVG/1.1/DTD/svg11.dtd">
<svg version="1.1" xmlns="http://www.w3.org/2000/svg" xmlns:xlink="http://www.w3.org/1999/xlink" x="0px" y="0px" width="40px"
	 height="40px" viewBox="0 0 40 40" enable-background="new 0 0 40 40" xml:space="preserve">
<g id="Livello_1">
	<g>
		<g>
			<path fill="#1A171B" d="M20,38.5C9.799,38.5,1.5,30.201,1.5,20C1.5,9.799,9.799,1.5,20,1.5c10.201,0,18.5,8.299,18.5,18.5
				C38.5,30.201,30.201,38.5,20,38.5z M20,2.5C10.351,2.5,2.5,10.351,2.5,20c0,9.649,7.851,17.5,17.5,17.5
				c9.649,0,17.5-7.851,17.5-17.5C37.5,10.351,29.649,2.5,20,2.5z"/>
		</g>
		<g>
			<path fill="#1A171B" d="M20.016,31.399c-3.851,0-7.36-1.957-9.389-5.235l0.851-0.525c1.845,2.981,5.037,4.761,8.538,4.761
				c3.478,0,6.658-1.761,8.508-4.711l0.848,0.531C27.337,29.463,23.84,31.399,20.016,31.399z"/>
		</g>
		<g>
			<g>
				<circle fill="#1A171B" cx="14.416" cy="13.582" r="1"/>
			</g>
			<g>
				<circle fill="#1A171B" cx="25.084" cy="13.582" r="1"/>
			</g>
		</g>
	</g>
</g>
<g id="Livello_2">
</g>
</svg>
