<?xml version="1.0" encoding="utf-8"?>
<!-- Generator: Adobe Illustrator 19.0.0, SVG Export Plug-In . SVG Version: 6.00 Build 0)  -->
<svg version="1.1" id="Livello_1" xmlns="http://www.w3.org/2000/svg" xmlns:xlink="http://www.w3.org/1999/xlink" x="0px" y="0px"
	 viewBox="0 0 40 40" enable-background="new 0 0 40 40" xml:space="preserve">
<g id="Livello_2_2_">
</g>
<g id="New_Symbol_232">
</g>
<g id="XMLID_1547_">
	<path id="XMLID_1550_" d="M20.001,2.683C10.452,2.683,2.684,10.451,2.684,20s7.769,17.317,17.317,17.317
		c9.548,0,17.315-7.769,17.315-17.317S29.549,2.683,20.001,2.683z M20.001,35.817c-8.722,0-15.817-7.096-15.817-15.817
		S11.279,4.183,20.001,4.183c8.721,0,15.815,7.096,15.815,15.817S28.722,35.817,20.001,35.817z"/>
	<path id="XMLID_1551_" d="M26.472,23.655l-0.568-0.356c-0.085-0.054-0.188-0.072-0.283-0.048c-0.097,0.022-0.181,0.082-0.233,0.166
		c-1.168,1.865-3.177,2.979-5.374,2.979c-2.212,0-4.228-1.125-5.394-3.01c-0.109-0.176-0.343-0.23-0.516-0.122l-0.572,0.353
		c-0.085,0.053-0.146,0.136-0.169,0.233c-0.022,0.097-0.006,0.199,0.047,0.283c1.429,2.305,3.897,3.681,6.604,3.681
		c2.688,0,5.146-1.361,6.577-3.642c0.053-0.084,0.07-0.186,0.048-0.283C26.616,23.792,26.556,23.708,26.472,23.655z"/>
	<circle id="XMLID_1552_" cx="15.265" cy="15.516" r="1.044"/>
	<circle id="XMLID_1553_" cx="24.403" cy="15.516" r="1.044"/>
</g>
</svg>
