<?xml version="1.0" encoding="utf-8"?>
<!-- Generator: Adobe Illustrator 17.0.0, SVG Export Plug-In . SVG Version: 6.00 Build 0)  -->
<!DOCTYPE svg PUBLIC "-//W3C//DTD SVG 1.1//EN" "http://www.w3.org/Graphics/SVG/1.1/DTD/svg11.dtd">
<svg version="1.1" xmlns="http://www.w3.org/2000/svg" xmlns:xlink="http://www.w3.org/1999/xlink" x="0px" y="0px" width="40px"
	 height="40px" viewBox="0 0 40 40" enable-background="new 0 0 40 40" xml:space="preserve">
<g id="Livello_1">
	<g>
		<g>
			<g>
				<g>
					<path fill="#1A171B" d="M20.001,39.662C9.159,39.662,0.338,30.842,0.338,20S9.159,0.338,20.001,0.338
						c10.841,0,19.661,8.82,19.661,19.662S30.842,39.662,20.001,39.662z M20.001,1.338C9.71,1.338,1.338,9.71,1.338,20
						c0,10.29,8.372,18.662,18.663,18.662c10.29,0,18.661-8.372,18.661-18.662C38.662,9.71,30.291,1.338,20.001,1.338z"/>
				</g>
			</g>
			<g>
				<path fill="#1A171B" d="M20,28.25c-4.549,0-8.25-3.701-8.25-8.25c0-4.549,3.701-8.25,8.25-8.25c4.549,0,8.25,3.701,8.25,8.25
					C28.25,24.549,24.549,28.25,20,28.25z M20,12.75c-3.998,0-7.25,3.252-7.25,7.25c0,3.998,3.252,7.25,7.25,7.25
					c3.998,0,7.25-3.252,7.25-7.25C27.25,16.002,23.998,12.75,20,12.75z"/>
			</g>
		</g>
		<g>
			<g>
				<path fill="#1A171B" d="M38.96,22.515H27.417c-0.276,0-0.5-0.224-0.5-0.5c0-0.276,0.224-0.5,0.5-0.5H38.96
					c0.276,0,0.5,0.224,0.5,0.5C39.46,22.291,39.236,22.515,38.96,22.515z"/>
			</g>
			<g>
				<path fill="#1A171B" d="M38.96,18.485H27.75c-0.276,0-0.5-0.224-0.5-0.5c0-0.276,0.224-0.5,0.5-0.5h11.21
					c0.276,0,0.5,0.224,0.5,0.5C39.46,18.262,39.236,18.485,38.96,18.485z"/>
			</g>
			<g>
				<path fill="#1A171B" d="M12.25,18.485H1.04c-0.276,0-0.5-0.224-0.5-0.5c0-0.276,0.224-0.5,0.5-0.5h11.21
					c0.276,0,0.5,0.224,0.5,0.5C12.75,18.262,12.526,18.485,12.25,18.485z"/>
			</g>
			<g>
				<path fill="#1A171B" d="M12.449,22.515H1.04c-0.276,0-0.5-0.224-0.5-0.5c0-0.276,0.224-0.5,0.5-0.5h11.409
					c0.276,0,0.5,0.224,0.5,0.5C12.949,22.291,12.726,22.515,12.449,22.515z"/>
			</g>
		</g>
		<g>
			<g>
				<path fill="#1A171B" d="M22.015,12.91c-0.276,0-0.5-0.224-0.5-0.5V1.04c0-0.276,0.224-0.5,0.5-0.5c0.276,0,0.5,0.224,0.5,0.5
					v11.37C22.515,12.686,22.291,12.91,22.015,12.91z"/>
			</g>
			<g>
				<path fill="#1A171B" d="M17.985,12.75c-0.276,0-0.5-0.224-0.5-0.5V1.04c0-0.276,0.224-0.5,0.5-0.5c0.276,0,0.5,0.224,0.5,0.5
					v11.21C18.485,12.526,18.262,12.75,17.985,12.75z"/>
			</g>
			<g>
				<path fill="#1A171B" d="M17.985,39.46c-0.276,0-0.5-0.224-0.5-0.5V27.75c0-0.276,0.224-0.5,0.5-0.5c0.276,0,0.5,0.224,0.5,0.5
					v11.21C18.485,39.236,18.262,39.46,17.985,39.46z"/>
			</g>
			<g>
				<path fill="#1A171B" d="M22.015,39.46c-0.276,0-0.5-0.224-0.5-0.5V27.551c0-0.276,0.224-0.5,0.5-0.5c0.276,0,0.5,0.224,0.5,0.5
					V38.96C22.515,39.236,22.291,39.46,22.015,39.46z"/>
			</g>
		</g>
	</g>
</g>
<g id="Livello_2">
</g>
</svg>
