<?xml version="1.0" encoding="utf-8"?>
<!-- Generator: Adobe Illustrator 17.0.0, SVG Export Plug-In . SVG Version: 6.00 Build 0)  -->
<!DOCTYPE svg PUBLIC "-//W3C//DTD SVG 1.1//EN" "http://www.w3.org/Graphics/SVG/1.1/DTD/svg11.dtd">
<svg version="1.1" xmlns="http://www.w3.org/2000/svg" xmlns:xlink="http://www.w3.org/1999/xlink" x="0px" y="0px" width="40px"
	 height="40px" viewBox="0 0 40 40" enable-background="new 0 0 40 40" xml:space="preserve">
<g id="Livello_1">
	<g>
		<g>
			<path fill="#1A171B" d="M34.234,39.917H5.758c-1.131,0-2.051-0.919-2.051-2.049V2.136c0-1.132,0.92-2.053,2.051-2.053h28.477
				c0.96,0,1.768,0.662,1.993,1.553h0.062l0.004,0.5v35.732C36.293,38.998,35.369,39.917,34.234,39.917z M5.758,1.083
				c-0.58,0-1.051,0.473-1.051,1.053v35.732c0,0.578,0.471,1.049,1.051,1.049h28.477c0.584,0,1.059-0.471,1.059-1.049L35.289,2.136
				c0-0.58-0.473-1.053-1.055-1.053H5.758z"/>
		</g>
		<g>
			<g>
				<g>
					<path fill="#1A171B" d="M17.662,15.291H6.414c-0.276,0-0.5-0.224-0.5-0.5c0-0.276,0.224-0.5,0.5-0.5h11.248
						c0.276,0,0.5,0.224,0.5,0.5C18.162,15.067,17.938,15.291,17.662,15.291z"/>
				</g>
				<g>
					<path fill="#1A171B" d="M17.662,17.897H6.414c-0.276,0-0.5-0.224-0.5-0.5c0-0.276,0.224-0.5,0.5-0.5h11.248
						c0.276,0,0.5,0.224,0.5,0.5C18.162,17.673,17.938,17.897,17.662,17.897z"/>
				</g>
				<g>
					<path fill="#1A171B" d="M17.662,23.105H6.414c-0.276,0-0.5-0.224-0.5-0.5c0-0.276,0.224-0.5,0.5-0.5h11.248
						c0.276,0,0.5,0.224,0.5,0.5C18.162,22.882,17.938,23.105,17.662,23.105z"/>
				</g>
				<g>
					<path fill="#1A171B" d="M17.662,20.5H6.414c-0.276,0-0.5-0.224-0.5-0.5c0-0.276,0.224-0.5,0.5-0.5h11.248
						c0.276,0,0.5,0.224,0.5,0.5C18.162,20.276,17.938,20.5,17.662,20.5z"/>
				</g>
				<g>
					<path fill="#1A171B" d="M17.662,25.709H6.414c-0.276,0-0.5-0.224-0.5-0.5c0-0.276,0.224-0.5,0.5-0.5h11.248
						c0.276,0,0.5,0.224,0.5,0.5C18.162,25.485,17.938,25.709,17.662,25.709z"/>
				</g>
			</g>
			<g>
				<g>
					<g>
						<g>
							<path fill="#1A171B" d="M26.684,27.401c-4.082,0-7.402-3.32-7.402-7.402c0-4.081,3.32-7.4,7.402-7.4s7.402,3.319,7.402,7.4
								C34.086,24.081,30.766,27.401,26.684,27.401z M26.684,13.599c-3.53,0-6.402,2.871-6.402,6.4c0,3.53,2.872,6.402,6.402,6.402
								s6.402-2.872,6.402-6.402C33.086,16.47,30.214,13.599,26.684,13.599z"/>
						</g>
					</g>
					<g>
						<g>
							<g>
								<path fill="#1A171B" d="M26.688,26.021c-2.632,0-5.005-1.754-5.77-4.265l0.957-0.291c0.638,2.094,2.616,3.556,4.812,3.556
									c2.225,0,4.155-1.429,4.803-3.556l0.957,0.291C31.67,24.307,29.355,26.021,26.688,26.021z"/>
							</g>
						</g>
					</g>
					<g>
						<g>
							<path fill="#1A171B" d="M32.205,20.499h-0.649c-0.276,0-0.5-0.224-0.5-0.5s0.224-0.5,0.5-0.5h0.124
								c-0.252-2.535-2.396-4.521-4.997-4.521s-4.745,1.986-4.997,4.521h0.181c0.276,0,0.5,0.224,0.5,0.5s-0.224,0.5-0.5,0.5h-0.705
								c-0.276,0-0.5-0.224-0.5-0.5c0-3.32,2.701-6.021,6.021-6.021s6.022,2.701,6.022,6.021
								C32.705,20.275,32.481,20.499,32.205,20.499z"/>
						</g>
					</g>
					<g>
						<path fill="#1A171B" d="M26.684,15.708c-0.276,0-0.5-0.224-0.5-0.5v-0.73c0-0.276,0.224-0.5,0.5-0.5s0.5,0.224,0.5,0.5v0.73
							C27.184,15.484,26.96,15.708,26.684,15.708z"/>
					</g>
					<g>
						<path fill="#1A171B" d="M30.09,17.21c-0.128,0-0.257-0.049-0.354-0.147c-0.194-0.195-0.194-0.512,0.002-0.707l0.555-0.553
							c0.195-0.193,0.512-0.195,0.707,0.002c0.194,0.195,0.194,0.512-0.002,0.707l-0.555,0.553
							C30.345,17.161,30.218,17.21,30.09,17.21z"/>
					</g>
					<g>
						<path fill="#1A171B" d="M23.395,17.21c-0.128,0-0.256-0.049-0.354-0.146l-0.553-0.553c-0.195-0.195-0.195-0.512,0-0.707
							c0.195-0.195,0.512-0.195,0.707,0l0.553,0.553c0.195,0.195,0.195,0.512,0,0.707C23.65,17.161,23.522,17.21,23.395,17.21z"/>
					</g>
				</g>
				<g>
					<path fill="#1A171B" d="M26.684,24.942c-1.057,0-1.916-0.86-1.916-1.918l-0.026-0.104l0.03-0.008l1.172-6.551
						c0.059-0.356,0.369-0.617,0.736-0.617c0.361,0,0.671,0.259,0.736,0.615c1.186,6.45,1.186,6.606,1.186,6.664
						C28.602,24.082,27.741,24.942,26.684,24.942z M25.768,23.023L25.768,23.023c0,0.507,0.411,0.919,0.916,0.919
						c0.506,0,0.918-0.412,0.918-0.918c-0.024-0.193-0.498-2.816-0.919-5.117L25.768,23.023z"/>
				</g>
			</g>
		</g>
	</g>
</g>
<g id="Livello_2">
</g>
</svg>
