<?xml version="1.0" encoding="utf-8"?>
<!-- Generator: Adobe Illustrator 17.0.0, SVG Export Plug-In . SVG Version: 6.00 Build 0)  -->
<!DOCTYPE svg PUBLIC "-//W3C//DTD SVG 1.1//EN" "http://www.w3.org/Graphics/SVG/1.1/DTD/svg11.dtd">
<svg version="1.1" xmlns="http://www.w3.org/2000/svg" xmlns:xlink="http://www.w3.org/1999/xlink" x="0px" y="0px" width="40px"
	 height="40px" viewBox="0 0 40 40" enable-background="new 0 0 40 40" xml:space="preserve">
<g id="Livello_1">
</g>
<g id="Livello_2">
	<g>
		<path fill="#1A171B" d="M28.369,20.018c-1.985-6.528-7.827-13.495-8.124-13.847c-0.182-0.215-0.549-0.215-0.731,0
			c-0.297,0.352-6.14,7.318-8.126,13.847c-0.407,1.339-0.665,2.662-0.665,3.903c0,5.048,4.108,9.155,9.156,9.155
			c5.048,0,9.154-4.107,9.154-9.155C29.034,22.68,28.776,21.358,28.369,20.018z M19.88,32.12c-4.521,0-8.199-3.678-8.199-8.198
			c0-1.227,0.273-2.553,0.709-3.903c1.737-5.375,6.183-11.156,7.49-12.781c1.307,1.625,5.753,7.406,7.488,12.781
			c0.436,1.351,0.709,2.676,0.709,3.903C28.077,28.442,24.4,32.12,19.88,32.12z"/>
		<path fill="#1A171B" d="M14.748,20.018c-0.5,1.27-0.834,2.542-0.834,3.7c0,3.295,2.671,5.965,5.965,5.965
			c3.295,0,5.966-2.67,5.966-5.965c0-1.158-0.334-2.43-0.834-3.7H14.748z"/>
	</g>
</g>
</svg>
