<?xml version="1.0" encoding="utf-8"?>
<!-- Generator: Adobe Illustrator 17.0.0, SVG Export Plug-In . SVG Version: 6.00 Build 0)  -->
<!DOCTYPE svg PUBLIC "-//W3C//DTD SVG 1.1//EN" "http://www.w3.org/Graphics/SVG/1.1/DTD/svg11.dtd">
<svg version="1.1" xmlns="http://www.w3.org/2000/svg" xmlns:xlink="http://www.w3.org/1999/xlink" x="0px" y="0px" width="40px"
	 height="40px" viewBox="0 0 40 40" enable-background="new 0 0 40 40" xml:space="preserve">
<g id="Livello_1">
	<g id="New_Symbol_232">
	</g>
	<g>
		<path fill="#1A171B" d="M20.75,15.75c0.61,0,1.107-0.498,1.107-1.107v-1.11c0-0.605-0.497-1.107-1.107-1.107
			c-0.61,0-1.109,0.502-1.109,1.107v1.11C19.641,15.252,20.14,15.75,20.75,15.75L20.75,15.75z M20.75,15.75"/>
		<path fill="#1A171B" d="M18.536,20.181h1.105v6.278c0,0.609,0.499,1.107,1.109,1.107c0.61,0,1.107-0.499,1.107-1.107v-7.386
			c0-0.608-0.497-1.107-1.107-1.107h-2.214c-0.611,0-1.109,0.499-1.109,1.107C17.427,19.683,17.925,20.181,18.536,20.181
			L18.536,20.181z M18.536,20.181"/>
		<g>
			<path fill="#1A171B" d="M20,33.75c-7.582,0-13.75-6.168-13.75-13.749C6.25,12.419,12.418,6.25,20,6.25s13.75,6.169,13.75,13.751
				C33.75,27.582,27.582,33.75,20,33.75z M20,7.25c-7.03,0-12.75,5.72-12.75,12.751c0,7.03,5.72,12.749,12.75,12.749
				s12.75-5.719,12.75-12.749C32.75,12.97,27.03,7.25,20,7.25z"/>
		</g>
	</g>
</g>
<g id="Livello_2">
</g>
</svg>
