<?xml version="1.0" encoding="utf-8"?>
<!-- Generator: Adobe Illustrator 17.0.0, SVG Export Plug-In . SVG Version: 6.00 Build 0)  -->
<!DOCTYPE svg PUBLIC "-//W3C//DTD SVG 1.1//EN" "http://www.w3.org/Graphics/SVG/1.1/DTD/svg11.dtd">
<svg version="1.1" xmlns="http://www.w3.org/2000/svg" xmlns:xlink="http://www.w3.org/1999/xlink" x="0px" y="0px" width="40px"
	 height="40px" viewBox="0 0 40 40" enable-background="new 0 0 40 40" xml:space="preserve">
<g id="Livello_1">
	<g>
		<g>
			<g>
				<path fill="#1A171B" d="M20.108,15.754c0.61,0,1.107-0.499,1.107-1.107v-1.111c0-0.606-0.497-1.107-1.107-1.107
					s-1.109,0.502-1.109,1.107v1.111C18.999,15.256,19.498,15.754,20.108,15.754L20.108,15.754z M20.108,15.754"/>
			</g>
			<g>
				<path fill="#1A171B" d="M17.893,20.185h1.106v6.278c0,0.609,0.499,1.107,1.109,1.107s1.107-0.498,1.107-1.107v-7.386
					c0-0.609-0.497-1.107-1.107-1.107h-2.215c-0.61,0-1.109,0.498-1.109,1.107S17.283,20.185,17.893,20.185L17.893,20.185z
					 M17.893,20.185"/>
			</g>
		</g>
		<g>
			<path fill="#1A171B" d="M33.847,34.847H6.153c-0.552,0-1-0.447-1-1V6.153c0-0.553,0.448-1,1-1h27.693c0.553,0,1,0.447,1,1v27.693
				C34.847,34.399,34.399,34.847,33.847,34.847z M7.153,32.847h25.693V7.153H7.153V32.847z"/>
		</g>
	</g>
</g>
<g id="Livello_2">
</g>
</svg>
