<?xml version="1.0" encoding="utf-8"?>
<!-- Generator: Adobe Illustrator 17.0.0, SVG Export Plug-In . SVG Version: 6.00 Build 0)  -->
<!DOCTYPE svg PUBLIC "-//W3C//DTD SVG 1.1//EN" "http://www.w3.org/Graphics/SVG/1.1/DTD/svg11.dtd">
<svg version="1.1" xmlns="http://www.w3.org/2000/svg" xmlns:xlink="http://www.w3.org/1999/xlink" x="0px" y="0px" width="40px"
	 height="40px" viewBox="0 0 40 40" enable-background="new 0 0 40 40" xml:space="preserve">
<g id="Livello_1">
	<g>
		<g>
			<path fill="#1A171B" d="M22.082,30.558h-4.047c-0.682,0-1.236-0.555-1.236-1.237l-0.229-3.135
				c-2.553-1.307-4.186-3.958-4.186-6.837c0-4.232,3.443-7.676,7.676-7.676s7.676,3.443,7.676,7.676
				c0,2.878-1.634,5.529-4.186,6.837l-0.231,3.171C23.318,30.003,22.764,30.558,22.082,30.558z M20.059,12.673
				c-3.681,0-6.676,2.995-6.676,6.676c0,2.591,1.521,4.97,3.874,6.06l0.267,0.124l0.273,3.752c0.001,0.167,0.107,0.273,0.238,0.273
				h4.047c0.13,0,0.236-0.106,0.236-0.237l0.274-3.788l0.268-0.123c2.353-1.092,3.874-3.471,3.874-6.061
				C26.734,15.668,23.739,12.673,20.059,12.673z"/>
		</g>
		<g>
			<path fill="#1A171B" d="M22.193,33.894h-4.269c-0.681,0-1.235-0.555-1.235-1.236V31.48c0-0.682,0.554-1.235,1.235-1.235h4.269
				c0.682,0,1.236,0.554,1.236,1.235v1.178C23.43,33.339,22.875,33.894,22.193,33.894z M17.925,31.244
				c-0.13,0-0.235,0.105-0.235,0.235v1.178c0,0.13,0.105,0.236,0.235,0.236h4.269c0.13,0,0.236-0.106,0.236-0.236V31.48
				c0-0.13-0.107-0.235-0.236-0.235H17.925z"/>
		</g>
		<g>
			<rect x="19.559" y="4.106" fill="#1A171B" width="1" height="6.183"/>
		</g>
		<g>
			
				<rect x="28.643" y="8.621" transform="matrix(0.7071 0.7072 -0.7072 0.7071 16.8193 -17.1774)" fill="#1A171B" width="1" height="6.182"/>
		</g>
		<g>
			<rect x="29.485" y="19.653" fill="#1A171B" width="6.183" height="1"/>
		</g>
		<g>
			
				<rect x="7.769" y="11.212" transform="matrix(0.7071 0.7071 -0.7071 0.7071 11.4623 -4.2484)" fill="#1A171B" width="6.182" height="1"/>
		</g>
		<g>
			<rect x="4.332" y="19.653" fill="#1A171B" width="6.184" height="1"/>
		</g>
	</g>
</g>
<g id="Livello_2">
</g>
</svg>
