<?xml version="1.0" encoding="utf-8"?>
<!-- Generator: Adobe Illustrator 17.0.0, SVG Export Plug-In . SVG Version: 6.00 Build 0)  -->
<!DOCTYPE svg PUBLIC "-//W3C//DTD SVG 1.1//EN" "http://www.w3.org/Graphics/SVG/1.1/DTD/svg11.dtd">
<svg version="1.1" xmlns="http://www.w3.org/2000/svg" xmlns:xlink="http://www.w3.org/1999/xlink" x="0px" y="0px" width="40px"
	 height="40px" viewBox="0 0 40 40" enable-background="new 0 0 40 40" xml:space="preserve">
<g id="Livello_1">
	<g id="New_Symbol_232">
	</g>
	<path fill="#FFFFFF" d="M27.849,29.333l1.857,1.212c0.043,0.028,0.093,0.042,0.142,0.042c0.054,0,0.107-0.017,0.152-0.05
		c0.087-0.063,0.126-0.174,0.098-0.278l-0.473-1.747l-0.284,0.746L27.849,29.333z"/>
	<polygon fill="#FFFFFF" points="29.341,29.259 29.625,28.513 29.181,26.872 28.64,28.292 26.424,28.403 27.849,29.333 	"/>
	<path d="M38.518,29.001c-0.089-0.275-0.333-0.462-0.621-0.476l-4.653-0.233l-1.656-4.348c-0.099-0.266-0.352-0.437-0.646-0.437
		c-0.292,0-0.545,0.17-0.644,0.433l-0.814,2.136l-0.601-2.222l5.061-4.079c0.244-0.195,0.344-0.527,0.247-0.827
		c-0.098-0.299-0.374-0.509-0.684-0.522l-6.495-0.325l-2.313-6.073c-0.014-0.039-0.04-0.068-0.061-0.101l1.519-1.224
		c0.267-0.216,0.374-0.579,0.268-0.901c-0.105-0.325-0.405-0.556-0.746-0.572l-8.336-0.417l-2.97-7.794
		C14.255,0.703,13.95,0.5,13.597,0.5c-0.354,0-0.659,0.203-0.774,0.515L9.851,8.812L1.515,9.229C1.17,9.245,0.877,9.469,0.768,9.801
		c-0.105,0.326,0.003,0.689,0.27,0.902l6.497,5.235l-2.179,8.054c-0.091,0.33,0.035,0.688,0.312,0.889
		c0.271,0.196,0.652,0.209,0.941,0.024l6.986-4.562l5.481,3.579l-1.678,6.203c-0.086,0.304,0.029,0.633,0.284,0.816
		c0.251,0.183,0.603,0.192,0.862,0.023l5.443-3.555l1.586,1.036l-1.588,0.08c-0.283,0.014-0.532,0.205-0.619,0.474
		c-0.089,0.27,0,0.571,0.223,0.752l3.626,2.922L26,37.168c-0.075,0.275,0.03,0.572,0.261,0.739c0.225,0.164,0.538,0.173,0.781,0.02
		l3.899-2.547l3.899,2.546c0.112,0.073,0.243,0.112,0.378,0.112c0.148,0,0.289-0.046,0.404-0.131
		c0.23-0.167,0.336-0.464,0.261-0.738l-1.216-4.496l3.627-2.923C38.517,29.57,38.605,29.269,38.518,29.001z M19.658,15.938
		l3.074-2.477l-1.768,4.64l-0.712,0.036L19.658,15.938z M23.988,26.215l-5.461,3.566l1.429-5.285l0.63,0.411
		c0.136,0.087,0.292,0.133,0.451,0.133c0.176,0,0.345-0.055,0.487-0.159c0.277-0.201,0.403-0.559,0.312-0.888l-1.317-4.869
		l1.146-0.057l2.322-6.095l2.322,6.095l6.515,0.325l-5.079,4.093l1.704,6.297L23.988,26.215z M33.531,32.304l1.175,4.34
		l-3.765-2.459l-3.764,2.459l1.173-4.34l-3.499-2.82l2.148-0.107l2.431,1.587c0.124,0.082,0.269,0.125,0.418,0.125
		c0.16,0,0.314-0.05,0.447-0.146c0.253-0.185,0.367-0.511,0.285-0.812l-0.652-2.411l1.014-2.66l1.601,4.2l4.49,0.225L33.531,32.304z
		"/>
</g>
<g id="Livello_2">
</g>
</svg>
