<?xml version="1.0" encoding="utf-8"?>
<!-- Generator: Adobe Illustrator 17.0.0, SVG Export Plug-In . SVG Version: 6.00 Build 0)  -->
<!DOCTYPE svg PUBLIC "-//W3C//DTD SVG 1.1//EN" "http://www.w3.org/Graphics/SVG/1.1/DTD/svg11.dtd">
<svg version="1.1" xmlns="http://www.w3.org/2000/svg" xmlns:xlink="http://www.w3.org/1999/xlink" x="0px" y="0px" width="40px"
	 height="40px" viewBox="0 0 40 40" enable-background="new 0 0 40 40" xml:space="preserve">
<g id="Livello_1">
	<g>
		<g>
			<g>
				<g>
					<path fill="#1A171B" d="M33.678,40.018H6.323c-0.725,0-1.314-0.59-1.314-1.314V16.341c0-0.725,0.59-1.314,1.314-1.314h27.354
						c0.725,0,1.313,0.59,1.313,1.314v22.363C34.991,39.429,34.402,40.018,33.678,40.018z M6.323,16.026
						c-0.173,0-0.314,0.141-0.314,0.314v22.363c0,0.171,0.144,0.314,0.314,0.314h27.354c0.17,0,0.313-0.144,0.313-0.314V16.341
						c0-0.174-0.141-0.314-0.313-0.314H6.323z"/>
				</g>
			</g>
			<g>
				<path fill="#1A171B" d="M31.718,16.026c-0.276,0-0.5-0.224-0.5-0.5v-3.327c0-6.186-5.032-11.218-11.218-11.218
					c-6.185,0-11.216,5.032-11.216,11.218v3.327c0,0.276-0.224,0.5-0.5,0.5c-0.276,0-0.5-0.224-0.5-0.5v-3.327
					c0-6.737,5.48-12.218,12.216-12.218c6.737,0,12.218,5.48,12.218,12.218v3.327C32.218,15.803,31.994,16.026,31.718,16.026z"/>
			</g>
		</g>
		<g>
			<g>
				<path fill="#1A171B" d="M20,35.247c-0.276,0-0.5-0.224-0.5-0.5V26.29c0-0.276,0.224-0.5,0.5-0.5s0.5,0.224,0.5,0.5v8.457
					C20.5,35.023,20.276,35.247,20,35.247z"/>
			</g>
			<g>
				<path fill="#1A171B" d="M20.028,29.97c-2.219,0-4.023-1.806-4.023-4.025c0-2.217,1.805-4.021,4.023-4.021
					c2.218,0,4.022,1.804,4.022,4.021C24.05,28.164,22.246,29.97,20.028,29.97z M20.028,22.924c-1.667,0-3.023,1.356-3.023,3.021
					c0,1.668,1.356,3.025,3.023,3.025c1.666,0,3.022-1.357,3.022-3.025C23.05,24.279,21.694,22.924,20.028,22.924z"/>
			</g>
		</g>
	</g>
</g>
<g id="Livello_2">
</g>
</svg>
