<?xml version="1.0" encoding="utf-8"?>
<!-- Generator: Adobe Illustrator 17.0.0, SVG Export Plug-In . SVG Version: 6.00 Build 0)  -->
<!DOCTYPE svg PUBLIC "-//W3C//DTD SVG 1.1//EN" "http://www.w3.org/Graphics/SVG/1.1/DTD/svg11.dtd">
<svg version="1.1" xmlns="http://www.w3.org/2000/svg" xmlns:xlink="http://www.w3.org/1999/xlink" x="0px" y="0px" width="40px"
	 height="40px" viewBox="0 0 40 40" enable-background="new 0 0 40 40" xml:space="preserve">
<g id="Livello_1">
	<g>
		<g>
			<path fill="#1A171B" d="M28.846,33.405H5.596c-0.982,0-1.781-0.798-1.781-1.781V8.375c0-0.982,0.799-1.781,1.781-1.781h23.249
				c0.982,0,1.781,0.798,1.781,1.781V14c0,0.255-0.206,0.461-0.461,0.461c-0.255,0-0.461-0.206-0.461-0.461V8.375
				c0-0.473-0.385-0.858-0.858-0.858H5.596c-0.473,0-0.858,0.385-0.858,0.858v23.25c0,0.473,0.385,0.858,0.858,0.858h23.249
				c0.473,0,0.858-0.385,0.858-0.858v-5.568c0-0.255,0.206-0.461,0.461-0.461c0.255,0,0.461,0.206,0.461,0.461v5.568
				C30.626,32.607,29.828,33.405,28.846,33.405z"/>
		</g>
		<g>
			<g>
				<path fill="#1A171B" d="M33.2,27.02c-0.115,0-0.231-0.043-0.32-0.129c-0.184-0.178-0.189-0.47-0.013-0.652l6.03-6.253
					l-6.005-6.225c-0.177-0.183-0.171-0.475,0.013-0.652c0.183-0.177,0.475-0.172,0.652,0.012l6.313,6.545
					c0.173,0.178,0.173,0.461,0.001,0.64l-6.339,6.573C33.441,26.973,33.321,27.02,33.2,27.02z"/>
			</g>
			<g>
				<path fill="#1A171B" d="M39.538,20.447H17.22c-0.255,0-0.461-0.206-0.461-0.461c0-0.255,0.206-0.461,0.461-0.461h22.318
					c0.255,0,0.461,0.206,0.461,0.461C40,20.241,39.794,20.447,39.538,20.447z"/>
			</g>
		</g>
	</g>
</g>
<g id="Livello_2">
</g>
</svg>
