<?xml version="1.0" encoding="utf-8"?>
<!-- Generator: Adobe Illustrator 17.0.0, SVG Export Plug-In . SVG Version: 6.00 Build 0)  -->
<!DOCTYPE svg PUBLIC "-//W3C//DTD SVG 1.1//EN" "http://www.w3.org/Graphics/SVG/1.1/DTD/svg11.dtd">
<svg version="1.1" xmlns="http://www.w3.org/2000/svg" xmlns:xlink="http://www.w3.org/1999/xlink" x="0px" y="0px" width="40px"
	 height="40px" viewBox="0 0 40 40" enable-background="new 0 0 40 40" xml:space="preserve">
<g id="Livello_1">
	<g>
		<g>
			<path fill="#1A171B" d="M24.135,19.639c-0.058,0-0.118-0.011-0.173-0.032c-1.035-0.406-3.23-6.975-3.23-8.552
				c0-1.877,1.526-3.403,3.403-3.403c1.876,0,3.401,1.526,3.401,3.403c0,1.577-2.193,8.146-3.228,8.552
				C24.252,19.627,24.193,19.639,24.135,19.639z M24.135,8.6c-1.353,0-2.454,1.101-2.454,2.454c0,1.534,1.678,6.057,2.454,7.377
				c0.776-1.319,2.452-5.843,2.452-7.377C26.587,9.701,25.487,8.6,24.135,8.6z"/>
		</g>
		<g>
			<g>
				<path fill="#1A171B" d="M24.783,32.349c-0.155,0-0.305-0.042-0.448-0.123l-11.503-7.011L1.34,32.219
					c-0.355,0.219-0.863,0.137-1.132-0.184c-0.283-0.345-0.275-0.828,0.016-1.153c11.816-14.866,11.83-14.872,12.009-14.935
					l6.89-2.789c0.101-0.04,0.213-0.045,0.317-0.014l1.37,0.42c0.25,0.077,0.391,0.343,0.315,0.593
					c-0.078,0.25-0.346,0.389-0.593,0.315l-1.209-0.371l-6.648,2.689C11.88,17.751,4.354,27.21,1.157,31.231l11.429-6.978
					c0.152-0.093,0.342-0.093,0.494,0l11.704,7.134c0.011-0.005,0.021-0.009,0.032-0.013l10.93-6.287l0.437-11.337l-7.689,3.047
					c-0.1,0.04-0.21,0.044-0.314,0.013L26.9,16.42c-0.25-0.077-0.391-0.342-0.315-0.593c0.077-0.249,0.338-0.391,0.593-0.315
					l1.121,0.343l7.691-3.048c0.324-0.09,0.603-0.026,0.824,0.152c0.221,0.181,0.336,0.443,0.322,0.724L36.651,25.19
					c-0.017,0.291-0.171,0.554-0.411,0.709l-11.007,6.327c-0.032,0.018-0.066,0.032-0.101,0.044
					C25.003,32.327,24.894,32.349,24.783,32.349z"/>
			</g>
			<g>
				<path fill="#1A171B" d="M12.854,25.103c-0.082,0-0.164-0.02-0.239-0.065c-0.226-0.133-0.302-0.423-0.17-0.649l6.388-10.926
					c0.132-0.227,0.423-0.304,0.649-0.171c0.227,0.133,0.303,0.423,0.17,0.649l-6.388,10.926
					C13.176,25.018,13.017,25.103,12.854,25.103z"/>
			</g>
			<g>
				<path fill="#1A171B" d="M24.87,32.168c-0.033,0-0.067-0.004-0.101-0.01c-0.256-0.056-0.419-0.308-0.364-0.564l3.282-15.266
					c0.056-0.257,0.305-0.411,0.564-0.364c0.256,0.056,0.419,0.308,0.364,0.564l-3.282,15.266
					C25.286,32.016,25.089,32.168,24.87,32.168z"/>
			</g>
		</g>
	</g>
</g>
<g id="Livello_2">
</g>
</svg>
