<?xml version="1.0" encoding="utf-8"?>
<!-- Generator: Adobe Illustrator 17.0.0, SVG Export Plug-In . SVG Version: 6.00 Build 0)  -->
<!DOCTYPE svg PUBLIC "-//W3C//DTD SVG 1.1//EN" "http://www.w3.org/Graphics/SVG/1.1/DTD/svg11.dtd">
<svg version="1.1" xmlns="http://www.w3.org/2000/svg" xmlns:xlink="http://www.w3.org/1999/xlink" x="0px" y="0px" width="40px"
	 height="40px" viewBox="0 0 40 40" enable-background="new 0 0 40 40" xml:space="preserve">
<g id="Livello_1">
	<g>
		<g>
			<path fill="#1A171B" d="M32.666,13.25H7.334c-0.276,0-0.5-0.224-0.5-0.5s0.224-0.5,0.5-0.5h25.332c0.276,0,0.5,0.224,0.5,0.5
				S32.942,13.25,32.666,13.25z"/>
		</g>
		<g>
			<path fill="#1A171B" d="M32.666,20.5H7.334c-0.276,0-0.5-0.224-0.5-0.5s0.224-0.5,0.5-0.5h25.332c0.276,0,0.5,0.224,0.5,0.5
				S32.942,20.5,32.666,20.5z"/>
		</g>
		<g>
			<path fill="#1A171B" d="M32.666,27.75H7.334c-0.276,0-0.5-0.224-0.5-0.5s0.224-0.5,0.5-0.5h25.332c0.276,0,0.5,0.224,0.5,0.5
				S32.942,27.75,32.666,27.75z"/>
		</g>
	</g>
</g>
<g id="Livello_2">
</g>
</svg>
