<?xml version="1.0" encoding="utf-8"?>
<!-- Generator: Adobe Illustrator 17.0.0, SVG Export Plug-In . SVG Version: 6.00 Build 0)  -->
<!DOCTYPE svg PUBLIC "-//W3C//DTD SVG 1.1//EN" "http://www.w3.org/Graphics/SVG/1.1/DTD/svg11.dtd">
<svg version="1.1" xmlns="http://www.w3.org/2000/svg" xmlns:xlink="http://www.w3.org/1999/xlink" x="0px" y="0px" width="40px"
	 height="40px" viewBox="0 0 40 40" enable-background="new 0 0 40 40" xml:space="preserve">
<g id="Livello_1">
</g>
<g id="Livello_2">
	<path d="M27.02,8.789c-2.656,0-5.096,0.933-7.02,2.482c-1.923-1.549-4.362-2.482-7.018-2.482c-6.183,0-11.213,5.028-11.213,11.21
		c0,6.183,5.03,11.212,11.213,11.212c2.656,0,5.095-0.933,7.018-2.483c1.923,1.55,4.363,2.483,7.02,2.483
		c6.183,0,11.212-5.029,11.212-11.212C38.231,13.817,33.202,8.789,27.02,8.789z M12.982,30.277c-5.668,0-10.279-4.611-10.279-10.278
		c0-5.666,4.611-10.276,10.279-10.276c2.377,0,4.562,0.819,6.305,2.179c-2.138,2.042-3.479,4.913-3.479,8.097
		c0,3.184,1.34,6.055,3.479,8.098C17.544,29.458,15.359,30.277,12.982,30.277z M27.02,30.277c-2.378,0-4.563-0.819-6.307-2.18
		c2.138-2.043,3.477-4.914,3.477-8.098c0-3.183-1.34-6.054-3.477-8.097c1.743-1.361,3.929-2.18,6.306-2.18
		c5.667,0,10.278,4.61,10.278,10.276C37.298,25.666,32.687,30.277,27.02,30.277z"/>
</g>
</svg>
