<?xml version="1.0" encoding="utf-8"?>
<!-- Generator: Adobe Illustrator 19.0.0, SVG Export Plug-In . SVG Version: 6.00 Build 0)  -->
<svg version="1.1" id="Livello_1" xmlns="http://www.w3.org/2000/svg" xmlns:xlink="http://www.w3.org/1999/xlink" x="0px" y="0px"
	 viewBox="0 0 40 40" enable-background="new 0 0 40 40" xml:space="preserve">
<g id="Livello_2_2_">
</g>
<g id="New_Symbol_232">
</g>
<g id="XMLID_921_">
	<path id="XMLID_1522_" d="M20.001,2.683C10.452,2.683,2.684,10.451,2.684,20s7.769,17.317,17.317,17.317
		c9.548,0,17.315-7.769,17.315-17.317S29.549,2.683,20.001,2.683z M20.001,35.817c-8.722,0-15.817-7.096-15.817-15.817
		S11.279,4.183,20.001,4.183c8.721,0,15.815,7.096,15.815,15.817S28.722,35.817,20.001,35.817z"/>
	<circle id="XMLID_1523_" cx="15.431" cy="16.424" r="1.044"/>
	<circle id="XMLID_1524_" cx="24.569" cy="16.424" r="1.044"/>
	<path id="XMLID_1525_" d="M24.828,25.312h-9.656c-0.414,0-0.75,0.336-0.75,0.75s0.336,0.75,0.75,0.75h9.656
		c0.414,0,0.75-0.336,0.75-0.75S25.242,25.312,24.828,25.312z"/>
</g>
</svg>
