<?xml version="1.0" encoding="utf-8"?>
<!-- Generator: Adobe Illustrator 17.0.0, SVG Export Plug-In . SVG Version: 6.00 Build 0)  -->
<!DOCTYPE svg PUBLIC "-//W3C//DTD SVG 1.1//EN" "http://www.w3.org/Graphics/SVG/1.1/DTD/svg11.dtd">
<svg version="1.1" xmlns="http://www.w3.org/2000/svg" xmlns:xlink="http://www.w3.org/1999/xlink" x="0px" y="0px" width="40px"
	 height="40px" viewBox="0 0 40 40" enable-background="new 0 0 40 40" xml:space="preserve">
<g id="Livello_1">
</g>
<g id="Livello_2">
	<g>
		<path fill="#1A171B" d="M35.574,19.74c-0.015-0.365-0.042-1.043-0.105-1.675c-0.097-0.957-0.21-1.743-0.356-2.475
			c-0.583-2.897-1.714-5.706-3.36-8.347c-1.005-1.609-2.139-3.053-3.37-4.29c-0.137-0.138-0.325-0.217-0.518-0.217
			c-0.151,0-0.289,0.05-0.388,0.141c-0.072,0.066-0.115,0.165-0.117,0.27c-0.003,0.192,0.122,0.357,0.229,0.462
			c0.761,0.753,1.384,1.449,1.904,2.129c4.017,5.24,5.644,11.2,4.834,17.714c-0.466,3.756-1.933,7.325-4.357,10.61
			c-0.531,0.721-1.124,1.396-1.697,2.051c-0.271,0.308-0.532,0.606-0.783,0.902c-0.163,0.193-0.186,0.373-0.065,0.535
			c0.138,0.186,0.369,0.251,0.558,0.151c0.238-0.125,0.428-0.261,0.565-0.402c2.393-2.467,4.216-5.285,5.418-8.379
			c1.126-2.893,1.645-5.673,1.631-8.75L35.574,19.74z"/>
		<path fill="#1A171B" d="M28.09,16.408c-0.794-3.432-2.439-6.393-4.891-8.801c-0.08-0.078-0.172-0.169-0.265-0.232
			c-0.091-0.062-0.197-0.094-0.309-0.094c-0.165,0-0.317,0.071-0.416,0.194c-0.055,0.068-0.222,0.277,0.134,0.641
			c0.398,0.406,0.857,0.883,1.263,1.4c3.378,4.3,4.543,9.127,3.462,14.347c-0.655,3.16-2.258,6.037-4.764,8.55
			c-0.233,0.233-0.194,0.368-0.166,0.466c0.037,0.129,0.11,0.257,0.385,0.317c0.177,0.039,0.299,0.071,0.656-0.293
			c3.387-3.445,5.234-7.604,5.343-12.026C28.513,18.995,28.388,17.698,28.09,16.408z"/>
		<path fill="#1A171B" d="M21.638,19.342c-0.058-0.481-0.145-1.208-0.307-1.887c-0.504-2.103-1.606-3.994-3.277-5.621
			c-0.175-0.171-0.34-0.254-0.504-0.254c-0.043,0-0.087,0.005-0.13,0.015c-0.208,0.045-0.318,0.138-0.373,0.312
			c-0.031,0.101-0.074,0.238,0.17,0.483c2.983,2.993,4.014,6.535,3.063,10.527c-0.46,1.933-1.502,3.687-3.095,5.215
			c-0.165,0.158-0.198,0.285-0.129,0.482c0.058,0.158,0.251,0.281,0.461,0.291l0.027,0.243c0,0,0.001,0,0.001,0v-0.242
			c0.125,0,0.285-0.032,0.522-0.267c2.411-2.393,3.563-5.208,3.628-8.859c-0.013-0.062-0.027-0.185-0.044-0.319L21.638,19.342z"/>
		<path fill="#1A171B" d="M13.339,15.646c-0.079-0.062-0.172-0.118-0.271-0.159c-0.088-0.038-0.169-0.057-0.24-0.057h-0.25
			l-0.016-0.249V7.659c0-1.431-1.163-2.595-2.594-2.595H7.344c-1.431,0-2.594,1.164-2.594,2.595v25.427
			c0,1.431,1.163,2.594,2.594,2.594h2.625c1.431,0,2.594-1.163,2.594-2.594v-8.128l0.268,0.02c0.004,0,0.007,0,0.01,0
			c0.225,0,0.433-0.077,0.568-0.198c1.389-1.253,2.081-2.731,2.116-4.52C15.54,18.564,14.662,16.709,13.339,15.646z M11.531,33.086
			c0,0.861-0.701,1.562-1.562,1.562H7.344c-0.861,0-1.562-0.701-1.562-1.562V7.659c0-0.861,0.701-1.562,1.562-1.562h2.625
			c0.861,0,1.562,0.701,1.562,1.562V33.086z M12.979,23.851l-0.416,0.37v-7.966l0.532,0.621c0.166,0.192,0.34,0.396,0.496,0.62
			C14.796,19.221,14.905,22.141,12.979,23.851z"/>
	</g>
</g>
</svg>
