<?xml version="1.0" encoding="utf-8"?>
<!-- Generator: Adobe Illustrator 19.0.0, SVG Export Plug-In . SVG Version: 6.00 Build 0)  -->
<svg version="1.1" id="Livello_1" xmlns="http://www.w3.org/2000/svg" xmlns:xlink="http://www.w3.org/1999/xlink" x="0px" y="0px"
	 viewBox="0 0 40 40" enable-background="new 0 0 40 40" xml:space="preserve">
<g id="Livello_2_2_">
</g>
<g>
	<path fill="#1D1D1B" d="M36.389,4.962h-5.906c-0.246,0-0.446,0.199-0.446,0.446c0,0.246,0.199,0.446,0.446,0.446h5.906
		c0.055,0,0.099,0.044,0.099,0.099v6.37H3.575v-6.37c0-0.055,0.045-0.099,0.1-0.099h6.224c0.246,0,0.446-0.199,0.446-0.446
		c0-0.247-0.199-0.446-0.446-0.446H3.675c-0.547,0-0.992,0.445-0.992,0.991v29.534c0,0.548,0.445,0.993,0.992,0.993h32.714
		c0.546,0,0.991-0.445,0.991-0.993V5.953C37.38,5.407,36.935,4.962,36.389,4.962z M36.389,35.588H3.675
		c-0.056,0-0.1-0.044-0.1-0.101V13.214h32.913v22.272C36.488,35.543,36.445,35.588,36.389,35.588z"/>
	<path fill="#1D1D1B" d="M14.171,5.854h11.904c0.246,0,0.446-0.199,0.446-0.446c0-0.247-0.199-0.446-0.446-0.446H14.171
		c-0.246,0-0.446,0.199-0.446,0.446C13.726,5.654,13.925,5.854,14.171,5.854z"/>
	<path fill="#1D1D1B" d="M12.147,8.944c0.246,0,0.446-0.2,0.446-0.446V2.5c0-0.246-0.199-0.446-0.446-0.446s-0.446,0.2-0.446,0.446
		v5.999C11.701,8.745,11.901,8.944,12.147,8.944z"/>
	<path fill="#1D1D1B" d="M28.301,8.944c0.246,0,0.446-0.2,0.446-0.446V2.5c0-0.246-0.199-0.446-0.446-0.446
		c-0.247,0-0.446,0.2-0.446,0.446v5.999C27.855,8.745,28.054,8.944,28.301,8.944z"/>
	<circle fill="#1D1D1B" cx="9.842" cy="17.503" r="2.458"/>
	<circle fill="#1D1D1B" cx="16.906" cy="17.503" r="2.458"/>
	<circle fill="#1D1D1B" cx="23.969" cy="17.503" r="2.458"/>
	<circle fill="#1D1D1B" cx="9.842" cy="24.348" r="2.458"/>
	<circle fill="#1D1D1B" cx="16.906" cy="24.348" r="2.458"/>
	<circle fill="#1D1D1B" cx="23.969" cy="24.348" r="2.458"/>
	<circle fill="#1D1D1B" cx="9.842" cy="31.193" r="2.458"/>
	<circle fill="#1D1D1B" cx="16.906" cy="31.193" r="2.458"/>
	<circle fill="#1D1D1B" cx="23.969" cy="31.193" r="2.458"/>
	<circle fill="#1D1D1B" cx="30.867" cy="17.503" r="2.458"/>
	<circle fill="#1D1D1B" cx="30.867" cy="24.348" r="2.458"/>
	<path fill="#1D1D1B" d="M30.867,28.735c-1.357,0-2.458,1.1-2.458,2.458c0,1.357,1.1,2.458,2.458,2.458
		c1.357,0,2.458-1.1,2.458-2.458C33.325,29.836,32.225,28.735,30.867,28.735z M30.867,32.617c-0.785,0-1.424-0.639-1.424-1.424
		c0-0.785,0.639-1.424,1.424-1.424c0.785,0,1.423,0.639,1.423,1.424C32.291,31.978,31.652,32.617,30.867,32.617z"/>
</g>
</svg>
