<?xml version="1.0" encoding="utf-8"?>
<!-- Generator: Adobe Illustrator 19.0.0, SVG Export Plug-In . SVG Version: 6.00 Build 0)  -->
<svg version="1.1" id="Livello_1" xmlns="http://www.w3.org/2000/svg" xmlns:xlink="http://www.w3.org/1999/xlink" x="0px" y="0px"
	 viewBox="0 0 40 40" enable-background="new 0 0 40 40" xml:space="preserve">
<g id="Livello_1_2_">
	<path fill="#1D1D1B" d="M21.282,19.992L31.234,4.73c0.355-0.355,0.355-0.929-0.001-1.285c-0.332-0.332-0.949-0.332-1.284,0.001
		L20,18.708L10.047,3.445C9.712,3.114,9.101,3.112,8.765,3.446C8.593,3.618,8.499,3.846,8.5,4.088c0,0.243,0.094,0.47,0.265,0.639
		l9.952,15.264l-9.95,15.265c-0.355,0.355-0.355,0.929,0.001,1.285c0.347,0.344,0.946,0.338,1.282-0.003L20,21.277l9.952,15.264
		c0.172,0.171,0.4,0.263,0.641,0.263c0.241,0,0.469-0.093,0.642-0.265c0.172-0.172,0.266-0.4,0.265-0.642
		c0-0.243-0.094-0.47-0.265-0.639L21.282,19.992z"/>
</g>
<g id="Livello_2_2_">
</g>
</svg>
