<?xml version="1.0" encoding="utf-8"?>
<!-- Generator: Adobe Illustrator 19.0.0, SVG Export Plug-In . SVG Version: 6.00 Build 0)  -->
<svg version="1.1" id="Livello_1" xmlns="http://www.w3.org/2000/svg" xmlns:xlink="http://www.w3.org/1999/xlink" x="0px" y="0px"
	 viewBox="0 0 40 40" enable-background="new 0 0 40 40" xml:space="preserve">
<g id="Livello_2_2_">
</g>
<g id="New_Symbol_232">
</g>
<g id="XMLID_1_">
	<path id="XMLID_2_" d="M21.219,8.008h2.644c0.414,0,0.75-0.336,0.75-0.75s-0.336-0.75-0.75-0.75h-2.644
		c-0.414,0-0.75,0.336-0.75,0.75S20.805,8.008,21.219,8.008z"/>
	<path id="XMLID_9_" d="M21.219,14.422h5.551c0.414,0,0.75-0.336,0.75-0.75s-0.336-0.75-0.75-0.75h-5.551
		c-0.414,0-0.75,0.336-0.75,0.75S20.805,14.422,21.219,14.422z"/>
	<path id="XMLID_10_" d="M21.219,27.25h13.459c0.414,0,0.75-0.336,0.75-0.75s-0.336-0.75-0.75-0.75H21.219
		c-0.414,0-0.75,0.336-0.75,0.75S20.805,27.25,21.219,27.25z"/>
	<path id="XMLID_11_" d="M38,32.164H21.219c-0.414,0-0.75,0.336-0.75,0.75s0.336,0.75,0.75,0.75H38c0.414,0,0.75-0.336,0.75-0.75
		S38.414,32.164,38,32.164z"/>
	<path id="XMLID_12_" d="M21.219,20.836h9.459c0.414,0,0.75-0.336,0.75-0.75s-0.336-0.75-0.75-0.75h-9.459
		c-0.414,0-0.75,0.336-0.75,0.75S20.805,20.836,21.219,20.836z"/>
	<path id="XMLID_13_" d="M17.468,24.455l-6.692,8.076V6.934c0-0.414-0.336-0.75-0.75-0.75s-0.75,0.336-0.75,0.75v25.563
		l-6.693-8.043c-0.265-0.319-0.737-0.363-1.057-0.097c-0.318,0.265-0.361,0.737-0.097,1.056l8.037,9.657
		c0.143,0.172,0.354,0.271,0.577,0.271h0.001c0.223,0,0.434-0.1,0.577-0.271l8.003-9.657c0.264-0.319,0.22-0.792-0.099-1.056
		C18.204,24.091,17.733,24.137,17.468,24.455z"/>
</g>
</svg>
