<?xml version="1.0" encoding="utf-8"?>
<!-- Generator: Adobe Illustrator 19.0.0, SVG Export Plug-In . SVG Version: 6.00 Build 0)  -->
<svg version="1.1" id="Livello_1" xmlns="http://www.w3.org/2000/svg" xmlns:xlink="http://www.w3.org/1999/xlink" x="0px" y="0px"
	 viewBox="0 0 40 40" enable-background="new 0 0 40 40" xml:space="preserve">
<g id="Livello_2_2_">
</g>
<g id="New_Symbol_232">
</g>
<g id="XMLID_420_">
	<path id="XMLID_421_" d="M24.195,32.164h-2.644c-0.414,0-0.75,0.336-0.75,0.75s0.336,0.75,0.75,0.75h2.644
		c0.414,0,0.75-0.336,0.75-0.75S24.609,32.164,24.195,32.164z"/>
	<path id="XMLID_805_" d="M27.104,25.75h-5.552c-0.414,0-0.75,0.336-0.75,0.75s0.336,0.75,0.75,0.75h5.552
		c0.414,0,0.75-0.336,0.75-0.75S27.518,25.75,27.104,25.75z"/>
	<path id="XMLID_895_" d="M35.012,12.922h-13.46c-0.414,0-0.75,0.336-0.75,0.75s0.336,0.75,0.75,0.75h13.46
		c0.414,0,0.75-0.336,0.75-0.75S35.426,12.922,35.012,12.922z"/>
	<path id="XMLID_896_" d="M38.333,6.508H21.552c-0.414,0-0.75,0.336-0.75,0.75s0.336,0.75,0.75,0.75h16.781
		c0.414,0,0.75-0.336,0.75-0.75S38.747,6.508,38.333,6.508z"/>
	<path id="XMLID_897_" d="M17.468,24.455l-6.692,8.076V6.934c0-0.414-0.336-0.75-0.75-0.75s-0.75,0.336-0.75,0.75v25.563
		l-6.693-8.043c-0.265-0.319-0.737-0.363-1.057-0.097c-0.318,0.265-0.361,0.737-0.097,1.056l8.037,9.657
		c0.143,0.172,0.354,0.271,0.577,0.271h0.001c0.223,0,0.434-0.1,0.577-0.271l8.003-9.657c0.264-0.319,0.22-0.792-0.099-1.056
		C18.204,24.091,17.733,24.137,17.468,24.455z"/>
	<path id="XMLID_898_" d="M31.012,19.336h-9.46c-0.414,0-0.75,0.336-0.75,0.75s0.336,0.75,0.75,0.75h9.46
		c0.414,0,0.75-0.336,0.75-0.75S31.426,19.336,31.012,19.336z"/>
</g>
</svg>
