<?xml version="1.0" encoding="utf-8"?>
<!-- Generator: Adobe Illustrator 19.0.0, SVG Export Plug-In . SVG Version: 6.00 Build 0)  -->
<svg version="1.1" id="Livello_1" xmlns="http://www.w3.org/2000/svg" xmlns:xlink="http://www.w3.org/1999/xlink" x="0px" y="0px"
	 viewBox="0 0 40 40" enable-background="new 0 0 40 40" xml:space="preserve">
<g id="Livello_2_2_">
</g>
<path d="M23.203,36.088c-1.55-2.469-2.731-5.065-3.513-7.719c-0.781-2.651-1.178-5.464-1.178-8.359c0-2.909,0.396-5.729,1.178-8.38
	c0.781-2.655,1.957-5.259,3.493-7.737C23.287,3.73,23.34,3.57,23.34,3.415c0-0.228-0.11-0.408-0.313-0.517l-0.924-0.573
	l-0.066,0.103c-1.001,1.533-1.855,3.04-2.54,4.481c-0.684,1.439-1.242,2.892-1.659,4.319c-0.417,1.426-0.724,2.879-0.912,4.318
	c-0.188,1.434-0.284,2.935-0.284,4.464c0,1.527,0.096,3.025,0.284,4.453c0.188,1.433,0.495,2.882,0.912,4.309
	c0.417,1.427,0.976,2.88,1.659,4.319c0.685,1.44,1.539,2.947,2.54,4.48l0.066,0.103l0.914-0.567
	c0.225-0.112,0.343-0.299,0.343-0.542C23.359,36.411,23.307,36.25,23.203,36.088z"/>
</svg>
