<?xml version="1.0" encoding="utf-8"?>
<!-- Generator: Adobe Illustrator 17.0.0, SVG Export Plug-In . SVG Version: 6.00 Build 0)  -->
<!DOCTYPE svg PUBLIC "-//W3C//DTD SVG 1.1//EN" "http://www.w3.org/Graphics/SVG/1.1/DTD/svg11.dtd">
<svg version="1.1" xmlns="http://www.w3.org/2000/svg" xmlns:xlink="http://www.w3.org/1999/xlink" x="0px" y="0px" width="40px"
	 height="40px" viewBox="0 0 40 40" enable-background="new 0 0 40 40" xml:space="preserve">
<g id="Livello_1">
	<g>
		<path fill="#1A171B" d="M14.105,20.35c0-0.76-0.528-1.214-1.459-1.214c-0.38,0-0.637,0.037-0.772,0.073v2.441
			c0.16,0.036,0.356,0.049,0.625,0.049C13.492,21.699,14.105,21.196,14.105,20.35z"/>
		<path fill="#1A171B" d="M19.871,19.16c-0.417,0-0.687,0.037-0.847,0.074v5.408c0.16,0.037,0.417,0.037,0.65,0.037
			c1.692,0.012,2.796-0.92,2.796-2.894C22.483,20.068,21.477,19.16,19.871,19.16z"/>
		<path fill="#1A171B" d="M30.918,15.983H30.24v-3.271c0-0.02-0.003-0.041-0.006-0.062c-0.001-0.13-0.042-0.257-0.131-0.359
			L24.66,6.075c-0.002-0.002-0.003-0.002-0.004-0.004c-0.033-0.036-0.07-0.066-0.11-0.092c-0.012-0.008-0.024-0.015-0.036-0.021
			c-0.035-0.019-0.071-0.035-0.109-0.046c-0.01-0.003-0.019-0.007-0.03-0.01c-0.041-0.01-0.084-0.016-0.127-0.016H10.867
			c-0.611,0-1.107,0.497-1.107,1.107v8.99H9.082c-0.874,0-1.582,0.708-1.582,1.582v8.228c0,0.873,0.709,1.582,1.582,1.582H9.76
			v5.633c0,0.61,0.496,1.107,1.107,1.107h18.266c0.61,0,1.107-0.497,1.107-1.107v-5.633h0.678c0.874,0,1.582-0.709,1.582-1.582
			v-8.228C32.5,16.691,31.791,15.983,30.918,15.983z M10.867,6.993H23.69v5.664c0,0.306,0.248,0.553,0.554,0.553h4.89v2.773H10.867
			V6.993z M24.457,21.723c0,1.582-0.576,2.674-1.375,3.348c-0.87,0.723-2.194,1.067-3.813,1.067c-0.969,0-1.655-0.062-2.122-0.122
			v-8.119c0.687-0.11,1.582-0.171,2.527-0.171c1.569,0,2.587,0.282,3.384,0.883C23.917,19.246,24.457,20.264,24.457,21.723z
			 M10.021,26.053v-8.156c0.576-0.098,1.386-0.171,2.526-0.171c1.153,0,1.975,0.221,2.526,0.662
			c0.527,0.417,0.882,1.104,0.882,1.913c0,0.81-0.269,1.496-0.76,1.962c-0.638,0.601-1.582,0.871-2.686,0.871
			c-0.245,0-0.466-0.012-0.637-0.037v2.956L10.021,26.053L10.021,26.053z M29.133,32.708H10.867v-5.333h18.266L29.133,32.708
			L29.133,32.708z M30.737,19.32H27.56v1.889h2.968v1.521H27.56v3.323h-1.875v-8.266h5.052V19.32z"/>
	</g>
</g>
<g id="Livello_2">
</g>
</svg>
