<?xml version="1.0" encoding="utf-8"?>
<!-- Generator: Adobe Illustrator 17.0.0, SVG Export Plug-In . SVG Version: 6.00 Build 0)  -->
<!DOCTYPE svg PUBLIC "-//W3C//DTD SVG 1.1//EN" "http://www.w3.org/Graphics/SVG/1.1/DTD/svg11.dtd">
<svg version="1.1" xmlns="http://www.w3.org/2000/svg" xmlns:xlink="http://www.w3.org/1999/xlink" x="0px" y="0px" width="40px"
	 height="40px" viewBox="0 0 40 40" enable-background="new 0 0 40 40" xml:space="preserve">
<g id="Livello_1">
	<g>
		<g>
			<path fill="#1A171B" d="M18.133,12.302c0,1.251-0.162,2.341-0.485,3.269c-0.323,0.928-0.759,1.698-1.307,2.308
				c-0.549,0.613-1.189,1.07-1.92,1.371c-0.731,0.303-1.505,0.454-2.319,0.454c-0.844,0-1.632-0.151-2.363-0.454
				c-0.731-0.302-1.371-0.759-1.92-1.371c-0.547-0.611-0.981-1.38-1.296-2.308c-0.317-0.928-0.474-2.018-0.474-3.269
				c0-1.265,0.157-2.366,0.474-3.302c0.316-0.934,0.749-1.712,1.296-2.33c0.549-0.619,1.189-1.079,1.92-1.382
				c0.731-0.302,1.519-0.452,2.363-0.452c0.829,0,1.609,0.151,2.341,0.452c0.731,0.303,1.371,0.763,1.918,1.382
				C16.91,7.288,17.342,8.066,17.659,9C17.974,9.936,18.133,11.036,18.133,12.302z M17.227,12.302c0-1.167-0.138-2.173-0.412-3.016
				c-0.274-0.844-0.644-1.538-1.107-2.079c-0.465-0.541-1.009-0.942-1.635-1.202c-0.625-0.261-1.282-0.39-1.971-0.39
				c-0.704,0-1.368,0.129-1.994,0.39c-0.625,0.26-1.171,0.661-1.634,1.202C8.008,7.748,7.64,8.442,7.366,9.286
				c-0.275,0.843-0.412,1.848-0.412,3.016s0.137,2.169,0.412,3.005c0.274,0.836,0.642,1.522,1.107,2.057
				c0.463,0.535,1.009,0.928,1.634,1.181c0.626,0.253,1.29,0.379,1.994,0.379c0.689,0,1.346-0.126,1.971-0.379
				c0.626-0.253,1.171-0.647,1.635-1.181c0.463-0.535,0.833-1.22,1.107-2.057C17.088,14.47,17.227,13.469,17.227,12.302z
				 M29.819,5.426c0.07-0.086,0.14-0.148,0.21-0.191c0.071-0.042,0.169-0.062,0.295-0.062h0.738L9.992,34.574
				c-0.113,0.168-0.275,0.253-0.485,0.253h-0.76L29.819,5.426z M33.952,27.762c0,1.251-0.162,2.341-0.485,3.269
				c-0.323,0.928-0.763,1.698-1.318,2.31c-0.555,0.611-1.199,1.068-1.929,1.37c-0.732,0.302-1.505,0.454-2.321,0.454
				c-0.83,0-1.614-0.152-2.352-0.454c-0.738-0.302-1.38-0.759-1.929-1.37c-0.549-0.612-0.981-1.382-1.298-2.31
				c-0.316-0.928-0.474-2.018-0.474-3.269c0-1.265,0.159-2.366,0.474-3.3c0.317-0.936,0.749-1.708,1.298-2.321
				c0.549-0.611,1.191-1.068,1.929-1.371c0.738-0.302,1.522-0.452,2.352-0.452c0.83,0,1.61,0.151,2.341,0.452
				c0.731,0.303,1.371,0.76,1.92,1.371c0.549,0.612,0.984,1.385,1.307,2.321C33.791,25.396,33.952,26.497,33.952,27.762z
				 M33.046,27.762c0-1.167-0.138-2.172-0.412-3.016c-0.274-0.844-0.644-1.536-1.107-2.078c-0.465-0.541-1.009-0.941-1.635-1.202
				c-0.625-0.26-1.29-0.39-1.993-0.39s-1.363,0.131-1.982,0.39c-0.619,0.261-1.161,0.661-1.625,1.202
				c-0.465,0.543-0.833,1.234-1.107,2.078c-0.275,0.844-0.412,1.848-0.412,3.016c0,1.167,0.137,2.169,0.412,3.006
				c0.274,0.836,0.642,1.525,1.107,2.066c0.463,0.543,1.006,0.939,1.625,1.192c0.619,0.253,1.279,0.379,1.982,0.379
				s1.368-0.126,1.993-0.379c0.626-0.253,1.171-0.65,1.635-1.192c0.463-0.541,0.833-1.23,1.107-2.066
				C32.907,29.931,33.046,28.929,33.046,27.762z"/>
		</g>
	</g>
</g>
<g id="Livello_2">
</g>
</svg>
