<?xml version="1.0" encoding="utf-8"?>
<!-- Generator: Adobe Illustrator 19.0.0, SVG Export Plug-In . SVG Version: 6.00 Build 0)  -->
<svg version="1.1" id="Livello_1" xmlns="http://www.w3.org/2000/svg" xmlns:xlink="http://www.w3.org/1999/xlink" x="0px" y="0px"
	 viewBox="0 0 40 40" enable-background="new 0 0 40 40" xml:space="preserve">
<g>
	<path d="M12.102,19.955c0.845,0,1.657-0.159,2.415-0.473c0.763-0.315,1.439-0.799,2.01-1.436c0.566-0.631,1.023-1.436,1.358-2.394
		c0.33-0.95,0.498-2.077,0.498-3.352c0-1.286-0.164-2.424-0.487-3.382c-0.327-0.964-0.78-1.776-1.348-2.415
		c-0.568-0.644-1.244-1.131-2.01-1.448c-1.536-0.631-3.393-0.62-4.896,0.001C8.878,5.374,8.201,5.86,7.631,6.504
		C7.062,7.147,6.609,7.96,6.286,8.92c-0.324,0.954-0.488,2.092-0.488,3.382c0,1.275,0.164,2.402,0.488,3.35
		c0.323,0.953,0.776,1.759,1.346,2.396c0.571,0.637,1.248,1.12,2.011,1.435C10.4,19.796,11.228,19.955,12.102,19.955z M7.604,15.229
		c-0.265-0.805-0.399-1.789-0.399-2.927s0.135-2.126,0.4-2.938C7.866,8.553,8.223,7.882,8.662,7.37
		c0.438-0.509,0.955-0.891,1.54-1.134c0.593-0.246,1.231-0.371,1.899-0.371c0.653,0,1.284,0.125,1.875,0.372
		c0.584,0.241,1.104,0.623,1.541,1.132c0.441,0.516,0.798,1.187,1.059,1.994c0.266,0.818,0.4,1.807,0.4,2.938
		s-0.135,2.116-0.399,2.927c-0.262,0.799-0.617,1.462-1.058,1.971c-0.436,0.502-0.954,0.876-1.541,1.114
		c-1.195,0.483-2.605,0.474-3.778,0c-0.587-0.239-1.104-0.613-1.539-1.114C8.222,16.694,7.866,16.031,7.604,15.229z"/>
	<path d="M33.703,24.38c-0.333-0.963-0.789-1.772-1.357-2.406c-0.57-0.636-1.247-1.119-2.01-1.436c-1.516-0.625-3.354-0.625-4.884,0
		c-0.77,0.315-1.449,0.799-2.021,1.436c-0.567,0.634-1.021,1.444-1.349,2.408c-0.322,0.956-0.486,2.093-0.486,3.38
		c0,1.272,0.164,2.399,0.487,3.351c0.327,0.956,0.78,1.763,1.349,2.396c0.572,0.638,1.252,1.12,2.021,1.435
		c0.768,0.313,1.591,0.473,2.446,0.473c0.842,0,1.655-0.159,2.417-0.473c0.762-0.315,1.441-0.798,2.019-1.434
		c0.575-0.635,1.036-1.44,1.369-2.396c0.331-0.95,0.499-2.078,0.499-3.352C34.202,26.475,34.034,25.337,33.703,24.38z M32.396,30.69
		c-0.262,0.8-0.618,1.467-1.059,1.981c-0.437,0.509-0.954,0.887-1.54,1.124c-1.182,0.479-2.616,0.479-3.786,0
		c-0.581-0.238-1.096-0.616-1.53-1.124c-0.439-0.512-0.796-1.178-1.059-1.981c-0.265-0.807-0.399-1.792-0.399-2.929
		s0.135-2.125,0.4-2.938c0.262-0.809,0.618-1.479,1.058-1.992c0.435-0.507,0.95-0.889,1.532-1.135
		c0.585-0.245,1.219-0.37,1.885-0.37c0.667,0,1.306,0.125,1.896,0.37c0.588,0.245,1.106,0.627,1.542,1.134
		c0.441,0.518,0.798,1.188,1.059,1.993c0.266,0.818,0.4,1.808,0.4,2.938S32.661,29.878,32.396,30.69z"/>
	<path d="M30.324,4.923c-0.175,0-0.312,0.031-0.43,0.101c-0.094,0.06-0.185,0.142-0.269,0.243L8.26,35.077h1.247
		c0.292,0,0.531-0.126,0.688-0.357L31.549,4.923H30.324z"/>
</g>
<g id="Livello_2_2_">
</g>
</svg>
