<?xml version="1.0" encoding="utf-8"?>
<!-- Generator: Adobe Illustrator 17.0.0, SVG Export Plug-In . SVG Version: 6.00 Build 0)  -->
<!DOCTYPE svg PUBLIC "-//W3C//DTD SVG 1.1//EN" "http://www.w3.org/Graphics/SVG/1.1/DTD/svg11.dtd">
<svg version="1.1" xmlns="http://www.w3.org/2000/svg" xmlns:xlink="http://www.w3.org/1999/xlink" x="0px" y="0px" width="40px"
	 height="40px" viewBox="0 0 40 40" enable-background="new 0 0 40 40" xml:space="preserve">
<g id="Livello_1">
	<g>
		<g>
			
				<rect x="11.051" y="2.662" transform="matrix(0.7929 0.6093 -0.6093 0.7929 6.3244 -5.7018)" fill="#1A171B" width="1" height="7.584"/>
		</g>
		<g>
			<polygon fill="#1A171B" points="13.609,7.774 13.44,3.962 9.766,4.782 9.547,3.806 14.386,2.726 14.608,7.73 			"/>
		</g>
	</g>
	<g>
		<g>
			
				<rect x="5.771" y="9.649" transform="matrix(0.8056 0.5925 -0.5925 0.8056 9.1818 -1.1019)" fill="#1A171B" width="0.999" height="7.584"/>
		</g>
		<g>
			<polygon fill="#1A171B" points="3.473,17.198 3.171,12.249 4.169,12.189 4.398,15.946 8.108,15.053 8.343,16.025 			"/>
		</g>
	</g>
</g>
<g id="Livello_2">
	<g>
		<path fill="#1A171B" d="M22.651,37.665c-0.62,0-1.098-0.035-1.389-0.064c-1.759-0.176-4.538-1.213-6.483-3.073
			c-1.539-1.472-5.309-8.495-6.394-11.355C8.186,22.65,6.5,18.047,8.302,17.146c0.531-0.266,1.165-0.536,1.837-0.536
			c0.692,0,1.345,0.272,2.055,0.858c1.532,1.266,2.397,3.827,2.406,3.853c0.051,0.153,0.136,0.375,0.229,0.612
			c0.434-1.589,1.073-4.319,1.108-6.694c0.024-1.653-0.15-3.661-0.305-5.434c-0.261-2.996-0.328-4.175,0.012-4.665
			c0.639-0.924,1.927-1.487,2.887-1.235l0.192,0.049c0.843,0.206,1.997,0.488,2.567,2.997c0.269,1.187,0.292,4.17,0.241,6.971
			c0.194-0.554,0.407-0.981,0.634-1.179c0.638-0.558,1.441-0.675,2.004-0.675c0.446,0,0.835,0.075,1.021,0.15
			c0.067,0.027,1.678,0.691,1.678,2.483c0,0.257-0.014,0.527-0.036,0.799c0.297-0.335,0.617-0.598,0.936-0.683
			c0.965-0.255,2.094-0.099,2.641,0.381c0.605,0.529,0.84,1.548,0.599,2.599c0.19-0.162,0.378-0.276,0.556-0.312
			c0.102-0.021,0.216-0.031,0.341-0.031c0.682,0,1.842,0.355,2.245,1.335c0.498,1.209,0.69,5.175-0.719,8.443
			c-0.395,0.916-0.739,1.87-1.073,2.794c-0.827,2.289-1.608,4.451-3.026,5.703C27.422,37.413,24.327,37.665,22.651,37.665z
			 M10.139,17.609c-0.374,0-0.777,0.124-1.39,0.431c-0.579,0.289-0.161,2.851,0.571,4.777c1.101,2.901,4.839,9.732,6.15,10.987
			c1.695,1.621,4.247,2.637,5.892,2.802c0.34,0.033,0.783,0.059,1.289,0.059c1.235,0,4.293-0.165,6.017-1.687
			c1.227-1.082,1.966-3.128,2.748-5.293c0.339-0.938,0.688-1.906,1.096-2.851c1.306-3.028,1.091-6.746,0.713-7.666
			c-0.227-0.552-1.098-0.773-1.466-0.704c-0.195,0.085-0.789,0.846-1.25,1.62l-1.417,2.387l0.495-2.731c0,0,0.221-1.215,0.442-2.153
			c0.186-0.794-0.015-1.405-0.279-1.638c-0.284-0.249-1.092-0.336-1.725-0.166c-0.353,0.094-1.12,1.23-1.59,2.192l-1.826,3.742
			l0.889-4.068c0.004-0.018,0.37-1.71,0.37-2.949c0-1.122-1.039-1.551-1.05-1.556c-0.121-0.045-1.242-0.308-1.995,0.349
			c-0.451,0.396-1.128,3.633-1.495,6.405l-0.995-0.09c0.005-0.104,0.506-10.331-0.018-12.638c-0.434-1.905-1.112-2.072-1.831-2.248
			l-0.212-0.053c-0.549-0.148-1.405,0.258-1.807,0.838c-0.157,0.348,0.019,2.378,0.162,4.009c0.156,1.796,0.334,3.831,0.309,5.536
			c-0.056,3.744-1.491,8.148-1.553,8.334l-0.412,1.255l-0.522-1.214c-0.025-0.058-0.608-1.416-0.801-1.992
			c-0.213-0.641-1.004-2.498-2.094-3.397C11.036,17.81,10.585,17.609,10.139,17.609z"/>
	</g>
</g>
</svg>
