<?xml version="1.0" encoding="utf-8"?>
<!-- Generator: Adobe Illustrator 17.0.0, SVG Export Plug-In . SVG Version: 6.00 Build 0)  -->
<!DOCTYPE svg PUBLIC "-//W3C//DTD SVG 1.1//EN" "http://www.w3.org/Graphics/SVG/1.1/DTD/svg11.dtd">
<svg version="1.1" xmlns="http://www.w3.org/2000/svg" xmlns:xlink="http://www.w3.org/1999/xlink" x="0px" y="0px" width="40px"
	 height="40px" viewBox="0 0 40 40" enable-background="new 0 0 40 40" xml:space="preserve">
<g id="Livello_1">
	<g>
		<g>
			<g>
				<path fill="#1A171B" d="M36.408,34.974H3.589c-1.043,0-1.891-0.852-1.891-1.9V6.919c0-1.044,0.849-1.893,1.891-1.893h32.819
					c1.045,0,1.895,0.849,1.895,1.893v26.155c0,1.027-0.819,1.865-1.836,1.896C36.447,34.973,36.428,34.974,36.408,34.974z
					 M3.589,5.964c-0.526,0-0.954,0.429-0.954,0.955v26.155c0,0.53,0.428,0.962,0.954,0.962h32.768
					c0.017-0.002,0.034-0.003,0.051-0.003c0.528,0,0.957-0.431,0.957-0.959V6.919c0-0.527-0.43-0.955-0.957-0.955H3.589z"/>
			</g>
		</g>
		<g>
			<path fill="#1A171B" d="M28.91,16.976c-2.327,0-4.221-1.893-4.221-4.221c0-2.327,1.893-4.221,4.221-4.221
				s4.221,1.893,4.221,4.221C33.131,15.083,31.238,16.976,28.91,16.976z M28.91,9.473c-1.81,0-3.283,1.473-3.283,3.283
				s1.473,3.283,3.283,3.283c1.81,0,3.283-1.473,3.283-3.283S30.72,9.473,28.91,9.473z"/>
		</g>
		<g>
			<path fill="#1A171B" d="M37.834,31.977c-0.259,0-0.469-0.21-0.469-0.469c0-3.739-3.583-6.781-7.988-6.781
				c-2.829,0-5.392,1.238-6.854,3.312c-0.102,0.146-0.271,0.223-0.455,0.193c-0.176-0.027-0.322-0.153-0.375-0.322
				c-1.134-3.6-4.982-6.114-9.359-6.114c-5.348,0-9.699,3.7-9.699,8.246c0,0.259-0.21,0.469-0.469,0.469
				c-0.259,0-0.469-0.21-0.469-0.469c0-5.064,4.772-9.184,10.637-9.184c4.454,0,8.417,2.415,9.954,5.967
				c1.683-1.915,4.27-3.036,7.089-3.036c4.921,0,8.926,3.462,8.926,7.719C38.303,31.767,38.093,31.977,37.834,31.977z"/>
		</g>
	</g>
</g>
<g id="Livello_2">
</g>
</svg>
