<?xml version="1.0" encoding="utf-8"?>
<!-- Generator: Adobe Illustrator 17.0.0, SVG Export Plug-In . SVG Version: 6.00 Build 0)  -->
<!DOCTYPE svg PUBLIC "-//W3C//DTD SVG 1.1//EN" "http://www.w3.org/Graphics/SVG/1.1/DTD/svg11.dtd">
<svg version="1.1" xmlns="http://www.w3.org/2000/svg" xmlns:xlink="http://www.w3.org/1999/xlink" x="0px" y="0px" width="40px"
	 height="40px" viewBox="0 0 40 40" enable-background="new 0 0 40 40" xml:space="preserve">
<g id="Livello_1">
	<g>
		<g>
			<g>
				<g>
					<path fill="#1A171B" d="M19.996,39.651C19.995,39.651,19.995,39.651,19.996,39.651c-5.262,0-10.199-2.041-13.904-5.746
						c-3.706-3.706-5.747-8.644-5.747-13.904c0-5.26,2.041-10.197,5.747-13.902C9.8,2.39,14.739,0.348,19.997,0.348
						c5.255,0,10.193,2.043,13.902,5.752c7.665,7.666,7.665,20.14,0,27.806C30.192,37.61,25.255,39.651,19.996,39.651z
						 M19.997,1.348c-4.991,0-9.678,1.939-13.198,5.458c-3.517,3.517-5.454,8.203-5.454,13.195c0,4.993,1.937,9.68,5.454,13.197
						c3.516,3.517,8.203,5.453,13.196,5.453h0.001c4.992,0,9.678-1.937,13.195-5.453c7.275-7.276,7.275-19.115,0-26.392
						C29.671,3.286,24.985,1.348,19.997,1.348z"/>
				</g>
			</g>
		</g>
		<g>
			<path fill="#1A171B" d="M17.166,35.691c-0.089,0-0.184-0.015-0.283-0.043c-0.471-0.166-0.738-0.631-0.647-1.091l2.398-12.209
				l-4.371-1.226c-0.281-0.081-0.505-0.28-0.616-0.548c-0.112-0.26-0.096-0.571,0.046-0.827l8.241-14.949
				c0.226-0.406,0.737-0.591,1.167-0.427c0.435,0.155,0.693,0.621,0.592,1.08l-2.146,10.61l4.152,0.988
				c0.29,0.079,0.518,0.266,0.638,0.517c0.125,0.269,0.12,0.577-0.011,0.834l-8.309,16.763
				C17.861,35.483,17.526,35.691,17.166,35.691z M22.647,5.575l-8.08,14.657l4.781,1.278c0.251,0.07,0.406,0.322,0.355,0.578
				l-2.414,12.287l8.141-16.423l-4.587-1.03c-0.262-0.062-0.428-0.321-0.375-0.586L22.647,5.575z"/>
		</g>
	</g>
</g>
<g id="Livello_2">
</g>
</svg>
