<?xml version="1.0" encoding="utf-8"?>
<!-- Generator: Adobe Illustrator 19.0.0, SVG Export Plug-In . SVG Version: 6.00 Build 0)  -->
<svg version="1.1" id="Livello_1" xmlns="http://www.w3.org/2000/svg" xmlns:xlink="http://www.w3.org/1999/xlink" x="0px" y="0px"
	 viewBox="0 0 40 40" enable-background="new 0 0 40 40" xml:space="preserve">
<g id="Livello_2_2_">
</g>
<g id="New_Symbol_232">
</g>
<g id="XMLID_953_">
	<path id="XMLID_954_" fill="#1A171B" d="M20.001,37.317c-9.549,0-17.317-7.769-17.317-17.317S10.452,2.683,20.001,2.683
		c9.548,0,17.315,7.769,17.315,17.317S29.549,37.317,20.001,37.317z M20.001,4.183C11.279,4.183,4.184,11.278,4.184,20
		s7.096,15.817,15.817,15.817c8.721,0,15.815-7.096,15.815-15.817S28.722,4.183,20.001,4.183z"/>
</g>
<g id="XMLID_1276_">
	<path id="XMLID_1277_" d="M9.487,21.108c0.066,0,0.129-0.026,0.176-0.073c0.097-0.099,0.097-0.252,0-0.349
		c-0.82-0.822-1.271-1.914-1.271-3.076c0-1.163,0.451-2.255,1.27-3.074c0.048-0.046,0.074-0.108,0.074-0.176
		c0-0.066-0.025-0.129-0.072-0.177c-0.094-0.092-0.258-0.092-0.352,0c-0.913,0.914-1.416,2.131-1.416,3.427
		c0,1.294,0.503,2.511,1.416,3.426C9.358,21.082,9.421,21.108,9.487,21.108z"/>
	<path id="XMLID_1278_" d="M10.034,20.313c0.049,0.048,0.112,0.072,0.176,0.072s0.127-0.024,0.176-0.072
		c0.047-0.048,0.072-0.109,0.072-0.176c0-0.067-0.026-0.13-0.072-0.175C9.758,19.336,9.412,18.5,9.412,17.61
		c0-0.891,0.346-1.726,0.974-2.354c0.095-0.097,0.095-0.253,0-0.351c-0.098-0.096-0.254-0.096-0.352,0
		C8.544,16.397,8.544,18.822,10.034,20.313z"/>
	<path id="XMLID_1279_" d="M10.756,19.59c0.047,0.048,0.109,0.074,0.176,0.074s0.129-0.026,0.175-0.073
		c0.048-0.047,0.074-0.109,0.073-0.177c0-0.066-0.026-0.129-0.072-0.173c-0.435-0.436-0.674-1.015-0.674-1.631
		c0-0.617,0.239-1.196,0.675-1.632c0.046-0.048,0.071-0.11,0.071-0.175c0-0.067-0.026-0.13-0.072-0.174
		c-0.094-0.096-0.258-0.095-0.352-0.001c-0.527,0.528-0.818,1.232-0.818,1.981S10.229,19.062,10.756,19.59z"/>
	<path id="XMLID_1280_" d="M31.608,17.609c0,1.163-0.451,2.255-1.27,3.074c-0.048,0.046-0.074,0.108-0.074,0.177
		c0,0.066,0.025,0.128,0.072,0.176c0.047,0.046,0.109,0.072,0.176,0.072s0.129-0.026,0.176-0.072
		c0.913-0.914,1.416-2.131,1.416-3.427c0-1.294-0.503-2.511-1.416-3.426c-0.094-0.092-0.258-0.092-0.352,0
		c-0.096,0.097-0.096,0.255,0,0.351C31.157,15.355,31.608,16.447,31.608,17.609z"/>
	<path id="XMLID_1281_" d="M30.588,17.609c0,0.891-0.346,1.726-0.974,2.354c-0.095,0.097-0.095,0.253,0,0.351
		c0.049,0.048,0.112,0.072,0.176,0.072s0.127-0.024,0.176-0.072c1.49-1.491,1.49-3.916,0-5.407c-0.098-0.096-0.254-0.096-0.352,0
		c-0.047,0.048-0.072,0.109-0.072,0.176c0,0.068,0.028,0.133,0.072,0.175C30.242,15.884,30.588,16.72,30.588,17.609z"/>
	<path id="XMLID_1283_" d="M28.82,19.416c0,0.067,0.026,0.13,0.072,0.174c0.047,0.048,0.109,0.074,0.176,0.074
		s0.129-0.026,0.176-0.073c0.527-0.528,0.818-1.231,0.818-1.98s-0.291-1.453-0.818-1.98c-0.094-0.096-0.259-0.095-0.351-0.001
		c-0.048,0.047-0.073,0.109-0.073,0.176s0.025,0.129,0.072,0.176c0.435,0.434,0.674,1.013,0.674,1.63
		c0,0.616-0.239,1.195-0.674,1.63C28.846,19.288,28.82,19.35,28.82,19.416z"/>
	<path id="XMLID_1287_" d="M30.463,28.382H27.76V11.829h-9.547v16.553h-2.274v-3.167h1.417V13.334h-4.759v15.048H9.042
		c-0.138,0-0.25,0.112-0.25,0.25s0.112,0.25,0.25,0.25h21.421c0.138,0,0.25-0.112,0.25-0.25S30.601,28.382,30.463,28.382z
		 M14.326,15.137h2.009v2.009h-2.009V15.137z M14.326,18.365h2.009v2.009h-2.009V18.365z M14.326,21.593h2.009v2.009h-2.009V21.593z
		 M23.657,13.809h2.206v2.207h-2.206V13.809z M23.657,17.355h2.206v2.207h-2.206V17.355z M23.657,20.901h2.206v2.207h-2.206V20.901z
		 M20.111,13.809h2.206v2.207h-2.206V13.809z M20.111,17.355h2.206v2.207h-2.206V17.355z M20.111,20.901h2.206v2.207h-2.206V20.901z
		 M21.884,24.88h2.206v3.502h-2.206V24.88z"/>
</g>
</svg>
