<?xml version="1.0" encoding="utf-8"?>
<!-- Generator: Adobe Illustrator 17.0.0, SVG Export Plug-In . SVG Version: 6.00 Build 0)  -->
<!DOCTYPE svg PUBLIC "-//W3C//DTD SVG 1.1//EN" "http://www.w3.org/Graphics/SVG/1.1/DTD/svg11.dtd">
<svg version="1.1" xmlns="http://www.w3.org/2000/svg" xmlns:xlink="http://www.w3.org/1999/xlink" x="0px" y="0px" width="40px"
	 height="40px" viewBox="0 0 40 40" enable-background="new 0 0 40 40" xml:space="preserve">
<g id="Livello_1">
	<path fill="#1A171B" d="M30.88,9.794c-2.876-3.639-7.196-5.726-11.853-5.726c-3.424,0-6.653,1.121-9.338,3.243L9.591,7.389
		l0.662,0.839l0.098-0.078c2.494-1.972,5.494-3.014,8.676-3.014c4.328,0,8.342,1.939,11.015,5.32
		c4.792,6.066,3.757,14.9-2.308,19.693c-2.437,1.924-5.507,2.984-8.648,2.984c-3.939,0-7.621-1.615-10.257-4.43l5.972,0.614
		l0.109-1.062l-7.825-0.805l-0.136-0.015L6.872,35.38l1.062,0.148l-0.03-6.256c2.845,3.129,6.872,4.927,11.185,4.927
		c3.381,0,6.687-1.141,9.307-3.213C34.922,25.83,36.037,16.323,30.88,9.794z"/>
</g>
<g id="Livello_2">
</g>
</svg>
