<?xml version="1.0" encoding="utf-8"?>
<!-- Generator: Adobe Illustrator 17.0.0, SVG Export Plug-In . SVG Version: 6.00 Build 0)  -->
<!DOCTYPE svg PUBLIC "-//W3C//DTD SVG 1.1//EN" "http://www.w3.org/Graphics/SVG/1.1/DTD/svg11.dtd">
<svg version="1.1" xmlns="http://www.w3.org/2000/svg" xmlns:xlink="http://www.w3.org/1999/xlink" x="0px" y="0px" width="40px"
	 height="40px" viewBox="0 0 40 40" enable-background="new 0 0 40 40" xml:space="preserve">
<g id="Livello_1">
	<g>
		<g>
			<path fill="#1A171B" d="M21.467,38.585h-2.948c-1.381,0-2.504-1.122-2.504-2.499v-3.237c-0.889-0.276-1.754-0.647-2.582-1.108
				l-2.057,2.044c-0.961,0.943-2.589,0.934-3.536-0.011l-2.084-2.097c-0.97-0.976-0.965-2.562,0.013-3.534l2.175-2.16
				C7.62,25.326,7.35,24.655,7.141,23.98H3.909c-1.379-0.005-2.5-1.129-2.5-2.507v-2.949c0-1.38,1.122-2.502,2.5-2.502h3.237
				c0.275-0.886,0.646-1.75,1.108-2.577l-2.41-2.434c-0.471-0.475-0.729-1.106-0.725-1.775c0.004-0.668,0.268-1.293,0.743-1.762
				l2.091-2.081c0.958-0.94,2.597-0.93,3.537,0.012l2.524,2.547c0.64-0.32,1.313-0.59,2.009-0.803V3.915c0-1.379,1.122-2.5,2.5-2.5
				h2.952c1.378,0,2.499,1.122,2.499,2.5v3.238c0.711,0.219,1.415,0.505,2.098,0.851l2.548-2.524
				c0.961-0.944,2.593-0.93,3.536,0.012l2.08,2.096c0.467,0.467,0.725,1.096,0.725,1.77c0,0.665-0.263,1.291-0.739,1.766
				l-2.425,2.41c0.435,0.794,0.789,1.63,1.055,2.494h3.24c1.378,0,2.499,1.122,2.499,2.5v2.944c0,1.381-1.122,2.503-2.499,2.503
				h-3.24c-0.218,0.712-0.504,1.416-0.853,2.1l2.159,2.174c0.466,0.461,0.724,1.091,0.724,1.77c0,0.666-0.263,1.292-0.739,1.764
				l-2.091,2.082c-0.961,0.943-2.603,0.925-3.535-0.014l-2.041-2.057c-0.797,0.438-1.63,0.793-2.487,1.058v3.239
				C23.965,37.472,22.835,38.585,21.467,38.585z M13.282,30.551l0.317,0.187c0.958,0.567,1.974,1.004,3.02,1.296l0.347,0.097v3.953
				c0,0.854,0.697,1.549,1.553,1.549h2.948c0.852,0,1.557-0.695,1.571-1.548v-3.948l0.347-0.097
				c1.018-0.284,2.004-0.704,2.931-1.249l0.317-0.187l2.557,2.576c0.577,0.582,1.596,0.592,2.193,0.007l2.089-2.081
				c0.295-0.292,0.458-0.679,0.458-1.089c0-0.423-0.158-0.812-0.445-1.096l-2.657-2.677l0.169-0.31
				c0.45-0.828,0.799-1.691,1.039-2.563l0.097-0.349h3.959c0.854,0,1.549-0.696,1.549-1.552v-2.944c0-0.854-0.695-1.55-1.549-1.55
				h-3.958l-0.097-0.348c-0.285-1.027-0.704-2.016-1.243-2.938l-0.186-0.318l2.943-2.925c0.296-0.294,0.459-0.682,0.459-1.092
				c0-0.42-0.159-0.81-0.448-1.098l-2.08-2.096c-0.588-0.586-1.593-0.6-2.196-0.006l-3.043,3.015l-0.31-0.167
				c-0.829-0.448-1.692-0.797-2.563-1.039l-0.348-0.097V3.915c0-0.854-0.695-1.55-1.549-1.55h-2.952
				c-0.854,0-1.549,0.695-1.549,1.55v3.951l-0.348,0.097c-0.87,0.241-1.703,0.575-2.478,0.991l-0.313,0.168l-3.019-3.046
				c-0.581-0.58-1.602-0.589-2.195-0.006L6.53,8.149C6.234,8.441,6.071,8.828,6.069,9.241c-0.002,0.415,0.157,0.806,0.45,1.101
				l2.923,2.953L9.255,13.61c-0.568,0.958-1.004,1.973-1.296,3.016l-0.097,0.347H3.909c-0.854,0-1.549,0.696-1.549,1.551v2.949
				c0,0.855,0.695,1.553,1.551,1.556h3.949l0.097,0.348c0.232,0.836,0.565,1.668,0.992,2.475l0.165,0.311L6.44,28.816
				c-0.605,0.603-0.61,1.585-0.009,2.189l2.083,2.096c0.588,0.585,1.599,0.591,2.195,0.006L13.282,30.551z"/>
		</g>
		<g>
			<path fill="#1A171B" d="M20,27.302c-4.027,0-7.302-3.276-7.302-7.302c0-4.028,3.276-7.304,7.302-7.304
				c4.027,0,7.304,3.277,7.304,7.304C27.303,24.027,24.027,27.302,20,27.302z M20,13.647c-3.502,0-6.352,2.85-6.352,6.353
				c0,3.502,2.849,6.352,6.352,6.352c3.503,0,6.353-2.849,6.353-6.352C26.352,16.497,23.502,13.647,20,13.647z"/>
		</g>
	</g>
</g>
<g id="Livello_2">
</g>
</svg>
