<?xml version="1.0" encoding="utf-8"?>
<!-- Generator: Adobe Illustrator 19.0.0, SVG Export Plug-In . SVG Version: 6.00 Build 0)  -->
<svg version="1.1" id="Livello_1" xmlns="http://www.w3.org/2000/svg" xmlns:xlink="http://www.w3.org/1999/xlink" x="0px" y="0px"
	 viewBox="-192 128.64 40 40" enable-background="new -192 128.64 40 40" xml:space="preserve">
<g id="Livello_2_2_">
</g>
<g id="New_Symbol_232">
</g>
<g>
	<path d="M-171.938,153.48l-7.938,9.58v-29.896c0-0.414-0.336-0.75-0.75-0.75s-0.75,0.336-0.75,0.75v29.854l-7.938-9.539
		c-0.265-0.319-0.738-0.363-1.057-0.097c-0.318,0.265-0.361,0.737-0.097,1.056l9.285,11.157c0.143,0.172,0.354,0.271,0.577,0.271
		c0,0,0,0,0.001,0c0.223,0,0.434-0.1,0.577-0.271l9.246-11.157c0.264-0.319,0.22-0.792-0.099-1.056
		C-171.202,153.116-171.674,153.161-171.938,153.48z"/>
	<path d="M-153.533,142.842l-9.284-11.157c-0.143-0.171-0.354-0.271-0.576-0.271h-0.001c-0.223,0-0.435,0.1-0.576,0.271
		l-9.247,11.157c-0.264,0.319-0.22,0.792,0.099,1.056c0.319,0.264,0.792,0.22,1.056-0.099l7.938-9.579v29.896
		c0,0.414,0.336,0.75,0.75,0.75s0.75-0.336,0.75-0.75v-29.855l7.938,9.539c0.148,0.179,0.361,0.271,0.576,0.271
		c0.17,0,0.34-0.057,0.479-0.173C-153.312,143.633-153.268,143.16-153.533,142.842z"/>
</g>
</svg>
