<?xml version="1.0" encoding="utf-8"?>
<!-- Generator: Adobe Illustrator 19.0.0, SVG Export Plug-In . SVG Version: 6.00 Build 0)  -->
<svg version="1.1" id="Livello_1" xmlns="http://www.w3.org/2000/svg" xmlns:xlink="http://www.w3.org/1999/xlink" x="0px" y="0px"
	 viewBox="0 0 40 40" enable-background="new 0 0 40 40" xml:space="preserve">
<g id="Livello_2_2_">
</g>
<g>
	<path d="M12.08,34.39c-0.714,0-1.339-0.449-1.565-1.131l-4.013-12.1l-2.724,1.187c-0.416,0.176-0.901-0.009-1.084-0.424
		c-0.182-0.417,0.008-0.902,0.424-1.085l2.719-1.189c0.422-0.185,0.908-0.184,1.332,0.003c0.423,0.189,0.75,0.55,0.896,0.99
		l4.013,12.099l4.78-25.91c0.192-0.719,0.848-1.222,1.594-1.222h18.1c0.454,0,0.823,0.369,0.823,0.823s-0.369,0.823-0.823,0.823
		h-18.1l-4.776,25.913c-0.192,0.709-0.812,1.2-1.546,1.221C12.112,34.39,12.096,34.39,12.08,34.39z"/>
</g>
</svg>
