<?xml version="1.0" encoding="utf-8"?>
<!-- Generator: Adobe Illustrator 17.0.0, SVG Export Plug-In . SVG Version: 6.00 Build 0)  -->
<!DOCTYPE svg PUBLIC "-//W3C//DTD SVG 1.1//EN" "http://www.w3.org/Graphics/SVG/1.1/DTD/svg11.dtd">
<svg version="1.1" xmlns="http://www.w3.org/2000/svg" xmlns:xlink="http://www.w3.org/1999/xlink" x="0px" y="0px" width="40px"
	 height="40px" viewBox="0 0 40 40" enable-background="new 0 0 40 40" xml:space="preserve">
<g id="Livello_1">
	<path fill="#1D1D1B" d="M38.748,15.743c-0.064-0.197-0.243-0.335-0.45-0.345l-13.146-0.657L20.467,2.443
		c-0.146-0.389-0.787-0.389-0.934,0l-4.686,12.298L1.702,15.398c-0.207,0.01-0.386,0.148-0.45,0.345
		c-0.065,0.197,0,0.413,0.162,0.544l10.247,8.257L8.225,37.248c-0.055,0.2,0.021,0.413,0.189,0.535
		c0.168,0.121,0.393,0.127,0.567,0.015L20,30.602l11.019,7.196c0.083,0.054,0.179,0.081,0.274,0.081
		c0.103,0,0.206-0.032,0.294-0.096c0.168-0.122,0.243-0.335,0.188-0.535l-3.437-12.704l10.247-8.257
		C38.748,16.156,38.812,15.94,38.748,15.743z"/>
	<g id="New_Symbol_232">
	</g>
</g>
<g id="Livello_2">
</g>
</svg>
