<?xml version="1.0" encoding="utf-8"?>
<!-- Generator: Adobe Illustrator 17.0.0, SVG Export Plug-In . SVG Version: 6.00 Build 0)  -->
<!DOCTYPE svg PUBLIC "-//W3C//DTD SVG 1.1//EN" "http://www.w3.org/Graphics/SVG/1.1/DTD/svg11.dtd">
<svg version="1.1" xmlns="http://www.w3.org/2000/svg" xmlns:xlink="http://www.w3.org/1999/xlink" x="0px" y="0px" width="40px"
	 height="40px" viewBox="0 0 40 40" enable-background="new 0 0 40 40" xml:space="preserve">
<g id="Livello_1">
	<g>
		<g>
			<path fill="#1A171B" d="M21.475,5.33c-0.042-0.021-4.203-1.997-7.514-2.249C10.481,2.81,6.994,4.657,6.958,4.677L6.487,3.794
				c0.152-0.081,3.78-1.992,7.55-1.711c3.499,0.268,7.692,2.261,7.869,2.345L21.475,5.33z"/>
		</g>
		<g>
			<polygon fill="#1A171B" points="17.957,7.297 17.519,6.398 20.949,4.726 18.733,1.681 19.542,1.093 22.459,5.101 			"/>
		</g>
	</g>
	<g>
		<g>
			<path fill="#1A171B" d="M3.023,9.914L2.592,9.012c0.177-0.084,4.37-2.077,7.87-2.345c3.758-0.274,7.397,1.63,7.549,1.711
				L17.54,9.261c-0.035-0.019-3.533-1.867-7.002-1.596C7.227,7.917,3.065,9.894,3.023,9.914z"/>
		</g>
		<g>
			<polygon fill="#1A171B" points="6.542,11.881 2.039,9.685 4.956,5.677 5.765,6.265 3.549,9.31 6.979,10.982 			"/>
		</g>
	</g>
</g>
<g id="Livello_2">
	<g>
		<path fill="#1A171B" d="M25.338,39.438c-1.273,0-2.564-0.138-3.732-0.398c-1.993-0.444-6.186-3.643-7.073-4.562
			c-0.802-0.831-2.95-4.021-3.265-6.616c-0.138-1.13,0.729-4.497,1.79-5.695c0.209-0.235,0.428-0.393,0.652-0.471
			c-0.045-0.103-0.091-0.206-0.137-0.308c-0.69-1.502-1.712-3.237-2.614-4.769c-1.527-2.594-2.096-3.63-2-4.22
			c0.161-1,0.981-2.154,2.073-2.356l0.193-0.039c0.252-0.053,0.537-0.112,0.859-0.112c0.953,0,1.826,0.544,2.749,1.711
			c0.799,1.011,2.093,3.802,3.182,6.327c-0.05-0.636-0.031-1.167,0.103-1.477c0.54-1.253,2.046-1.746,2.505-1.775l0.113-0.003
			c0.291,0,1.78,0.073,2.47,1.521c0.11,0.232,0.215,0.482,0.312,0.735c0.124-0.43,0.3-0.805,0.551-1.019
			c0.772-0.656,1.829-0.996,2.548-0.794c0.773,0.217,1.424,1.035,1.659,2.088c0.101-0.228,0.223-0.413,0.367-0.521
			c0.699-0.524,1.915-0.58,2.685-0.046c0.94,0.652,3.102,4.558,3.482,7.974c0.311,2.808,0.662,7.826-0.497,9.894
			c-1.204,2.145-3.667,3.811-5.446,4.45C28.001,39.266,26.748,39.438,25.338,39.438z M14.068,22.658
			c-0.664,0.066-1.965,3.786-1.808,5.081c0.282,2.328,2.281,5.306,2.993,6.044c0.847,0.878,4.857,3.898,6.569,4.279
			c1.099,0.245,2.313,0.375,3.515,0.375c1.279,0,2.441-0.155,3.189-0.425c1.345-0.483,3.761-1.946,4.912-3.999
			c0.748-1.331,0.885-4.719,0.376-9.292c-0.361-3.258-2.468-6.854-3.057-7.264c-0.473-0.327-1.261-0.167-1.516,0.025
			c-0.141,0.161-0.35,1.103-0.431,2l-0.251,2.767l-0.729-2.681c0,0-0.324-1.19-0.528-2.133c-0.174-0.797-0.618-1.263-0.957-1.357
			c-0.373-0.106-1.122,0.161-1.629,0.593c-0.276,0.235-0.481,1.593-0.49,2.663l-0.038,4.157l-0.949-4.048
			c-0.004-0.018-0.401-1.703-0.936-2.82c-0.432-0.906-1.382-0.952-1.567-0.952c-0.291,0.02-1.356,0.378-1.7,1.175
			c-0.24,0.559,0.304,3.476,0.945,5.857l-0.948,0.312C19,22.928,15.515,14.073,14.05,12.22c-0.942-1.192-1.572-1.33-1.964-1.33
			c-0.22,0-0.432,0.044-0.655,0.091l-0.215,0.043c-0.562,0.104-1.153,0.821-1.27,1.534c0.009,0.382,1.044,2.14,1.876,3.553
			c0.913,1.552,1.949,3.311,2.66,4.858c0.181,0.393,0.349,0.802,0.504,1.22l0.002,0.007c1.085,1.495,1.625,6.412,1.684,6.977
			l-0.993,0.115c-0.004-0.035-0.462-3.537-1.572-6.593C14.091,22.678,14.078,22.666,14.068,22.658z"/>
	</g>
</g>
</svg>
