<?xml version="1.0" encoding="utf-8"?>
<!-- Generator: Adobe Illustrator 17.0.0, SVG Export Plug-In . SVG Version: 6.00 Build 0)  -->
<!DOCTYPE svg PUBLIC "-//W3C//DTD SVG 1.1//EN" "http://www.w3.org/Graphics/SVG/1.1/DTD/svg11.dtd">
<svg version="1.1" xmlns="http://www.w3.org/2000/svg" xmlns:xlink="http://www.w3.org/1999/xlink" x="0px" y="0px" width="40px"
	 height="40px" viewBox="0 0 40 40" enable-background="new 0 0 40 40" xml:space="preserve">
<g id="Livello_1">
</g>
<g id="Livello_2">
	<g>
		<path fill="#1D1D1B" d="M35.954,2.243H23.171c-0.837,0-1.946,0.473-2.519,1.071L2.766,21.376
			c-0.674,0.702-0.663,1.836,0.026,2.526l13.329,13.327c0.338,0.34,0.792,0.527,1.278,0.527c0.47,0,0.914-0.177,1.255-0.505
			l18.002-17.86c0.604-0.579,1.076-1.688,1.076-2.525V4.021C37.732,3.041,36.935,2.243,35.954,2.243z M36.732,16.866
			c0,0.568-0.359,1.411-0.774,1.81L17.956,36.537c-0.3,0.288-0.831,0.282-1.127-0.014L3.5,23.195
			c-0.307-0.308-0.312-0.813-0.017-1.121L21.369,4.012c0.392-0.409,1.234-0.769,1.802-0.769h12.783c0.429,0,0.778,0.35,0.778,0.778
			V16.866z"/>
		<path fill="#1D1D1B" d="M30.529,5.682c-2.103,0-3.813,1.711-3.813,3.813s1.71,3.813,3.813,3.813s3.813-1.711,3.813-3.813
			S32.631,5.682,30.529,5.682z M30.529,12.309c-1.551,0-2.813-1.262-2.813-2.813s1.262-2.813,2.813-2.813s2.813,1.262,2.813,2.813
			S32.08,12.309,30.529,12.309z"/>
	</g>
</g>
</svg>
