<?xml version="1.0" encoding="utf-8"?>
<!-- Generator: Adobe Illustrator 19.0.0, SVG Export Plug-In . SVG Version: 6.00 Build 0)  -->
<svg version="1.1" id="Livello_1" xmlns="http://www.w3.org/2000/svg" xmlns:xlink="http://www.w3.org/1999/xlink" x="0px" y="0px"
	 viewBox="0 0 40 40" enable-background="new 0 0 40 40" xml:space="preserve">
<g id="Livello_2_2_">
</g>
<g id="New_Symbol_232">
</g>
<g id="XMLID_1_">
	<path id="XMLID_2_" d="M31.66,16.341h-5.214l5.158-7.284c0.12-0.177,0.181-0.371,0.181-0.584V7.784h-7.438v1.487h5.019l-5.172,7.32
		c-0.051,0.074-0.093,0.153-0.125,0.239s-0.049,0.175-0.049,0.268v0.737h7.64V16.341z"/>
	<path id="XMLID_10_" d="M29.491,23.784H27.58l-3.948,10.052h1.452c0.158,0,0.291-0.044,0.4-0.132
		c0.108-0.088,0.182-0.186,0.219-0.292l0.751-2.051h4.163l0.751,2.051c0.046,0.12,0.122,0.221,0.226,0.302
		c0.104,0.082,0.237,0.122,0.4,0.122h1.445L29.491,23.784z M26.933,30.041l1.224-3.33c0.06-0.153,0.121-0.331,0.184-0.535
		s0.126-0.424,0.191-0.66c0.064,0.236,0.131,0.455,0.198,0.656c0.066,0.202,0.128,0.377,0.184,0.525l1.224,3.344H26.933z"/>
	<path id="XMLID_11_" d="M17.468,24.455l-6.692,8.076V6.934c0-0.414-0.336-0.75-0.75-0.75s-0.75,0.336-0.75,0.75v25.563
		l-6.693-8.043c-0.265-0.319-0.737-0.363-1.057-0.097c-0.318,0.265-0.361,0.737-0.097,1.056l8.037,9.657
		c0.143,0.172,0.354,0.271,0.577,0.271h0.001c0.223,0,0.434-0.1,0.577-0.271l8.003-9.657c0.264-0.319,0.22-0.792-0.099-1.056
		C18.204,24.091,17.733,24.137,17.468,24.455z"/>
</g>
</svg>
