<?xml version="1.0" encoding="utf-8"?>
<!-- Generator: Adobe Illustrator 19.0.0, SVG Export Plug-In . SVG Version: 6.00 Build 0)  -->
<svg version="1.1" id="Livello_1" xmlns="http://www.w3.org/2000/svg" xmlns:xlink="http://www.w3.org/1999/xlink" x="0px" y="0px"
	 viewBox="0 0 40 40" enable-background="new 0 0 40 40" xml:space="preserve">
<g id="Livello_2_2_">
</g>
<g id="New_Symbol_232">
</g>
<g id="XMLID_1_">
	<path id="XMLID_17_" d="M32.937,7.304h-1.431H27.19V6.348c0-1.345-0.423-2.32-1.278-2.915c-0.604-0.39-1.353-0.588-2.224-0.588
		h-6.441c-0.005,0-0.009,0.003-0.014,0.003c-0.005,0-0.009-0.003-0.014-0.003h-0.909c-2.259,0-3.503,1.244-3.503,3.503v0.956H8.356
		H7.063c-0.414,0-0.75,0.336-0.75,0.75s0.336,0.75,0.75,0.75h0.647l1.946,25.785c0,1.631,0.945,2.566,2.594,2.566h15.461
		c1.611,0,2.557-0.93,2.592-2.51L32.25,8.804h0.686c0.414,0,0.75-0.336,0.75-0.75S33.351,7.304,32.937,7.304z M30.635,10.28
		c-0.001,0-0.001,0-0.002,0H9.326L9.215,8.804h21.531L30.635,10.28z M14.308,6.348c0-1.423,0.58-2.003,2.003-2.003h7.378
		c0.578,0,1.053,0.117,1.389,0.333c0.413,0.287,0.613,0.833,0.613,1.67v0.956H14.308V6.348z M28.806,34.572
		c-0.019,0.81-0.295,1.083-1.095,1.083H12.25c-0.818,0-1.094-0.269-1.096-1.123L9.439,11.779h21.082L28.806,34.572z"/>
	<path id="XMLID_20_" d="M17.401,12.969c-0.414,0.015-0.737,0.362-0.722,0.776l0.704,19.354c0.015,0.404,0.347,0.723,0.748,0.723
		c0.01,0,0.019,0,0.028-0.001c0.414-0.015,0.737-0.362,0.722-0.776L18.178,13.69C18.163,13.276,17.825,12.933,17.401,12.969z"/>
	<path id="XMLID_21_" d="M12.752,12.97c-0.413,0.028-0.725,0.387-0.696,0.8l1.329,19.354c0.027,0.396,0.356,0.698,0.747,0.698
		c0.018,0,0.035-0.001,0.053-0.002c0.413-0.028,0.725-0.387,0.696-0.8l-1.329-19.354C13.523,13.253,13.161,12.946,12.752,12.97z"/>
	<path id="XMLID_22_" d="M22.536,12.969c-0.419-0.04-0.762,0.308-0.776,0.722l-0.705,19.354c-0.016,0.414,0.308,0.762,0.722,0.776
		c0.01,0.001,0.019,0.001,0.028,0.001c0.401,0,0.733-0.318,0.748-0.723l0.705-19.354C23.273,13.331,22.95,12.983,22.536,12.969z"/>
	<path id="XMLID_23_" d="M27.185,12.97c-0.406-0.025-0.771,0.283-0.8,0.696L25.056,33.02c-0.028,0.413,0.283,0.771,0.696,0.8
		c0.018,0.001,0.035,0.002,0.053,0.002c0.391,0,0.72-0.303,0.747-0.698l1.329-19.354C27.909,13.356,27.598,12.998,27.185,12.97z"/>
</g>
</svg>
