<?xml version="1.0" encoding="utf-8"?>
<!-- Generator: Adobe Illustrator 17.0.0, SVG Export Plug-In . SVG Version: 6.00 Build 0)  -->
<!DOCTYPE svg PUBLIC "-//W3C//DTD SVG 1.1//EN" "http://www.w3.org/Graphics/SVG/1.1/DTD/svg11.dtd">
<svg version="1.1" xmlns="http://www.w3.org/2000/svg" xmlns:xlink="http://www.w3.org/1999/xlink" x="0px" y="0px" width="40px"
	 height="40px" viewBox="0 0 40 40" enable-background="new 0 0 40 40" xml:space="preserve">
<g id="Livello_1">
	<g>
		<g>
			<path fill="#1A171B" d="M14.702,28.838c-1.757,0-3.054-0.031-4.248-0.061C9.44,28.753,8.5,28.73,7.411,28.73
				c-3.555,0-6.447-2.892-6.447-6.446c0-2.154,1.042-4.118,2.807-5.321c-0.145-0.701-0.217-1.418-0.217-2.138
				c0-5.842,4.753-10.595,10.596-10.595c3.912,0,7.495,2.164,9.332,5.574c1.207-1.234,2.845-1.929,4.599-1.929
				c3.555,0,6.447,2.892,6.447,6.446c0,0.531-0.063,1.055-0.189,1.562c2.753,0.771,4.699,3.299,4.699,6.207
				c0,3.556-2.893,6.448-6.447,6.448c-1.661,0-2.827,0.013-3.979,0.024c-1.126,0.012-2.239,0.024-3.784,0.024
				c-0.276,0-0.5-0.224-0.5-0.5c0-0.276,0.224-0.5,0.5-0.5c1.541,0,2.65-0.012,3.773-0.024c1.155-0.012,2.325-0.024,3.99-0.024
				c3.004,0,5.447-2.444,5.447-5.448c0-2.613-1.859-4.863-4.422-5.35c-0.142-0.027-0.266-0.114-0.339-0.24
				c-0.072-0.125-0.087-0.275-0.04-0.413c0.193-0.565,0.291-1.16,0.291-1.767c0-3.003-2.443-5.446-5.447-5.446
				c-1.703,0-3.277,0.776-4.318,2.129c-0.108,0.14-0.282,0.214-0.455,0.191c-0.175-0.021-0.325-0.131-0.397-0.292
				c-1.546-3.446-4.984-5.674-8.76-5.674c-5.291,0-9.596,4.304-9.596,9.595c0,0.76,0.09,1.518,0.267,2.252
				c0.051,0.212-0.041,0.433-0.227,0.545c-1.647,0.996-2.63,2.739-2.63,4.662c0,3.003,2.444,5.446,5.447,5.446
				c1.098,0,2.045,0.022,3.067,0.048c1.188,0.028,2.477,0.06,4.224,0.06c0.276,0,0.5,0.224,0.5,0.5
				C15.202,28.614,14.978,28.838,14.702,28.838z"/>
		</g>
		<g>
			<g>
				<path fill="#1A171B" d="M26.35,22.456c-0.125,0-0.25-0.047-0.347-0.14l-6.777-6.535l-6.746,6.508
					c-0.198,0.191-0.515,0.188-0.707-0.014c-0.192-0.198-0.186-0.515,0.013-0.707l7.093-6.841c0.193-0.188,0.5-0.186,0.694-0.001
					l7.123,6.869c0.199,0.192,0.205,0.509,0.014,0.707C26.611,22.405,26.48,22.456,26.35,22.456z"/>
			</g>
			<g>
				<path fill="#1A171B" d="M19.226,35.769c-0.276,0-0.5-0.224-0.5-0.5V15.087c0-0.276,0.224-0.5,0.5-0.5c0.276,0,0.5,0.224,0.5,0.5
					v20.183C19.726,35.546,19.502,35.769,19.226,35.769z"/>
			</g>
		</g>
	</g>
</g>
<g id="Livello_2">
</g>
</svg>
