<?xml version="1.0" encoding="utf-8"?>
<!-- Generator: Adobe Illustrator 17.0.0, SVG Export Plug-In . SVG Version: 6.00 Build 0)  -->
<!DOCTYPE svg PUBLIC "-//W3C//DTD SVG 1.1//EN" "http://www.w3.org/Graphics/SVG/1.1/DTD/svg11.dtd">
<svg version="1.1" xmlns="http://www.w3.org/2000/svg" xmlns:xlink="http://www.w3.org/1999/xlink" x="0px" y="0px" width="40px"
	 height="40px" viewBox="0 0 40 40" enable-background="new 0 0 40 40" xml:space="preserve">
<g id="Livello_1">
	<g>
		<g>
			<path fill="#1A171B" d="M20,21.456c-5.127,0-9.298-4.171-9.298-9.298S14.873,2.861,20,2.861c5.127,0,9.298,4.171,9.298,9.298
				S25.127,21.456,20,21.456z M20,3.744c-4.639,0-8.414,3.775-8.414,8.414s3.775,8.414,8.414,8.414s8.414-3.775,8.414-8.414
				S24.639,3.744,20,3.744z"/>
		</g>
		<g>
			<path fill="#1A171B" d="M36.828,37.139H3.172c-0.244,0-0.442-0.198-0.442-0.442V30.99c0.403-7.249,6.934-7.686,7-7.69
				l20.513-0.001c0.09,0.004,6.623,0.442,7.025,7.666l0.001,5.732C37.27,36.942,37.072,37.139,36.828,37.139z M3.614,36.256h32.772
				V30.99c-0.358-6.418-5.929-6.795-6.166-6.808L9.755,24.183c-0.212,0.013-5.783,0.41-6.141,6.831L3.614,36.256z"/>
		</g>
	</g>
</g>
<g id="Livello_2">
</g>
</svg>
