<?xml version="1.0" encoding="utf-8"?>
<!-- Generator: Adobe Illustrator 19.0.0, SVG Export Plug-In . SVG Version: 6.00 Build 0)  -->
<svg version="1.1" id="Livello_1" xmlns="http://www.w3.org/2000/svg" xmlns:xlink="http://www.w3.org/1999/xlink" x="0px" y="0px"
	 viewBox="0 0 40 40" enable-background="new 0 0 40 40" xml:space="preserve">
<g id="Livello_2_2_">
</g>
<g>
	<g>
		<path d="M32.336,29.956H7.664c-1.801,0-3.267-1.459-3.267-3.252V13.296c0-1.793,1.466-3.252,3.267-3.252h24.673
			c1.801,0,3.267,1.459,3.267,3.252v13.408C35.604,28.497,34.138,29.956,32.336,29.956z M7.664,11.044
			c-1.25,0-2.267,1.01-2.267,2.252v13.408c0,1.242,1.017,2.252,2.267,2.252h24.673c1.25,0,2.267-1.01,2.267-2.252V13.296
			c0-1.242-1.017-2.252-2.267-2.252H7.664z"/>
	</g>
	<g>
		<g>
			<path d="M11.569,20.835c-1.77,0-3.209-1.439-3.209-3.208c0-1.77,1.439-3.21,3.209-3.21s3.209,1.44,3.209,3.21
				C14.778,19.396,13.338,20.835,11.569,20.835z M11.569,15.417c-1.218,0-2.209,0.991-2.209,2.21c0,1.218,0.991,2.208,2.209,2.208
				s2.209-0.99,2.209-2.208C13.778,16.408,12.787,15.417,11.569,15.417z"/>
		</g>
		<g>
			<path d="M16.718,25.634H6.421c-0.276,0-0.5-0.224-0.5-0.5v-1.747c0.114-2.053,1.676-2.672,2.486-2.716l6.296-0.001
				c0.837,0.045,2.4,0.664,2.514,2.688l0.001,1.775C17.218,25.41,16.994,25.634,16.718,25.634z M6.921,24.634h9.297v-1.247
				c-0.092-1.619-1.483-1.714-1.542-1.718L8.435,21.67c-0.118,0.01-1.425,0.146-1.515,1.744L6.921,24.634z"/>
		</g>
	</g>
	<g>
		<rect x="17.708" y="14.862" width="15.036" height="1"/>
	</g>
	<g>
		<rect x="17.708" y="21.377" width="15.036" height="1"/>
	</g>
	<g>
		<rect x="17.708" y="24.634" width="15.036" height="1"/>
	</g>
	<g>
		<g>
			<rect x="17.708" y="18.12" width="5.899" height="1"/>
		</g>
		<g>
			<rect x="27.156" y="18.12" width="5.589" height="1"/>
		</g>
	</g>
</g>
</svg>
