<?xml version="1.0" encoding="utf-8"?>
<!-- Generator: Adobe Illustrator 19.0.0, SVG Export Plug-In . SVG Version: 6.00 Build 0)  -->
<svg version="1.1" id="Livello_1" xmlns="http://www.w3.org/2000/svg" xmlns:xlink="http://www.w3.org/1999/xlink" x="0px" y="0px"
	 viewBox="0 0 40 40" enable-background="new 0 0 40 40" xml:space="preserve">
<g id="Livello_2_2_">
</g>
<g>
	<path fill="#1D1D1B" d="M36.389,4.962h-5.906c-0.246,0-0.446,0.199-0.446,0.446c0,0.076,0.024,0.144,0.057,0.206v3.398
		c0,0.524-0.424,0.948-0.948,0.948h-1.838c-0.486,0-0.88-0.394-0.88-0.88V5.669c0.055-0.074,0.094-0.161,0.094-0.261
		c0-0.247-0.199-0.446-0.446-0.446H14.171c-0.246,0-0.446,0.199-0.446,0.446c0,0.069,0.019,0.132,0.047,0.191v3.437
		c0,0.511-0.414,0.925-0.925,0.925h-1.632c-0.516,0-0.934-0.418-0.934-0.934V5.624c0.037-0.065,0.063-0.136,0.063-0.216
		c0-0.247-0.199-0.446-0.446-0.446H3.675c-0.547,0-0.992,0.445-0.992,0.991v29.534c0,0.548,0.445,0.993,0.992,0.993h32.714
		c0.546,0,0.991-0.445,0.991-0.993V5.953C37.38,5.407,36.935,4.962,36.389,4.962z M36.389,35.588H3.675
		c-0.056,0-0.1-0.044-0.1-0.101V13.214h32.913v22.272C36.488,35.543,36.445,35.588,36.389,35.588z"/>
	<path fill="#1D1D1B" d="M12.147,8.944c0.246,0,0.446-0.2,0.446-0.446V2.5c0-0.246-0.199-0.446-0.446-0.446s-0.446,0.2-0.446,0.446
		v5.999C11.701,8.745,11.901,8.944,12.147,8.944z"/>
	<path fill="#1D1D1B" d="M28.301,8.944c0.246,0,0.446-0.2,0.446-0.446V2.5c0-0.246-0.199-0.446-0.446-0.446
		c-0.247,0-0.446,0.2-0.446,0.446v5.999C27.855,8.745,28.054,8.944,28.301,8.944z"/>
	<circle fill="#1D1D1B" cx="9.842" cy="17.503" r="2.458"/>
	<circle fill="#1D1D1B" cx="16.906" cy="17.503" r="2.458"/>
	<circle fill="#1D1D1B" cx="23.969" cy="17.503" r="2.458"/>
	<circle fill="#1D1D1B" cx="9.842" cy="24.348" r="2.458"/>
	<circle fill="#1D1D1B" cx="16.906" cy="24.348" r="2.458"/>
	<circle fill="#1D1D1B" cx="23.969" cy="24.348" r="2.458"/>
	<circle fill="#1D1D1B" cx="9.842" cy="31.193" r="2.458"/>
	<circle fill="#1D1D1B" cx="16.906" cy="31.193" r="2.458"/>
	<circle fill="#1D1D1B" cx="23.969" cy="31.193" r="2.458"/>
	<circle fill="#1D1D1B" cx="30.867" cy="17.503" r="2.458"/>
	<circle fill="#1D1D1B" cx="30.867" cy="24.348" r="2.458"/>
	<circle fill="#1D1D1B" cx="30.867" cy="31.193" r="2.458"/>
</g>
</svg>
